<?xml version="1.0" standalone="no"?>
<!DOCTYPE svg PUBLIC "-//W3C//DTD SVG 20010904//EN"
 "http://www.w3.org/TR/2001/REC-SVG-20010904/DTD/svg10.dtd">
<svg version="1.0" xmlns="http://www.w3.org/2000/svg"
 width="700.000000pt" height="700.000000pt" viewBox="0 0 700.000000 700.000000"
 preserveAspectRatio="xMidYMid meet">
<metadata>
Created by potrace 1.11, written by Peter Selinger 2001-2013
</metadata>
<g transform="translate(0.000000,700.000000) scale(0.100000,-0.100000)"
fill="#000000" stroke="none">
<path d="M3300 6875 c-1 -11 -2 -24 -1 -28 1 -5 -3 -6 -9 -2 -6 3 -8 10 -6 14
3 4 -1 8 -9 8 -8 0 -11 -5 -8 -10 3 -5 0 -7 -8 -5 -8 3 -13 11 -11 17 1 7 -2
10 -8 6 -6 -3 -8 -10 -5 -14 2 -5 -6 -8 -20 -8 -14 0 -22 4 -18 10 3 5 1 7 -5
3 -6 -3 -13 -2 -17 4 -3 5 -11 10 -16 10 -6 0 -3 -7 5 -16 20 -20 20 -25 -1
-17 -11 4 -14 3 -9 -5 5 -8 2 -10 -9 -5 -12 4 -13 8 -5 13 8 5 9 10 2 14 -6 3
-13 2 -17 -4 -3 -5 -11 -10 -16 -10 -6 0 -8 4 -4 9 3 6 -4 8 -15 6 -11 -2 -20
2 -20 8 0 7 -5 4 -10 -5 -7 -11 -20 -15 -40 -13 -17 2 -36 -2 -44 -11 -16 -16
-40 -19 -31 -4 3 6 1 10 -5 10 -7 0 -10 -7 -6 -15 3 -9 -1 -16 -9 -16 -8 -1
-21 -2 -27 -3 -7 -1 -12 -12 -11 -24 2 -12 -2 -22 -8 -22 -5 0 -8 4 -4 9 9 16
-25 43 -39 31 -7 -5 -17 -6 -21 -2 -5 4 -5 1 -1 -6 6 -9 11 -10 21 -2 9 8 14
7 18 -3 7 -18 -35 -16 -59 3 -18 15 -18 14 0 -15 16 -25 16 -28 3 -16 -9 7
-17 10 -17 7 0 -4 -10 -1 -22 5 -20 11 -21 10 -11 -2 10 -12 8 -15 -10 -14
-12 0 -28 4 -34 8 -9 6 -11 3 -7 -7 3 -8 -1 -25 -10 -38 -11 -15 -16 -17 -16
-8 0 13 -2 13 -9 1 -7 -11 -10 -9 -16 9 -7 22 -7 22 -26 -6 -11 -17 -19 -23
-19 -14 0 9 -3 11 -8 5 -4 -5 -14 -11 -22 -13 -8 -2 -18 -9 -22 -15 -4 -7 -14
-21 -22 -32 -12 -14 -14 -15 -10 -4 3 10 0 20 -7 25 -7 4 -10 3 -5 -4 3 -6 1
-14 -6 -19 -20 -12 -37 -12 -34 0 2 7 1 8 -2 4 -2 -4 -10 -3 -17 3 -9 8 -15 8
-20 0 -4 -6 -1 -9 6 -8 8 2 14 -7 15 -19 1 -13 -3 -23 -8 -23 -5 0 -6 -5 -2
-12 4 -7 3 -8 -4 -4 -7 4 -12 2 -12 -4 0 -7 -5 -6 -14 2 -9 9 -10 15 -3 20 6
4 14 5 18 2 4 -2 9 2 12 9 3 8 -1 14 -9 14 -8 0 -14 -4 -14 -9 0 -5 -4 -6 -10
-3 -10 6 -14 -7 -11 -32 1 -8 -5 -10 -15 -6 -11 4 -15 3 -10 -5 3 -6 1 -14 -5
-18 -7 -4 -9 -3 -5 4 11 19 -38 9 -52 -10 -7 -10 -17 -16 -21 -14 -11 7 -10
-28 1 -35 5 -3 2 -9 -7 -12 -9 -4 -14 -3 -11 2 3 5 -1 12 -10 15 -24 9 -31 7
-14 -5 12 -9 10 -10 -8 -6 -18 4 -21 3 -12 -7 7 -10 6 -21 -5 -42 -8 -16 -15
-23 -15 -15 0 8 -3 11 -7 7 -5 -4 -8 -12 -8 -17 0 -19 -20 -11 -32 12 -9 18
-13 19 -13 7 0 -9 -8 -22 -17 -27 -10 -6 -13 -11 -8 -11 6 0 17 6 24 13 12 10
13 8 6 -8 -4 -11 -8 -25 -8 -32 0 -7 -4 -10 -8 -7 -4 2 -10 1 -13 -4 -3 -5
-18 -7 -35 -6 -18 1 -29 -3 -28 -10 1 -6 -5 -10 -13 -8 -8 2 -12 0 -7 -4 4 -4
-1 -16 -10 -27 -10 -11 -12 -17 -5 -13 7 4 12 2 12 -7 0 -9 -9 -13 -25 -12
-14 2 -23 0 -20 -5 3 -5 -1 -10 -7 -13 -10 -4 -10 -7 -1 -16 7 -6 11 -8 8 -5
-3 4 0 13 6 20 11 14 39 8 39 -8 0 -5 -4 -7 -9 -4 -5 3 -14 -1 -21 -9 -6 -7
-17 -12 -24 -9 -6 2 -20 -2 -31 -10 -11 -9 -15 -16 -8 -16 6 0 14 4 18 10 3 5
12 7 21 3 23 -9 -15 -32 -44 -27 -20 4 -21 2 -10 -10 7 -7 16 -12 20 -9 4 2 5
-3 2 -12 -6 -14 -7 -14 -18 0 -10 14 -13 14 -34 0 -12 -9 -22 -22 -22 -28 0
-8 3 -8 9 1 6 10 10 7 13 -12 5 -22 3 -24 -15 -15 -14 8 -18 8 -13 0 4 -6 2
-11 -4 -11 -6 0 -8 -5 -4 -11 4 -7 -2 -9 -17 -7 -13 2 -24 -1 -24 -7 0 -5 -4
-16 -9 -24 -6 -9 -5 -12 2 -7 5 3 13 0 16 -6 3 -7 4 -4 3 7 -1 14 4 20 20 21
12 1 20 -2 17 -7 -2 -4 -11 -6 -18 -3 -9 3 -13 -1 -13 -13 2 -14 -4 -17 -23
-15 -14 2 -20 -1 -15 -5 6 -4 11 -19 12 -33 l1 -25 -10 23 c-6 12 -15 22 -20
22 -5 0 -6 -6 -1 -12 15 -25 11 -35 -13 -32 -13 1 -22 -2 -18 -7 3 -5 0 -9 -7
-9 -7 0 -9 -3 -6 -6 4 -4 13 -1 22 6 11 9 15 9 15 1 0 -7 5 -9 13 -5 7 4 9 3
4 -2 -9 -9 -13 -10 -44 -13 -16 -1 -16 -3 -3 -11 8 -5 13 -10 10 -11 -3 0 -15
-2 -27 -3 -43 -5 -35 -15 8 -11 40 3 42 3 21 -9 -12 -6 -20 -14 -17 -17 3 -3
-2 -6 -10 -6 -12 0 -12 3 -2 16 10 14 10 14 -4 4 -9 -7 -19 -9 -24 -5 -4 4 -2
-3 4 -15 6 -13 8 -23 4 -23 -4 0 -2 -4 5 -9 11 -7 11 -9 -2 -14 -8 -3 -18 -1
-22 5 -4 6 -3 8 4 4 6 -3 9 1 8 9 -3 24 -21 18 -21 -7 -1 -13 -6 -22 -13 -20
-7 1 -12 -3 -12 -9 0 -6 8 -8 19 -4 11 3 21 0 24 -8 4 -10 -2 -13 -21 -11 -15
2 -19 1 -9 -2 9 -3 15 -10 11 -15 -3 -5 -10 -6 -16 -3 -7 5 -9 -2 -4 -21 6
-25 6 -26 -9 -11 -9 9 -21 14 -26 11 -12 -8 -11 -25 2 -25 5 0 7 5 3 12 -4 7
-3 8 5 4 9 -6 9 -11 0 -22 -9 -12 -15 -12 -27 -2 -14 11 -13 9 1 -11 16 -23
15 -25 -6 -36 -16 -9 -26 -9 -37 -1 -13 10 -13 9 -1 -6 7 -10 17 -16 21 -13 4
3 13 -2 20 -10 7 -8 11 -15 9 -16 -31 -6 -39 -6 -39 2 0 5 -4 9 -8 9 -5 0 -9
-7 -9 -15 0 -8 3 -12 7 -10 3 2 11 -11 18 -28 9 -25 9 -29 -1 -17 -25 31 -45
42 -53 29 -4 -7 -3 -9 4 -5 6 3 16 -2 22 -13 7 -14 7 -22 -2 -27 -6 -4 -8 -3
-4 4 3 6 2 13 -3 16 -4 3 -8 -2 -8 -12 0 -35 -3 -43 -15 -36 -6 4 -8 3 -4 -4
3 -6 15 -9 26 -7 12 2 18 0 15 -6 -4 -5 -11 -6 -17 -3 -8 5 -9 1 -5 -9 16 -40
17 -50 3 -26 -8 15 -23 29 -33 33 -16 5 -15 4 1 -9 11 -8 17 -15 13 -15 -4 0
0 -11 9 -25 l17 -26 -26 12 c-17 8 -24 17 -20 28 7 17 5 16 -17 -13 -8 -11
-10 -17 -4 -13 7 4 17 0 24 -8 7 -8 9 -15 5 -15 -5 0 0 -10 11 -22 l19 -23
-22 18 c-21 18 -22 18 -34 -5 -7 -13 -12 -24 -10 -26 1 -1 -6 -16 -14 -32 -9
-17 -12 -30 -8 -31 5 0 -1 -4 -11 -8 -19 -7 -19 -8 1 -13 16 -4 21 -2 18 11
-5 26 8 42 25 31 13 -8 12 -10 -2 -10 -11 0 -16 -7 -14 -17 2 -10 0 -27 -5
-38 l-8 -20 0 20 c-1 16 -3 17 -10 5 -6 -8 -7 -19 -3 -25 10 -15 9 -55 0 -48
-5 2 -6 13 -3 23 3 10 1 21 -4 24 -6 4 -7 14 -4 24 3 9 4 15 2 12 -35 -41 -43
-54 -26 -41 15 12 17 11 17 -3 0 -15 -12 -21 -34 -17 -5 1 -4 -4 2 -12 6 -7 9
-24 7 -37 -3 -13 1 -27 8 -32 9 -5 9 -10 -2 -20 -12 -11 -12 -10 -6 2 7 12 6
13 -7 3 -8 -7 -18 -11 -22 -8 -3 3 -2 0 3 -6 5 -6 7 -18 4 -27 -5 -10 -2 -13
6 -8 7 5 10 15 7 25 -5 12 -2 11 9 -3 19 -25 19 -29 -4 -50 -14 -13 -21 -14
-27 -5 -4 8 -3 10 4 5 7 -4 12 -5 12 -2 0 3 -9 10 -21 16 -19 11 -20 10 -10
-9 6 -11 10 -25 9 -32 -2 -6 3 -14 11 -17 9 -3 11 0 6 9 -5 8 -4 10 0 6 16
-14 14 -36 -3 -30 -10 4 -13 2 -8 -5 3 -6 1 -14 -5 -17 -17 -11 -23 3 -8 22 8
10 9 14 2 10 -8 -5 -11 -1 -8 13 2 11 0 22 -4 24 -4 3 -7 -7 -6 -22 1 -15 -2
-35 -8 -46 -6 -13 -6 -16 2 -12 6 4 11 2 11 -4 0 -6 5 -8 12 -4 6 4 8 3 5 -4
-4 -5 -17 -8 -30 -5 -21 4 -21 4 3 -12 14 -9 17 -14 8 -11 -10 3 -20 0 -24 -6
-4 -6 -3 -8 3 -5 6 4 13 -4 15 -18 5 -23 -5 -35 -15 -17 -2 4 -2 2 -1 -5 2 -7
-1 -15 -6 -18 -6 -4 -10 -12 -10 -18 0 -8 3 -9 8 -1 4 6 16 14 27 17 18 6 18
6 3 -6 -11 -9 -14 -18 -8 -27 5 -8 6 -18 4 -22 -7 -12 -24 -10 -24 3 0 5 5 7
12 3 7 -4 8 -3 4 4 -4 6 -14 8 -22 5 -10 -4 -12 -9 -5 -16 13 -13 -6 -50 -21
-41 -7 4 -8 3 -4 -4 4 -7 1 -12 -6 -12 -8 0 -9 -3 -3 -8 6 -4 10 -13 9 -19 -1
-7 -2 -18 -3 -24 0 -5 -5 -8 -9 -5 -5 3 -9 -1 -9 -9 0 -8 4 -12 9 -9 4 3 8 0
8 -7 0 -8 5 -8 18 2 15 11 15 11 4 -1 -7 -8 -17 -15 -22 -15 -6 0 -10 -3 -10
-7 0 -5 0 -15 0 -24 0 -8 5 -12 10 -9 8 5 7 12 -2 23 -12 15 -11 16 5 3 12
-10 15 -17 7 -25 -15 -15 -12 -29 5 -22 22 8 18 -2 -6 -15 -13 -7 -19 -7 -15
-1 3 6 2 13 -3 16 -5 4 -12 2 -15 -3 -4 -5 -2 -13 4 -16 8 -5 7 -12 -2 -23
-11 -13 -11 -14 8 -4 16 9 21 8 21 -3 0 -8 -4 -12 -9 -9 -4 3 -8 0 -8 -6 0 -6
-5 -8 -12 -4 -7 4 -8 3 -4 -5 4 -6 13 -8 19 -5 8 5 8 3 0 -7 -18 -18 -16 -29
5 -29 14 0 15 -2 2 -9 -8 -6 -18 -7 -24 -4 -5 3 -6 1 -2 -6 4 -6 12 -9 17 -6
5 3 6 -1 3 -9 -3 -9 -11 -13 -18 -9 -7 4 -7 1 1 -9 7 -8 9 -19 5 -23 -4 -5 -2
-5 5 -1 6 3 15 1 19 -5 4 -7 3 -9 -3 -6 -6 4 -18 0 -28 -7 -14 -10 -15 -15 -5
-21 9 -5 11 -4 6 3 -4 7 -1 12 8 12 17 0 21 -15 7 -24 -5 -4 -8 -17 -6 -31 1
-14 -2 -28 -7 -31 -4 -3 -6 -10 -2 -15 3 -5 9 -7 14 -4 4 3 14 -3 21 -13 12
-15 12 -15 -1 -5 -12 9 -20 8 -35 -4 -19 -15 -19 -15 5 -8 20 7 23 5 14 -6 -5
-8 -10 -23 -9 -34 0 -11 -3 -28 -7 -37 -7 -14 -5 -16 9 -11 15 5 16 4 7 -8 -6
-8 -12 -22 -13 -31 -3 -47 -4 -48 -19 -36 -12 10 -11 14 4 25 10 7 13 13 7 13
-7 0 -18 -7 -26 -15 -8 -8 -18 -11 -21 -7 -4 3 -4 -1 0 -11 3 -9 11 -14 18
-10 8 4 8 3 0 -6 -6 -7 -20 -13 -32 -14 -16 -1 -19 -5 -11 -18 7 -14 5 -16
-10 -12 -13 3 -18 12 -16 24 2 11 0 17 -6 14 -5 -4 -7 -10 -4 -15 3 -5 1 -11
-5 -15 -7 -4 -7 -13 1 -26 6 -12 8 -23 5 -27 -3 -3 -6 -1 -6 5 0 6 -7 14 -16
17 -8 3 -12 2 -9 -4 3 -6 2 -10 -4 -10 -5 0 -11 -10 -13 -22 -2 -19 -9 -23
-33 -21 -17 0 -24 -1 -17 -4 6 -2 9 -10 6 -15 -4 -6 -3 -8 2 -5 6 3 16 1 24
-4 13 -9 13 -10 0 -8 -36 4 -41 0 -29 -23 l11 -23 -21 23 c-25 26 -33 28 -24
7 3 -10 0 -15 -8 -13 -10 2 -14 -7 -13 -33 1 -23 -3 -36 -12 -36 -9 0 -10 5
-3 18 6 12 5 20 -3 25 -7 4 -8 3 -4 -4 4 -7 3 -12 -3 -12 -5 0 -8 -11 -6 -25
1 -14 -2 -28 -8 -32 -6 -4 -7 -1 -2 7 6 9 4 11 -4 5 -7 -4 -11 -16 -8 -26 4
-16 2 -17 -14 -8 -12 6 -18 6 -17 0 2 -5 -5 -16 -15 -23 -18 -13 -17 -14 2
-14 11 0 18 4 15 7 -2 4 0 10 5 13 16 11 22 -11 6 -24 -8 -7 -15 -10 -15 -6 0
4 -13 0 -29 -8 -16 -9 -31 -12 -35 -9 -3 4 -6 1 -6 -5 0 -15 6 -15 33 -1 22
12 22 12 2 -10 -17 -19 -17 -25 -6 -44 12 -20 11 -20 -14 3 l-28 25 19 -30
c10 -16 13 -26 7 -22 -7 5 -13 4 -13 -2 0 -6 5 -11 12 -11 6 0 8 -3 5 -6 -4
-4 -14 -1 -23 7 -16 13 -16 12 -5 -10 11 -19 11 -25 0 -32 -8 -5 -14 -14 -14
-21 -1 -7 -6 -12 -13 -11 -7 2 -12 -2 -12 -8 0 -5 -4 -8 -9 -4 -5 3 -13 0 -17
-6 -4 -8 -3 -9 4 -5 13 8 12 -20 -1 -41 -5 -7 -5 -13 -1 -13 3 0 0 -7 -7 -16
-7 -9 -14 -26 -16 -37 -3 -18 -1 -19 8 -7 8 12 9 9 4 -13 -3 -16 -2 -26 3 -23
7 4 9 -33 2 -41 -7 -9 -4 -29 5 -35 5 -4 0 -6 -12 -5 -18 1 -20 4 -10 16 10
11 9 13 -3 9 -8 -2 -15 -11 -15 -19 0 -8 -4 -19 -8 -26 -8 -12 10 -29 20 -19
4 3 0 6 -8 6 -10 1 -8 4 4 11 10 6 21 8 24 5 4 -3 1 -6 -5 -6 -6 0 -9 -11 -6
-24 2 -14 -3 -29 -13 -37 -9 -8 -14 -9 -11 -4 4 6 2 17 -4 25 -8 12 -9 12 -4
-2 3 -11 0 -18 -7 -18 -8 0 -7 -4 3 -9 8 -6 18 -7 24 -4 5 4 7 -1 3 -10 -3 -9
-1 -19 5 -23 6 -4 8 -3 4 4 -3 6 -1 14 6 18 7 4 10 4 6 -1 -4 -4 -3 -14 3 -21
8 -10 5 -12 -15 -8 -14 2 -26 1 -26 -4 0 -5 7 -9 15 -10 8 -1 22 -3 30 -4 8
-1 15 -5 15 -10 0 -5 -11 -6 -25 -4 -15 3 -23 1 -20 -5 4 -5 11 -7 16 -4 5 4
9 0 9 -8 0 -10 -7 -14 -23 -11 -20 4 -20 4 -2 -4 11 -5 27 -7 35 -5 8 3 4 -5
-10 -16 -21 -18 -22 -20 -5 -15 11 4 26 11 33 17 8 6 12 6 12 -1 0 -6 -10 -14
-21 -17 -16 -6 -18 -9 -8 -15 7 -5 17 -6 23 -3 5 3 6 1 2 -5 -3 -6 -2 -13 4
-17 5 -3 10 -11 10 -17 0 -5 -8 0 -18 13 -15 17 -21 19 -27 9 -5 -9 -4 -11 3
-6 8 5 12 -1 12 -18 0 -13 -6 -27 -12 -29 -7 -3 6 -4 29 -3 23 1 39 -2 37 -6
-3 -5 -12 -8 -20 -8 -8 0 -14 -5 -14 -11 0 -6 6 -9 14 -6 19 7 51 -17 42 -32
-4 -6 -11 -9 -16 -6 -5 3 -11 1 -15 -5 -3 -5 0 -10 8 -10 8 0 21 -8 28 -17 10
-11 10 -14 2 -9 -8 4 -13 2 -13 -5 0 -8 -5 -7 -17 2 -10 8 -6 0 7 -17 15 -19
29 -28 34 -23 17 16 28 10 12 -7 -9 -8 -16 -20 -16 -27 0 -6 6 -3 13 5 11 16
13 16 27 0 13 -14 12 -15 -3 -9 -15 6 -16 4 -7 -13 6 -11 8 -20 4 -20 -3 0 -1
-6 5 -13 6 -8 9 -16 6 -19 -3 -2 2 -5 10 -5 12 0 12 3 2 15 -11 13 -9 14 10 1
l23 -14 -23 -12 c-21 -13 -20 -13 11 -9 17 2 30 1 28 -3 -7 -10 31 -41 39 -33
4 4 2 -3 -6 -15 -7 -12 -17 -19 -21 -17 -4 3 -8 0 -8 -5 0 -15 13 -14 29 2 11
10 13 9 8 -6 -5 -12 -3 -16 4 -11 8 4 9 -1 4 -16 -6 -20 -5 -21 8 -9 8 8 13
17 11 20 -2 3 3 6 10 6 7 0 13 -6 13 -13 0 -7 -4 -11 -8 -8 -4 2 -10 0 -14 -6
-3 -5 1 -10 9 -10 8 0 18 -9 21 -20 3 -11 11 -20 16 -20 6 0 8 4 5 8 -3 5 1 9
9 9 18 0 19 -6 2 -21 -7 -6 -10 -10 -8 -9 9 5 31 -20 25 -28 -3 -5 -2 -9 3 -8
4 1 16 -1 27 -6 12 -5 21 -3 27 6 7 10 8 5 3 -13 -4 -20 -1 -29 13 -36 21 -11
46 -5 37 10 -4 6 -10 5 -16 -3 -8 -11 -9 -10 -4 4 6 19 -10 24 -17 5 -4 -10
-6 -10 -6 -1 -2 22 21 25 41 6 19 -19 19 -21 1 -38 -13 -13 -14 -17 -3 -13 8
3 23 9 32 13 13 5 18 2 18 -8 0 -21 22 -27 40 -11 14 11 16 10 17 -9 2 -17 0
-18 -7 -7 -7 12 -9 10 -8 -6 1 -11 8 -21 15 -21 6 0 10 4 7 9 -3 4 0 8 6 8 6
0 8 5 4 13 -5 8 -2 8 9 -2 9 -7 17 -19 17 -25 0 -6 -5 -4 -10 4 -8 13 -10 12
-10 -3 0 -12 6 -17 18 -15 9 2 16 11 14 18 -3 11 1 10 16 -3 10 -9 22 -14 25
-10 4 3 7 1 7 -5 0 -15 -17 -16 -25 -2 -4 6 -12 4 -22 -6 -12 -12 -13 -18 -4
-27 10 -9 12 -9 9 2 -2 7 3 16 11 19 8 2 11 0 7 -6 -4 -6 2 -8 14 -5 12 3 22
-1 26 -11 3 -9 11 -16 17 -16 7 0 7 4 -1 12 -7 7 -12 17 -12 23 0 5 5 2 11 -8
6 -9 14 -15 18 -13 4 3 8 -1 8 -9 0 -8 -4 -12 -9 -9 -4 3 -8 0 -8 -6 0 -6 -4
-9 -9 -5 -10 6 -7 -27 3 -44 4 -5 1 -12 -4 -14 -6 -3 -5 -4 2 -3 7 2 12 10 10
20 -2 10 4 16 15 15 10 0 13 -3 6 -6 -9 -3 -10 -10 -3 -24 6 -10 7 -19 3 -19
-4 0 -2 -4 6 -9 7 -5 10 -14 7 -20 -4 -6 -12 -9 -17 -5 -5 3 -7 10 -4 15 4 5
1 9 -5 9 -7 0 -9 -7 -6 -16 4 -9 1 -24 -6 -33 -7 -9 -9 -13 -4 -9 10 9 48 -10
42 -20 -3 -5 -1 -14 3 -21 6 -10 10 -9 14 4 4 9 3 14 -1 11 -5 -3 -9 1 -9 9 0
15 16 22 18 8 6 -58 5 -61 -20 -56 -14 2 -23 1 -19 -2 3 -4 12 -7 20 -9 7 -1
21 -7 32 -12 16 -10 17 -12 2 -17 -11 -5 -15 -3 -10 5 4 7 3 8 -5 4 -6 -4 -9
-12 -5 -17 3 -5 11 -6 17 -2 7 4 5 -1 -3 -12 -14 -17 -13 -17 10 -11 16 5 20
4 12 -2 -7 -5 -10 -16 -6 -27 5 -12 1 -23 -12 -33 -16 -12 -16 -14 -2 -9 10 3
20 2 23 -3 4 -6 -1 -10 -9 -10 -8 0 -17 -4 -20 -9 -4 -5 4 -7 16 -3 21 5 22 4
8 -14 -14 -18 -14 -18 3 -5 9 8 21 10 25 6 4 -4 1 -10 -5 -12 -20 -7 -15 -19
9 -20 18 -2 20 0 8 7 -8 5 -10 10 -5 10 6 0 17 -5 25 -10 11 -7 11 -10 2 -10
-7 0 -11 -4 -7 -9 3 -5 1 -12 -5 -16 -6 -4 -8 -11 -4 -16 3 -5 0 -17 -8 -26
-9 -12 -9 -15 0 -9 8 5 12 0 12 -13 0 -12 4 -21 10 -21 5 0 7 6 4 13 -3 8 3
20 13 28 17 13 17 13 3 -5 -13 -16 -12 -20 9 -37 13 -11 19 -19 14 -19 -5 0
-15 6 -22 12 -10 11 -11 10 -6 -4 4 -10 13 -18 20 -18 8 0 17 -5 21 -11 4 -7
0 -9 -14 -5 -11 4 -23 2 -27 -3 -3 -6 0 -9 7 -6 20 8 59 -32 51 -52 -5 -12 -3
-14 8 -8 12 8 12 6 1 -8 -8 -9 -10 -21 -6 -29 5 -7 9 -16 9 -20 0 -3 4 -10 9
-15 5 -4 6 -3 2 4 -3 6 -1 15 5 19 7 4 9 3 5 -4 -6 -10 10 -26 26 -27 3 0 10
-4 15 -9 4 -5 3 -6 -3 -3 -8 5 -13 -6 -16 -28 -4 -36 1 -42 19 -24 8 8 13 7
18 -2 5 -8 4 -10 -3 -5 -7 4 -12 3 -12 -3 0 -5 -9 -13 -20 -16 -11 -3 -20 -11
-20 -17 0 -7 4 -7 13 1 11 9 54 8 62 -1 1 -2 -6 -12 -17 -23 -17 -17 -19 -17
-16 -3 1 9 -1 17 -7 17 -13 1 -14 -22 -1 -31 6 -4 19 1 30 10 11 9 16 11 12 5
-12 -21 -16 -54 -5 -48 5 4 7 10 4 15 -3 4 3 14 13 21 15 13 16 12 4 -3 -14
-18 0 -34 20 -22 7 5 8 3 4 -5 -5 -7 -13 -10 -20 -8 -6 3 -17 -1 -23 -9 -11
-11 -7 -12 19 -9 23 3 28 1 19 -8 -15 -15 -14 -27 3 -27 8 0 12 -9 11 -25 -2
-14 1 -23 6 -19 5 3 7 9 4 14 -3 4 3 7 12 6 9 -2 19 -9 21 -17 3 -12 2 -12 -6
0 -7 10 -11 10 -17 1 -8 -13 14 -32 27 -24 4 3 8 0 8 -6 0 -7 -7 -10 -15 -7
-8 4 -17 1 -21 -5 -5 -7 -3 -8 5 -4 8 6 11 2 9 -10 -2 -11 2 -18 10 -17 6 2
12 -2 12 -7 0 -6 5 -10 11 -10 5 0 7 5 3 12 -5 7 -3 8 7 2 8 -5 17 -9 21 -9 3
0 10 -4 15 -10 4 -6 4 -7 -1 -3 -10 9 -41 -30 -32 -39 3 -4 6 -1 6 7 0 9 3 10
13 1 8 -6 18 -7 22 -3 5 4 5 1 1 -6 -4 -7 -12 -10 -17 -7 -5 4 -9 1 -9 -4 0
-6 6 -11 14 -11 10 0 13 -7 11 -20 -2 -12 0 -18 6 -15 5 4 7 10 4 15 -3 5 -1
11 5 15 6 4 7 12 4 18 -4 7 -3 8 2 4 11 -10 13 -67 2 -61 -4 3 -8 0 -8 -5 0
-20 20 -11 30 12 5 12 9 16 9 9 1 -7 -3 -22 -9 -32 -7 -13 -6 -19 5 -23 10 -4
12 -1 9 11 -4 12 -2 11 7 -3 7 -11 13 -31 14 -45 0 -20 4 -24 23 -22 12 2 22
-2 22 -8 0 -6 -4 -9 -9 -5 -5 3 -12 1 -15 -4 -4 -5 5 -8 19 -7 14 2 31 -4 37
-12 10 -13 10 -14 1 -8 -7 4 -13 2 -13 -3 0 -15 27 -14 34 2 3 6 3 -3 0 -20
-3 -25 0 -33 11 -33 9 0 12 6 9 18 -5 14 -4 14 4 2 11 -15 -3 -44 -17 -35 -4
2 -8 -2 -8 -9 0 -7 6 -13 13 -13 7 0 11 4 9 8 -3 4 3 10 12 14 10 3 19 1 21
-4 2 -6 8 -9 13 -5 5 3 8 0 7 -8 -2 -7 3 -12 10 -10 8 1 11 -2 7 -9 -5 -7 -15
-3 -30 11 -21 20 -23 20 -21 4 2 -11 8 -19 14 -19 6 0 14 -3 18 -7 4 -5 1 -8
-6 -8 -7 0 -11 -3 -8 -6 4 -3 16 -1 27 6 12 6 21 7 20 3 -3 -21 2 -24 18 -12
10 8 14 9 10 2 -4 -6 -2 -15 4 -18 5 -4 8 -14 5 -22 -4 -10 -2 -13 8 -10 19 7
37 -15 27 -32 -11 -17 -25 4 -15 22 5 9 4 9 -6 0 -11 -10 -11 -15 0 -28 12
-14 15 -14 31 1 17 15 19 15 25 1 3 -9 3 -20 1 -24 -3 -5 -2 -15 4 -23 5 -9 9
-10 9 -3 0 12 17 12 38 0 7 -5 12 -3 12 3 0 6 5 8 11 4 8 -4 7 -9 -2 -15 -7
-4 -17 -5 -21 -3 -4 3 -8 0 -8 -5 0 -6 5 -11 11 -11 5 0 7 -6 3 -12 -4 -7 5
-2 19 11 15 14 27 19 27 13 0 -7 -5 -12 -12 -12 -6 0 -8 -3 -4 -7 4 -5 17 -8
28 -8 12 0 22 -7 24 -18 1 -9 -2 -15 -7 -11 -5 3 -7 9 -4 14 7 11 -22 6 -32
-6 -5 -5 -4 -6 1 -1 5 4 19 -2 31 -13 19 -18 90 -42 74 -25 -4 3 -17 8 -29 10
-12 2 -25 7 -29 10 -8 8 45 -2 60 -11 9 -5 6 -11 -7 -22 -15 -11 -15 -13 -2
-9 22 8 31 -3 16 -20 -9 -11 -7 -12 7 -7 12 5 16 4 12 -3 -4 -7 0 -10 10 -8
10 1 26 -2 37 -7 12 -7 16 -7 12 0 -3 5 7 9 23 8 16 0 27 -4 24 -8 -2 -5 3
-11 11 -14 9 -3 16 -11 16 -17 0 -5 -9 -2 -20 8 -18 17 -20 17 -14 2 3 -9 10
-17 16 -17 5 0 6 -6 2 -13 -5 -7 -1 -6 10 3 22 17 49 23 39 7 -4 -7 0 -8 13
-3 15 6 17 5 7 -5 -16 -16 -17 -29 -2 -29 5 0 7 5 4 10 -3 6 1 10 10 10 9 0
13 -4 10 -10 -3 -5 0 -7 9 -4 8 3 12 13 10 22 -5 14 -4 14 6 -1 6 -9 16 -14
22 -11 6 4 8 3 5 -3 -10 -17 24 -25 41 -11 13 11 14 11 7 -2 -5 -8 -10 -26
-11 -39 -2 -17 0 -21 5 -12 7 11 10 11 14 0 3 -8 4 -2 2 14 -2 16 0 25 6 22 5
-4 7 -10 4 -15 -3 -5 3 -14 14 -19 27 -15 38 -14 17 2 -16 12 -16 13 3 13 11
0 17 -4 14 -9 -3 -5 4 -6 16 -2 13 4 21 2 21 -5 0 -6 -4 -9 -9 -5 -18 10 -21
-13 -4 -26 12 -10 14 -10 9 -1 -10 17 9 15 24 -3 7 -8 17 -15 23 -15 6 0 2 7
-9 16 -18 14 -18 15 6 8 20 -5 23 -4 12 7 -6 7 -12 18 -12 23 0 6 5 4 10 -4 5
-8 17 -15 27 -15 10 0 18 -7 18 -15 0 -8 8 -14 18 -14 9 1 14 -3 10 -9 -4 -7
0 -8 13 -3 10 4 15 4 12 0 -4 -3 -1 -12 6 -20 14 -14 40 -13 53 1 4 4 3 5 -3
2 -6 -3 -11 0 -11 7 0 7 6 13 13 13 7 0 11 -4 8 -8 -2 -4 1 -11 7 -15 8 -4 7
-9 -2 -15 -10 -6 -7 -8 8 -6 17 1 20 5 12 19 -7 14 -6 16 6 12 15 -6 18 -15
16 -44 0 -11 1 -11 5 -2 5 10 9 10 22 0 13 -10 13 -8 -1 9 -14 16 -15 23 -6
29 7 4 10 3 7 -2 -3 -5 8 -20 24 -32 l28 -24 -21 39 -22 38 31 -35 c17 -19 31
-38 32 -42 0 -5 5 -8 11 -8 5 0 7 5 4 10 -3 6 1 10 10 10 9 0 13 5 9 11 -4 8
0 8 15 0 24 -13 29 -23 7 -15 -8 3 -17 1 -21 -5 -4 -7 0 -8 11 -4 12 4 15 3
10 -6 -11 -17 34 8 51 29 11 13 12 12 6 -5 -6 -17 -4 -18 8 -8 13 10 16 10 16
-1 0 -8 -8 -13 -19 -11 -10 2 -18 -1 -18 -7 0 -5 6 -8 14 -5 7 3 19 0 26 -6
10 -9 11 -9 6 0 -3 6 -2 14 4 18 5 3 10 2 10 -3 0 -5 7 -9 15 -9 13 0 13 2 0
17 -13 14 -13 17 0 17 8 0 12 -4 9 -9 -3 -4 0 -8 5 -8 6 0 11 -8 11 -17 0 -15
2 -16 9 -3 6 8 8 17 6 20 -2 4 2 7 10 7 12 0 12 -3 2 -15 -10 -13 -9 -14 8 -5
11 6 26 8 34 5 10 -3 11 0 5 9 -6 11 -5 12 8 2 8 -7 19 -9 23 -5 5 4 5 -1 2
-10 -3 -10 -1 -20 5 -24 7 -4 8 -3 4 4 -8 13 27 34 52 30 11 -2 16 2 14 12 -2
8 0 11 4 7 11 -11 14 -38 4 -32 -5 3 -11 1 -14 -4 -4 -5 2 -8 11 -6 10 2 21 4
25 4 4 1 5 9 1 18 -7 19 -5 18 17 -11 8 -11 10 -17 3 -13 -6 4 -14 3 -17 -2
-4 -5 2 -8 11 -6 10 1 17 8 15 14 -1 6 3 11 9 11 5 0 7 5 3 11 -3 6 4 4 17 -5
15 -9 29 -12 38 -7 8 5 21 7 29 3 10 -3 13 -1 8 6 -4 7 -2 12 3 12 15 0 14
-13 -1 -29 -11 -10 -9 -11 6 -5 15 6 17 4 11 -6 -6 -10 -4 -11 6 -4 8 5 19 9
24 9 6 1 9 6 7 13 -2 12 25 11 59 -3 9 -3 21 1 28 9 7 8 19 12 27 9 8 -3 14 1
14 8 0 7 3 10 6 6 3 -3 2 -12 -2 -19 -12 -19 -14 -39 -3 -32 5 3 7 9 4 14 -3
5 6 12 20 16 14 3 25 10 25 16 0 5 6 8 13 7 27 -3 38 1 31 14 -5 8 -2 8 9 -2
17 -13 24 -4 10 15 -5 5 -1 2 8 -7 9 -10 21 -14 29 -9 9 6 8 10 -6 18 -18 10
-18 11 3 9 12 0 19 -5 17 -9 -3 -4 2 -8 10 -8 15 0 21 -12 17 -33 -1 -5 3 -6
8 -2 6 3 7 13 4 22 -5 12 -3 14 7 8 9 -5 11 -4 6 4 -4 6 -11 9 -16 6 -4 -3
-11 2 -14 10 -4 13 -2 14 14 5 11 -6 25 -8 31 -4 6 3 16 -2 23 -11 12 -17 13
-16 12 5 -1 17 5 24 24 26 17 3 21 1 12 -5 -11 -7 -10 -9 3 -14 11 -5 14 -3 9
5 -5 8 -2 9 9 5 9 -3 19 -1 23 5 4 6 3 8 -4 4 -6 -3 -14 -1 -18 5 -4 8 -3 9 4
5 7 -4 12 -1 12 6 0 8 5 6 11 -5 5 -9 8 -21 4 -26 -3 -5 -1 -13 5 -16 6 -4 10
-3 9 2 -4 23 2 35 17 29 8 -3 12 -2 9 4 -7 12 26 29 45 22 8 -2 12 -2 9 2 -11
11 -61 18 -55 7 4 -6 -4 -15 -16 -22 -13 -6 -20 -8 -16 -4 4 5 3 14 -3 22 -9
9 -8 13 0 13 6 0 11 -4 11 -10 0 -5 5 -10 10 -10 6 0 9 6 8 13 -2 7 7 12 25
11 15 -1 27 3 27 7 0 5 5 9 11 9 5 0 7 -4 4 -10 -3 -5 -2 -10 3 -10 5 0 14 10
21 23 9 17 10 17 6 2 -3 -11 -3 -16 1 -12 4 4 17 -1 28 -10 15 -13 17 -14 9
-2 -10 13 -9 20 7 37 21 23 27 37 10 27 -6 -3 -10 -1 -10 5 0 6 8 10 18 8 10
-2 16 2 14 11 -3 12 0 12 11 2 12 -9 16 -9 19 1 3 8 6 7 11 -4 4 -12 1 -16
-13 -13 -26 5 -34 -9 -14 -26 12 -10 15 -10 12 0 -2 8 4 15 14 16 29 5 52 22
39 29 -6 4 -11 2 -11 -3 0 -6 -4 -11 -8 -11 -5 0 -9 7 -9 15 0 8 2 13 5 11 7
-7 41 27 36 36 -9 15 3 8 17 -9 12 -14 12 -16 0 -8 -10 5 -12 4 -7 -4 4 -6 12
-9 17 -5 5 3 7 9 4 14 -3 4 2 11 11 14 8 3 12 11 8 17 -4 8 -3 9 4 5 6 -3 16
3 22 14 9 17 14 18 32 9 20 -11 30 -5 40 23 2 4 15 9 29 10 14 1 26 8 26 15 0
6 -4 10 -9 7 -16 -10 -58 -12 -52 -2 3 5 13 7 22 6 9 -2 16 2 15 9 -3 14 28 5
39 -11 5 -7 8 -7 8 -1 0 15 -13 31 -30 38 -12 4 -11 6 3 6 9 1 20 1 23 0 4 0
10 5 14 11 6 9 13 9 31 0 24 -13 24 -13 6 8 -19 20 -18 21 5 15 l23 -6 -25 21
c-14 12 -19 21 -12 22 6 0 12 -4 12 -10 0 -5 11 -9 25 -8 13 1 22 4 20 7 -3 2
0 10 6 18 6 7 7 13 2 13 -5 0 -10 7 -10 16 0 14 2 14 14 -2 7 -10 20 -19 29
-20 13 -2 13 1 -3 18 -17 21 -17 21 1 14 16 -5 17 -4 6 8 -10 13 -7 15 19 11
18 -2 29 0 26 6 -4 5 -2 9 3 9 6 0 13 7 16 16 3 8 2 13 -3 10 -5 -3 -12 1 -15
10 -4 10 -2 13 6 8 8 -5 9 -2 5 10 -4 9 -3 15 1 13 15 -9 54 13 49 27 -3 8 4
27 16 42 20 26 20 27 2 21 -13 -6 -11 0 9 18 16 14 31 23 34 20 4 -3 0 -10 -8
-15 -8 -6 -11 -10 -6 -10 5 0 1 -8 -8 -19 -15 -17 -15 -19 -1 -25 9 -3 13 -2
10 4 -3 6 1 20 9 32 9 12 16 19 16 14 0 -5 7 -3 15 4 9 7 14 19 11 25 -5 15
47 68 57 58 4 -3 7 -1 7 6 0 8 -7 11 -15 7 -22 -8 -18 7 5 22 16 10 18 16 10
32 -7 13 -7 21 1 25 6 4 8 13 5 21 -3 8 0 11 10 7 17 -6 17 -9 4 -33 -7 -13
-7 -21 2 -26 7 -4 8 -3 4 4 -4 7 -3 12 1 12 8 0 13 31 16 87 0 7 4 10 9 7 4
-3 8 -1 8 5 0 5 8 8 18 6 11 -2 19 3 19 10 0 8 -4 12 -8 9 -4 -2 -10 0 -14 6
-3 5 -1 10 5 10 7 0 9 8 5 20 -5 15 -3 18 9 14 8 -3 12 -12 9 -20 -3 -8 0 -14
7 -14 6 0 8 4 5 10 -3 5 2 10 12 10 15 1 13 3 -6 14 -18 10 -20 15 -10 19 10
4 10 6 2 6 -7 1 -13 6 -13 12 0 8 5 7 15 -1 18 -15 20 -13 29 20 6 23 6 24 -7
7 -13 -15 -15 -15 -20 -2 -4 8 -1 14 6 12 7 -1 11 4 9 11 -1 8 2 11 8 7 5 -3
10 -1 10 5 0 6 5 8 12 4 7 -4 8 -3 4 4 -4 6 2 17 13 24 20 12 20 13 -2 25 -14
8 -17 12 -7 13 13 0 13 1 0 11 -13 9 -13 10 0 6 8 -2 14 -11 12 -18 -2 -8 0
-11 4 -7 4 4 13 3 20 -3 8 -7 14 -6 20 2 4 7 3 9 -4 5 -6 -3 -16 3 -23 15 -10
19 -9 21 7 15 10 -4 15 -4 11 0 -4 4 -1 14 6 22 10 13 9 14 -10 4 -33 -18 -41
-14 -14 7 14 10 30 17 37 14 7 -2 15 0 19 6 3 7 0 8 -9 5 -9 -3 -16 -1 -16 4
0 6 8 12 18 14 14 3 13 5 -6 10 -14 4 -20 2 -15 -4 3 -7 1 -8 -5 -4 -8 5 -10
2 -6 -8 4 -11 0 -16 -12 -16 -16 0 -17 2 -4 10 8 5 11 10 6 10 -5 0 1 11 13
24 12 13 21 30 19 37 -2 8 5 14 15 14 10 0 23 8 28 18 6 9 16 14 22 11 7 -4 9
-3 4 1 -4 5 -18 10 -30 11 -12 2 -16 0 -9 -2 6 -3 9 -10 6 -16 -4 -6 -9 -6
-14 3 -12 18 -1 39 17 32 12 -5 13 -2 6 13 -13 25 -5 49 11 35 8 -7 12 -5 12
9 0 12 -6 17 -18 15 -10 -2 -21 1 -24 7 -4 6 -3 8 3 5 12 -7 36 16 27 25 -3 3
7 15 21 26 15 12 24 25 21 31 -8 12 4 42 14 36 5 -3 6 5 2 17 -3 14 -1 19 6
14 6 -3 14 -1 18 5 4 8 3 9 -4 5 -7 -4 -12 -1 -12 9 0 10 5 13 12 9 7 -4 8 -3
4 5 -4 6 -13 8 -19 5 -7 -4 -9 -4 -5 1 4 4 2 15 -5 23 -9 13 -9 14 1 8 6 -4
13 -2 13 3 1 6 2 17 3 24 1 6 -3 16 -9 20 -6 5 -3 7 8 3 9 -3 17 -3 17 1 0 3
-8 12 -17 20 -16 13 -16 13 3 4 12 -6 25 -7 29 -3 5 4 5 2 2 -4 -3 -6 -1 -11
6 -11 7 0 13 9 13 19 0 13 -6 17 -21 13 -11 -3 -14 -2 -7 1 10 5 9 10 -5 21
-10 8 -13 12 -6 9 6 -4 18 3 26 15 8 11 18 16 21 11 3 -6 -1 -12 -9 -16 -17
-6 -20 -26 -4 -26 5 0 8 4 5 9 -3 5 1 12 10 15 13 5 14 9 4 21 -10 12 -10 21
-1 41 6 15 7 23 1 19 -5 -3 -10 1 -10 10 0 10 -5 13 -12 9 -9 -5 -9 -2 1 9 7
9 10 17 5 17 -4 0 -3 5 4 12 9 9 8 15 -3 28 -13 14 -13 19 1 36 15 18 15 18 5
-2 -8 -17 -7 -25 6 -35 14 -12 15 -11 9 9 -5 16 -3 24 8 28 9 3 16 10 16 16 0
5 -4 7 -9 3 -12 -7 -11 36 2 52 5 7 5 18 1 24 -4 8 -3 9 4 5 7 -4 12 -2 12 4
0 6 4 9 9 5 5 -3 13 0 17 6 4 8 3 9 -4 5 -7 -4 -12 -2 -12 3 0 19 -2 26 -10
42 -7 11 -4 16 8 16 9 0 22 -2 27 -6 6 -3 2 2 -8 11 -11 10 -23 15 -28 12 -5
-3 -9 0 -9 6 0 7 7 10 15 7 11 -5 12 -1 5 18 -7 17 -6 24 2 22 19 -4 20 21 1
26 -17 4 -17 5 0 6 9 0 17 6 17 12 0 5 4 7 10 4 5 -3 7 0 4 9 -5 12 0 14 23
10 20 -3 24 -2 14 5 -18 12 -23 39 -9 48 7 3 8 1 4 -5 -4 -7 -2 -12 4 -12 6 0
8 -5 4 -12 -4 -7 -3 -8 5 -4 6 4 9 12 6 17 -4 5 1 12 9 15 9 3 16 11 16 16 0
7 -4 7 -13 0 -8 -7 -18 -8 -27 -1 -12 8 -11 9 5 7 12 -2 19 2 17 10 -2 10 2
10 20 1 13 -7 25 -13 28 -13 3 -1 4 -5 2 -9 -1 -5 2 -6 8 -2 7 4 8 11 1 18
-11 14 11 51 23 39 4 -4 7 -2 6 3 -5 21 0 36 9 30 5 -3 13 0 17 6 4 8 3 9 -4
5 -7 -4 -12 -2 -12 5 0 6 8 9 19 6 14 -3 18 -1 14 9 -3 8 -10 11 -16 7 -6 -3
-7 -1 -3 5 3 6 15 9 25 7 10 -2 18 3 18 10 0 7 -7 11 -16 8 -12 -3 -12 -2 2 7
18 12 41 5 32 -10 -3 -5 -1 -11 4 -15 10 -6 7 27 -4 44 -3 5 -1 12 5 16 15 9
12 28 -2 19 -8 -4 -10 -3 -5 2 5 5 14 9 20 9 7 0 13 7 13 15 1 8 2 19 3 25 0
5 6 4 12 -2 19 -19 40 -4 28 18 -5 11 -15 16 -21 13 -7 -5 -8 -2 -3 5 5 9 13
7 31 -10 19 -18 27 -20 37 -10 9 10 9 11 -5 6 -11 -5 -20 1 -29 17 -11 21 -11
22 5 9 9 -8 19 -11 23 -7 3 3 1 6 -5 6 -6 0 -9 7 -6 15 4 10 1 14 -7 12 -8 -2
-11 -2 -6 0 4 3 5 9 1 14 -3 5 0 8 8 7 7 -2 12 2 11 8 -3 17 34 48 42 35 3 -6
12 -11 18 -11 8 0 7 3 -2 9 -9 6 -11 18 -7 36 6 23 9 25 23 13 15 -12 15 -11
2 10 -12 20 -12 24 1 32 10 7 11 10 2 10 -7 0 -18 -11 -24 -25 -6 -14 -15 -25
-20 -25 -5 0 -1 12 10 28 10 15 17 32 15 39 -2 6 1 14 6 18 7 3 8 0 5 -9 -3
-9 -1 -16 5 -16 6 0 11 11 11 23 0 29 10 40 24 28 8 -7 12 0 12 20 2 30 -9 38
-22 17 -4 -7 -3 -8 4 -4 7 4 12 5 12 2 0 -3 -8 -10 -18 -15 -14 -7 -18 -6 -18
9 0 10 4 16 8 14 10 -7 28 38 20 50 -3 5 2 6 12 3 9 -4 15 -3 11 2 -3 5 1 12
7 15 7 3 2 3 -11 0 -15 -4 -21 -2 -17 4 3 6 0 13 -6 16 -7 3 -3 3 9 1 12 -3
25 0 29 6 5 8 3 9 -5 4 -9 -5 -12 2 -10 27 2 18 0 38 -3 44 -4 6 0 23 8 39 10
19 11 32 4 40 -5 6 -7 15 -3 19 12 12 10 53 -2 53 -7 0 -11 -12 -10 -29 1 -15
-1 -28 -5 -28 -5 0 -7 15 -6 33 2 17 -1 42 -5 54 -6 17 -5 21 6 17 7 -3 11
-13 8 -22 -4 -14 -3 -14 5 -3 11 16 5 41 -10 41 -5 0 -6 5 -3 10 5 9 -7 14
-27 11 -9 -1 -4 27 7 36 4 4 5 3 1 -4 -3 -6 -1 -15 5 -19 8 -4 9 -3 5 4 -4 8
0 12 11 12 13 0 10 4 -11 15 -31 16 -50 20 -27 6 10 -7 6 -9 -13 -8 -21 2 -24
4 -12 13 12 8 13 13 4 22 -7 7 -9 12 -5 12 4 0 3 10 -4 21 -8 15 -8 19 0 15 6
-4 11 -2 11 4 0 6 4 8 10 5 6 -3 7 1 4 9 -3 9 -10 16 -16 16 -5 0 -7 -4 -4 -8
3 -5 -1 -9 -9 -9 -22 0 -18 15 5 22 18 6 18 8 5 21 -8 9 -12 20 -9 26 4 6 2 8
-3 5 -11 -7 -37 16 -28 25 3 2 -2 5 -10 5 -12 0 -12 -3 -2 -15 11 -13 9 -14
-10 -1 l-23 14 22 11 21 12 -21 6 c-13 4 -19 12 -16 18 5 7 2 8 -6 3 -10 -6
-9 -11 5 -21 16 -12 16 -13 -3 -11 -12 0 -19 3 -17 5 2 3 0 14 -6 25 -6 10 -7
17 -2 14 5 -3 15 -2 23 3 11 7 6 8 -15 7 -23 -2 -29 -7 -27 -22 2 -16 1 -17
-7 -5 -7 10 -5 20 6 32 15 17 15 18 0 18 -10 0 -17 -5 -17 -11 0 -5 -5 -7 -11
-4 -6 4 -8 13 -5 21 3 7 1 16 -4 19 -6 4 -10 1 -10 -6 0 -7 -3 -9 -6 -6 -4 4
-2 13 4 20 7 8 9 17 5 20 -3 4 0 7 7 7 7 0 10 3 7 6 -4 4 -12 2 -20 -4 -15
-13 -60 -4 -51 10 3 5 11 5 19 -2 10 -8 15 -8 21 1 5 8 3 9 -6 4 -10 -6 -12
-4 -7 8 5 14 3 15 -19 5 -20 -10 -27 -9 -34 2 -5 8 -6 18 -3 24 3 5 1 6 -5 2
-8 -4 -16 4 -23 21 l-11 28 -18 -23 -19 -23 4 29 c3 26 0 30 -20 27 -16 -1
-22 2 -18 11 2 7 12 10 21 8 9 -3 5 3 -10 12 -30 20 -36 38 -16 50 8 5 9 1 4
-12 -6 -15 -5 -16 5 -7 10 10 9 16 -2 29 -13 16 -12 17 6 11 19 -7 19 -7 1 8
-15 11 -23 12 -40 3 -18 -10 -19 -9 -8 4 10 13 9 18 -3 28 -12 10 -13 16 -4
26 9 11 8 14 -1 14 -6 0 -10 5 -8 11 5 14 23 12 24 -3 0 -7 -4 -18 -8 -25 -5
-6 -5 -14 0 -17 13 -8 22 18 16 46 -5 22 -11 60 -13 86 -1 7 -5 11 -10 8 -5
-3 -11 1 -14 9 -4 9 -1 12 7 9 21 -8 28 12 9 27 -9 8 -14 9 -10 3 3 -6 0 -11
-8 -11 -9 0 -11 5 -7 11 5 6 8 31 7 56 -1 36 -4 45 -18 44 -9 -1 -14 3 -11 8
3 5 12 7 20 4 14 -5 18 5 15 33 -2 8 2 10 10 5 8 -4 10 -3 5 4 -4 6 -13 9 -22
5 -11 -4 -12 -9 -3 -19 15 -19 1 -18 -17 1 -9 8 -13 19 -9 24 3 6 -3 15 -12
21 -17 11 -17 11 1 6 14 -5 17 -2 12 11 -6 15 -5 16 5 6 7 -7 17 -13 23 -13 5
0 -1 8 -12 19 -12 10 -18 21 -15 25 4 4 1 4 -8 1 -10 -4 -15 1 -16 15 -1 11 3
20 8 20 6 0 7 -5 3 -12 -4 -7 -3 -8 5 -4 8 6 9 12 2 20 -6 7 -7 17 -3 22 4 4
-1 2 -11 -5 -9 -8 -20 -11 -24 -7 -3 3 -1 6 5 6 7 0 12 7 12 15 0 9 6 12 18 8
18 -7 17 -5 -12 17 -11 8 -17 10 -13 3 4 -6 3 -14 -2 -17 -7 -5 -8 22 -1 32 2
1 3 6 4 11 0 5 5 13 10 18 5 4 7 3 3 -2 -3 -6 -1 -17 4 -25 7 -11 8 -8 5 10
-2 16 -9 24 -19 22 -8 -1 -17 4 -20 12 -4 10 -1 13 7 10 7 -3 13 2 13 11 0 9
-6 14 -14 11 -8 -3 -11 -1 -8 4 3 6 1 10 -5 10 -7 0 -9 8 -4 22 6 21 6 22 -18
6 -20 -13 -25 -14 -25 -2 0 8 2 12 5 9 3 -2 13 0 23 6 18 9 16 39 -3 39 -6 0
-5 -7 2 -15 11 -13 10 -14 -4 -9 -10 4 -15 13 -12 20 3 7 1 16 -3 19 -9 5 -8
25 2 87 2 15 0 25 -4 22 -5 -3 -9 0 -9 5 0 6 -7 11 -15 11 -15 0 -17 4 -18 38
-1 9 -6 20 -12 24 -6 5 -5 8 3 8 10 0 9 4 -3 16 -9 10 -12 21 -7 28 10 14 9
26 -4 50 -8 12 -14 15 -18 7 -4 -6 -13 -11 -19 -11 -7 0 -6 4 3 10 12 7 11 12
-5 30 -11 12 -19 25 -17 28 2 3 -5 9 -15 13 -13 6 -14 8 -3 8 10 1 11 4 4 9
-8 5 -7 11 4 22 14 13 15 12 9 -3 -3 -9 0 -23 9 -32 8 -8 12 -21 8 -27 -5 -10
-4 -10 6 -1 11 10 11 16 -2 30 -8 10 -14 23 -11 29 2 6 -6 19 -18 30 -13 10
-19 14 -16 8 4 -7 0 -15 -8 -18 -12 -4 -13 -2 -6 13 6 10 7 22 3 26 -4 5 -2 5
5 1 18 -10 25 10 8 24 -7 6 -11 19 -8 28 4 13 3 14 -5 3 -5 -7 -12 -9 -14 -5
-3 5 -3 4 -2 -3 3 -12 -25 -27 -34 -18 -3 3 0 5 6 5 7 0 12 9 12 21 0 13 -4
18 -12 13 -9 -5 -9 -2 1 9 8 10 9 17 3 17 -6 0 -16 -8 -21 -17 -6 -10 -10 -13
-10 -8 0 13 25 47 34 45 4 -1 9 1 12 3 8 8 -20 2 -37 -7 -8 -5 -12 -6 -8 -1 4
4 -2 19 -13 33 -11 15 -17 33 -14 44 4 12 1 18 -9 18 -10 0 -13 6 -10 15 4 8
11 12 17 8 6 -3 7 -1 3 6 -6 9 -11 9 -21 1 -9 -8 -14 -6 -19 5 -3 9 -2 13 3
10 5 -3 12 -1 16 5 4 6 -5 10 -19 10 -14 0 -26 5 -26 11 0 5 4 7 10 4 5 -3 17
-2 26 3 11 6 13 11 5 16 -6 4 -11 2 -11 -3 0 -6 -5 -11 -10 -11 -6 0 -10 8 -8
18 2 14 -4 17 -31 15 -24 -1 -30 2 -20 8 9 6 10 12 4 17 -5 4 -12 16 -13 27
-2 11 -11 28 -19 38 -15 16 -11 22 10 18 5 -1 6 3 2 9 -3 6 -10 8 -15 5 -11
-7 -32 20 -22 30 4 5 1 5 -5 1 -7 -4 -13 -2 -13 3 0 6 6 11 13 11 16 1 -18 20
-43 25 -12 2 -18 0 -15 -6 4 -5 10 -7 15 -4 5 3 11 -4 15 -15 4 -11 16 -30 28
-40 16 -16 17 -20 5 -20 -9 0 -21 14 -28 30 -7 17 -15 28 -18 25 -3 -3 -12 4
-19 15 -8 11 -20 17 -26 14 -7 -4 -9 -4 -5 1 4 4 3 16 -3 26 -7 15 -6 17 6 13
8 -4 15 -2 15 2 0 14 -58 36 -71 28 -8 -4 -9 -3 -5 4 4 6 2 22 -4 34 -11 23
-11 23 7 3 31 -36 50 -47 50 -30 0 8 -4 12 -8 9 -11 -7 -41 27 -35 41 3 9 -2
11 -17 7 -20 -5 -21 -4 -8 11 12 15 12 17 -3 11 -11 -4 -15 -13 -10 -26 4 -14
2 -18 -5 -14 -6 4 -11 15 -11 24 0 13 -2 14 -9 4 -7 -11 -9 -10 -14 3 -4 9 -3
13 3 10 6 -3 10 -1 10 4 0 10 -13 15 -31 13 -3 -1 -6 6 -6 13 0 10 4 12 12 5
7 -6 15 -2 25 13 11 19 11 20 -1 10 -18 -14 -69 -5 -69 13 0 7 -4 16 -10 19
-6 4 -7 -1 -4 -12 5 -14 4 -15 -4 -4 -6 8 -8 20 -5 27 6 16 -38 15 -50 -1 -5
-6 -7 -3 -3 8 3 10 0 20 -8 23 -8 3 -17 13 -21 22 -5 13 -2 13 15 -3 11 -10
20 -14 20 -10 0 5 6 1 13 -10 11 -14 16 -15 22 -5 6 9 4 11 -5 5 -10 -6 -12
-4 -6 11 4 10 4 15 0 11 -4 -4 -13 -2 -21 4 -7 6 -13 8 -13 5 0 -4 -10 0 -22
8 -15 11 -27 12 -42 5 -20 -10 -20 -9 -3 5 11 8 26 12 35 9 14 -4 14 -3 3 5
-15 11 -36 6 -59 -11 -7 -6 -12 -6 -11 -1 5 26 -1 36 -15 25 -11 -9 -16 -9
-22 0 -4 7 -3 9 4 5 6 -3 13 -2 17 3 3 6 12 8 20 5 8 -4 12 -10 9 -15 -3 -5 2
-6 12 -2 15 5 14 7 -2 16 -11 6 -22 15 -25 20 -4 5 -9 5 -13 -2 -4 -6 -13 -11
-19 -11 -8 0 -8 3 1 9 11 7 12 12 1 29 -11 18 -14 18 -28 4 -14 -14 -16 -13
-22 9 -6 20 -14 10 -10 -13 0 -4 -7 -4 -16 -1 -11 4 -13 8 -5 11 7 2 12 13 11
25 0 21 -1 21 -9 2 -8 -19 -9 -19 -9 2 -1 12 2 23 7 26 4 2 1 2 -5 1 -7 -2
-17 5 -22 14 -6 9 -11 12 -11 6 0 -5 6 -16 13 -23 10 -11 8 -11 -10 -2 -16 8
-23 8 -26 -2 -4 -9 -6 -8 -6 2 -1 10 -4 11 -15 2 -10 -9 -16 -9 -21 -1 -4 6
-4 14 -1 17 3 4 6 1 6 -6 0 -7 5 -9 13 -4 6 4 16 8 21 8 5 0 10 6 12 13 1 7 0
8 -3 2 -3 -7 -12 -5 -26 7 -12 10 -17 12 -12 4 6 -11 4 -13 -8 -8 -10 4 -17 1
-17 -6 0 -8 -3 -7 -9 2 -5 8 -7 20 -4 28 3 8 -3 13 -17 13 -11 0 -18 5 -15 10
3 6 4 10 0 10 -3 0 -10 -10 -15 -22 -10 -23 -10 -23 -9 2 2 39 0 43 -15 31
-11 -9 -19 -6 -37 16 -12 15 -20 21 -17 12 4 -9 -2 -21 -15 -29 -19 -11 -20
-11 -11 1 6 8 11 25 12 39 1 18 -1 21 -8 10 -5 -8 -7 -17 -4 -21 2 -4 0 -10
-5 -13 -6 -4 -8 7 -6 24 3 18 0 28 -5 25 -6 -4 -10 -16 -10 -27 0 -25 -10 -19
-14 8 -2 10 -9 20 -17 22 -11 3 -11 1 1 -7 12 -9 11 -11 -7 -11 -13 0 -23 -5
-23 -11 0 -5 -5 -7 -11 -4 -6 5 -4 12 8 20 10 7 15 17 10 21 -4 4 -7 1 -7 -6
0 -9 -9 -5 -25 10 -14 13 -25 20 -25 15 0 -5 -12 2 -27 16 l-26 24 16 -25 c9
-13 17 -29 17 -35 0 -5 -5 -2 -11 8 -9 15 -13 16 -25 6 -12 -10 -15 -10 -12 2
2 8 -3 13 -10 11 -8 -1 -11 2 -7 8 5 8 12 7 23 -1 16 -12 16 -12 0 5 -10 12
-21 15 -30 10 -20 -13 -38 -14 -38 -2 0 6 -6 5 -15 -2 -10 -8 -15 -9 -15 -2 0
6 8 16 18 21 23 14 6 14 -19 1 -19 -11 -68 5 -55 17 3 3 12 0 20 -6 10 -8 16
-9 21 -1 4 6 3 9 -2 8 -4 -1 -19 4 -33 12 -30 17 -52 22 -44 9 6 -10 -26 -12
-50 -3 -9 3 -14 10 -11 14 3 5 1 11 -4 14 -5 4 -13 1 -17 -5 -5 -8 -3 -9 7 -4
8 5 11 4 6 -1 -5 -5 -13 -10 -18 -10 -22 -3 -23 -5 -9 -14 9 -6 10 -10 3 -10
-6 0 -15 5 -18 10 -4 6 -11 8 -16 4 -5 -3 -9 -2 -8 3 4 26 -2 33 -26 27 -14
-3 -25 -2 -24 2 4 21 -2 25 -18 13 -9 -8 -18 -13 -20 -11 -1 1 -4 2 -5 1 -2
-1 -19 -2 -39 -3 -34 -2 -36 -1 -33 28 1 17 0 25 -3 18 -2 -6 -10 -9 -16 -5
-7 4 -7 1 1 -9 10 -13 10 -18 1 -24 -7 -4 -10 -3 -7 2 3 5 -4 19 -16 32 l-22
22 -1 -22 c-2 -18 0 -20 7 -8 5 8 10 10 10 4 0 -5 -6 -18 -13 -28 -12 -16 -14
-17 -15 -2 -6 56 -6 56 -31 24 -14 -17 -18 -18 -18 -5 0 9 5 13 10 10 6 -3 7
-1 3 6 -4 6 -12 9 -17 6 -5 -4 -9 0 -9 7 0 9 -3 10 -8 2 -4 -6 -15 -10 -24 -8
-10 1 -22 -5 -28 -14 -7 -12 -9 -13 -10 -3 0 11 -3 11 -17 0 -10 -9 -14 -9
-10 -2 11 18 -31 39 -47 23 -8 -8 -7 -10 5 -5 10 4 20 1 25 -6 4 -8 3 -10 -5
-5 -6 4 -19 2 -28 -6 -9 -7 -14 -8 -10 -1 5 7 -5 11 -29 11 -25 0 -33 -3 -23
-9 8 -5 9 -9 3 -9 -6 0 -18 8 -25 17 -8 9 -9 14 -3 10 6 -3 20 1 30 9 10 9 13
13 6 9 -24 -12 -61 -15 -67 -6 -7 12 -35 3 -35 -11 0 -6 6 -5 15 2 9 7 15 8
15 2 0 -14 -28 -23 -35 -12 -3 5 -12 7 -20 4 -8 -4 -15 3 -18 18 -4 20 -5 20
-7 3z m-206 -32 c5 -11 1 -11 -16 -2 -18 10 -20 9 -15 -5 3 -8 1 -18 -5 -22
-6 -4 -8 -3 -5 3 10 15 -18 24 -32 10 -6 -6 -11 -7 -11 -3 0 5 -7 3 -15 -4
-22 -18 -32 -3 -12 18 15 14 19 15 26 3 6 -9 11 -10 15 -2 4 6 11 9 16 6 5 -3
11 -2 14 3 8 13 35 10 40 -5z m553 -13 c-2 -11 -6 -22 -9 -26 -4 -3 -5 2 -3
13 2 10 4 21 4 26 1 4 3 7 6 7 3 0 4 -9 2 -20z m-701 -25 c-10 -8 -22 -12 -27
-10 -4 3 -9 0 -11 -7 -3 -8 -7 -6 -11 4 -4 12 -1 16 12 13 10 -2 24 1 32 6 22
14 26 10 5 -6z m795 -8 c-10 -9 -11 -8 -5 6 3 10 9 15 12 12 3 -3 0 -11 -7
-18z m154 6 c-2 -10 -4 -21 -4 -25 -1 -5 -6 -8 -13 -8 -6 0 -8 3 -5 7 4 3 1
13 -6 21 -8 11 -8 14 0 9 6 -4 14 -3 18 3 9 15 14 12 10 -7z m-928 -18 c0 -8
-4 -12 -9 -9 -5 3 -6 10 -3 15 9 13 12 11 12 -6z m967 0 c-4 -8 -11 -12 -16
-9 -6 4 -5 10 3 15 19 12 19 11 13 -6z m177 -28 c-13 -13 -26 -3 -16 12 3 6
11 8 17 5 6 -4 6 -10 -1 -17z m-26 -17 c3 -6 -1 -7 -9 -4 -18 7 -21 14 -7 14
6 0 13 -4 16 -10z m51 -16 c18 -14 18 -14 -6 -3 -31 14 -36 19 -24 19 6 0 19
-7 30 -16z m-1499 -9 c0 -8 -4 -12 -9 -9 -5 3 -6 10 -3 15 9 13 12 11 12 -6z
m88 5 c3 -6 -1 -7 -9 -4 -18 7 -21 14 -7 14 6 0 13 -4 16 -10z m1640 -58 c-3
-3 -16 -6 -29 -8 -23 -2 -24 -1 -8 16 12 15 19 17 29 8 7 -6 11 -13 8 -16z
m-1780 -2 c3 -5 1 -10 -4 -10 -6 0 -11 5 -11 10 0 6 2 10 4 10 3 0 8 -4 11
-10z m1955 -84 c0 -6 -5 -3 -11 7 -6 9 -15 14 -21 11 -7 -4 -8 -2 -4 5 9 14
36 -3 36 -23z m23 9 c-3 -9 -8 -14 -10 -11 -3 3 -2 9 2 15 9 16 15 13 8 -4z
m-2223 -40 c12 -17 12 -18 0 -7 -18 16 -38 16 -22 0 7 -7 12 -16 12 -22 0 -5
-7 -1 -16 10 -13 15 -15 16 -10 2 3 -12 1 -15 -10 -11 -13 5 -11 10 7 29 12
13 23 23 24 21 0 -1 7 -11 15 -22z m-97 -90 c-3 -9 -8 -14 -10 -11 -3 3 -2 9
2 15 9 16 15 13 8 -4z m2593 -27 c4 -7 3 -8 -4 -4 -7 4 -12 2 -12 -5 0 -7 -3
-10 -6 -6 -6 5 3 27 11 27 2 0 7 -5 11 -12z m-2666 -32 c0 -3 -4 -8 -10 -11
-5 -3 -10 -1 -10 4 0 6 5 11 10 11 6 0 10 -2 10 -4z m-83 -50 c0 -8 -7 -12
-16 -9 -11 3 -10 0 4 -13 17 -14 17 -16 2 -11 -11 4 -20 1 -24 -9 -5 -12 -7
-13 -14 -2 -5 8 0 21 13 35 25 26 35 29 35 9z m40 -2 c-3 -3 -12 -4 -19 -1 -8
3 -5 6 6 6 11 1 17 -2 13 -5z m-215 -199 c-8 -16 -9 -16 -15 -1 -4 10 -3 15 3
11 6 -3 10 -1 10 6 0 7 3 10 6 6 3 -3 2 -13 -4 -22z m-12 -61 c0 -8 -19 -13
-24 -6 -3 5 1 9 9 9 8 0 15 -2 15 -3z m3454 -199 c-4 -8 -11 -12 -16 -9 -6 4
-5 10 3 15 12 7 11 9 -1 10 -8 1 -19 1 -23 0 -5 -1 -6 3 -2 9 10 16 45 -7 39
-25z m59 -92 c-18 -27 -25 -30 -16 -6 5 12 3 14 -8 8 -11 -7 -12 -6 -2 6 7 9
19 16 27 16 12 0 12 -4 -1 -24z m-3718 -53 c-3 -5 -12 -10 -18 -10 -7 0 -6 4
3 10 19 12 23 12 15 0z m-51 -66 c3 -8 2 -12 -4 -9 -6 3 -10 10 -10 16 0 14 7
11 14 -7z m-23 -37 c-7 -7 -14 -8 -21 -1 -6 6 -2 10 12 11 16 2 18 -1 9 -10z
m-11 -53 c0 -8 -19 -13 -24 -6 -3 5 1 9 9 9 8 0 15 -2 15 -3z m3978 -56 c8
-10 4 -13 -13 -14 -19 -2 -21 1 -12 12 15 16 13 16 25 2z m-4018 -8 c0 -5 -8
-10 -17 -10 -15 0 -16 2 -3 10 19 12 20 12 20 0z m-73 -172 c-3 -8 -6 -5 -6 6
-1 11 2 17 5 13 3 -3 4 -12 1 -19z m3 -24 c0 -8 -19 -13 -24 -6 -3 5 1 9 9 9
8 0 15 -2 15 -3z m4175 -4 c3 -5 1 -10 -4 -10 -6 0 -11 5 -11 10 0 6 2 10 4
10 3 0 8 -4 11 -10z m-4 -28 c-7 -2 -18 1 -23 6 -8 8 -4 9 13 5 13 -4 18 -8
10 -11z m-4 -54 c-3 -8 -6 -5 -6 6 -1 11 2 17 5 13 3 -3 4 -12 1 -19z m-4243
-97 c3 -5 -1 -11 -9 -14 -9 -4 -12 -1 -8 9 6 16 10 17 17 5z m4311 -22 c-4 -5
-12 -9 -18 -8 -9 0 -8 2 1 6 6 2 9 10 6 15 -4 7 -2 8 5 4 6 -4 9 -12 6 -17z
m-4325 -119 c0 -5 -5 -10 -11 -10 -5 0 -7 5 -4 10 3 6 8 10 11 10 2 0 4 -4 4
-10z m4356 -76 c1 -9 0 -13 -4 -10 -3 4 -7 14 -8 22 -1 9 0 13 4 10 3 -4 7
-14 8 -22z m-4431 -193 c3 -5 0 -13 -6 -17 -7 -4 -9 -3 -5 4 3 5 0 13 -6 15
-9 4 -10 6 -1 6 6 1 14 -3 18 -8z m4485 -11 c0 -5 -8 -10 -17 -10 -15 0 -16 2
-3 10 19 12 20 12 20 0z m-4500 -20 c13 -8 12 -10 -3 -10 -10 0 -16 -4 -13 -8
2 -4 -5 -19 -16 -32 -11 -14 -16 -19 -12 -11 4 8 8 26 10 40 3 37 6 39 34 21z
m4566 -272 c4 -7 3 -8 -4 -4 -7 4 -12 2 -12 -5 0 -7 -3 -10 -6 -6 -6 5 3 27
11 27 2 0 7 -5 11 -12z m-1 -28 c-3 -5 -12 -10 -18 -10 -7 0 -6 4 3 10 19 12
23 12 15 0z m-4595 -14 c0 -2 -7 -7 -16 -10 -8 -3 -12 -2 -9 4 6 10 25 14 25
6z m4627 -121 c0 -8 -7 -15 -15 -15 -12 0 -12 3 -2 15 7 8 13 15 15 15 1 0 2
-7 2 -15z m-4627 0 c0 -1 -10 -10 -22 -21 -14 -12 -18 -13 -10 -3 6 9 10 18 7
21 -3 2 2 5 10 5 8 0 15 -1 15 -2z m4640 -69 c0 -2 -7 -9 -15 -16 -13 -11 -14
-10 -9 4 5 14 24 23 24 12z m23 -62 c-4 -12 -8 -13 -14 -3 -9 15 -2 32 11 24
5 -3 6 -13 3 -21z m66 -39 c6 -3 11 -11 11 -18 0 -6 -7 -1 -16 11 -8 12 -19
20 -24 17 -7 -4 -7 11 0 35 1 3 5 -5 10 -16 5 -12 13 -25 19 -29z m-14 -15 c3
-5 1 -10 -4 -10 -6 0 -11 5 -11 10 0 6 2 10 4 10 3 0 8 -4 11 -10z m90 -58
c-3 -3 -11 0 -18 7 -9 10 -8 11 6 5 10 -3 15 -9 12 -12z m-4944 -59 c13 -16
12 -17 -3 -4 -10 7 -18 15 -18 17 0 8 8 3 21 -13z m-31 -33 c0 -5 -5 -10 -11
-10 -5 0 -7 5 -4 10 3 6 8 10 11 10 2 0 4 -4 4 -10z m5115 -70 c3 -6 -1 -7 -9
-4 -18 7 -21 14 -7 14 6 0 13 -4 16 -10z m44 -19 c7 -13 6 -18 -4 -18 -7 0
-11 6 -8 14 3 7 0 13 -6 13 -6 0 -11 5 -11 11 0 14 18 2 29 -20z m-5252 -26
c5 -4 2 -5 -6 0 -11 6 -13 4 -7 -10 5 -15 4 -16 -9 -5 -8 7 -15 16 -15 20 0
10 27 7 37 -5z m-53 -93 c3 -5 -1 -9 -9 -9 -8 0 -12 4 -9 9 3 4 7 8 9 8 2 0 6
-4 9 -8z m5358 -89 c-6 -2 -9 -10 -6 -15 4 -7 2 -8 -5 -4 -13 9 -5 26 12 25 9
0 8 -2 -1 -6z m-5444 -17 c-7 -8 -15 -12 -17 -11 -5 6 10 25 20 25 5 0 4 -6
-3 -14z m5488 -127 c3 -6 1 -16 -6 -22 -10 -9 -12 -8 -7 5 3 9 1 19 -6 22 -9
3 -9 5 0 5 6 1 15 -4 19 -10z m-5577 -42 c-9 -7 -14 -19 -12 -27 4 -13 3 -13
-6 0 -8 11 -6 18 6 28 9 6 19 12 22 12 3 0 -1 -6 -10 -13z m-15 -62 c-4 -8
-11 -12 -17 -8 -6 4 -7 -4 -3 -23 7 -28 7 -28 -8 -9 -14 18 -14 21 5 38 26 21
30 21 23 2z m-1 -70 c-3 -9 -8 -14 -10 -11 -3 3 -2 9 2 15 9 16 15 13 8 -4z
m-18 -135 c3 -5 1 -10 -4 -10 -6 0 -11 5 -11 10 0 6 2 10 4 10 3 0 8 -4 11
-10z m-2 -33 c3 -8 -1 -14 -8 -14 -7 0 -11 6 -8 14 3 7 6 13 8 13 2 0 5 -6 8
-13z m5497 -81 c0 -2 -8 -10 -17 -17 -16 -13 -17 -12 -4 4 13 16 21 21 21 13z
m-150 -242 c0 -8 -19 -13 -24 -6 -3 5 1 9 9 9 8 0 15 -2 15 -3z m-5250 -64 c0
-5 -2 -10 -4 -10 -3 0 -8 5 -11 10 -3 6 -1 10 4 10 6 0 11 -4 11 -10z m5146
-29 c-3 -5 1 -11 9 -15 9 -3 15 0 15 9 0 8 5 15 10 15 7 0 8 -6 2 -17 -13 -22
-51 -25 -47 -4 5 22 4 21 11 21 3 0 3 -4 0 -9z m-5086 -51 c-12 -22 -21 -26
-17 -7 2 10 17 26 25 27 1 0 -2 -9 -8 -20z m5100 6 c0 -2 -6 -9 -14 -15 -11
-9 -16 -9 -22 0 -4 8 -3 9 4 5 7 -4 12 -2 12 3 0 6 5 11 10 11 6 0 10 -2 10
-4z m-5070 -26 c0 -5 -2 -10 -4 -10 -3 0 -8 5 -11 10 -3 6 -1 10 4 10 6 0 11
-4 11 -10z m4964 -66 c3 -8 2 -12 -4 -9 -6 3 -10 10 -10 16 0 14 7 11 14 -7z
m-4774 -176 c0 -6 -6 -5 -15 2 -8 7 -15 14 -15 16 0 2 7 1 15 -2 8 -4 15 -11
15 -16z m4710 -38 c0 -5 -2 -10 -4 -10 -3 0 -8 5 -11 10 -3 6 -1 10 4 10 6 0
11 -4 11 -10z m-39 -77 c13 -16 12 -17 -3 -4 -10 7 -18 15 -18 17 0 8 8 3 21
-13z m-4321 -117 c0 -2 -7 -7 -16 -10 -8 -3 -12 -2 -9 4 6 10 25 14 25 6z
m4315 -74 c-3 -3 -11 0 -18 7 -9 10 -8 11 6 5 10 -3 15 -9 12 -12z m-4287 -41
c-6 -10 -18 -17 -25 -14 -10 4 -8 9 9 18 13 7 24 13 26 14 1 1 -3 -8 -10 -18z
m60 -213 c-2 -7 2 -12 9 -11 8 2 10 -4 6 -14 -4 -10 -2 -14 4 -10 5 3 10 0 10
-7 0 -11 -4 -12 -18 -3 -10 6 -16 14 -13 18 2 4 0 10 -6 14 -6 4 -8 11 -5 16
9 13 15 11 13 -3z m4132 -72 c0 -2 -12 -11 -27 -20 l-28 -17 24 20 c23 21 31
25 31 17z m-4070 -61 c0 -1 -6 -7 -13 -13 -10 -8 -13 -6 -13 7 0 11 6 17 13
14 7 -3 13 -6 13 -8z m3970 -185 c0 -5 -5 -10 -11 -10 -5 0 -7 5 -4 10 3 6 8
10 11 10 2 0 4 -4 4 -10z m-47 -173 c7 3 4 -3 -6 -14 -16 -19 -52 -29 -41 -11
3 5 10 5 16 2 7 -5 9 2 4 22 -5 23 -4 26 4 11 6 -9 17 -14 23 -10z m-3633
-231 c0 -2 -9 -6 -20 -9 -11 -3 -18 -1 -14 4 5 9 34 13 34 5z m3460 -112 c0
-8 -19 -13 -24 -6 -3 5 1 9 9 9 8 0 15 -2 15 -3z m-40 -24 c0 -5 -5 -10 -11
-10 -5 0 -7 5 -4 10 3 6 8 10 11 10 2 0 4 -4 4 -10z m-14 -50 c-13 -14 -22
-30 -19 -37 2 -6 0 -14 -6 -17 -15 -10 -5 45 10 55 12 8 12 10 0 18 -10 7 -7
9 12 8 l26 -2 -23 -25z m-3236 -45 c0 -1 -8 -5 -18 -7 -11 -3 -19 0 -19 7 0 7
8 10 19 7 10 -2 18 -6 18 -7z m3110 -105 c0 -5 -8 -10 -17 -10 -15 0 -16 2 -3
10 19 12 20 12 20 0z m-46 -69 c3 -5 0 -14 -8 -20 -10 -9 -17 -7 -27 6 -8 9
-9 14 -2 10 6 -4 14 -3 18 3 8 12 12 13 19 1z m-100 -102 c-3 -5 -10 -7 -15
-3 -5 3 -7 10 -3 15 3 5 10 7 15 3 5 -3 7 -10 3 -15z m-2661 -16 c-3 -7 -6
-13 -8 -13 -2 0 -5 6 -8 13 -3 8 1 14 8 14 7 0 11 -6 8 -14z m137 -93 c0 -5
-5 -10 -11 -10 -5 0 -7 5 -4 10 3 6 8 10 11 10 2 0 4 -4 4 -10z m2350 -38 c0
-13 -12 -22 -22 -16 -10 6 -1 24 13 24 5 0 9 -4 9 -8z m-2277 -44 c6 -22 5
-22 -8 -4 -17 22 -20 40 -6 32 5 -3 11 -16 14 -28z m34 -3 c0 -8 -4 -15 -9
-15 -10 0 -11 14 -1 23 9 10 10 9 10 -8z m48 5 c-3 -5 -12 -10 -18 -10 -7 0
-6 4 3 10 19 12 23 12 15 0z m65 -36 c0 -8 -19 -13 -24 -6 -3 5 1 9 9 9 8 0
15 -2 15 -3z m1856 -90 c-1 -8 -6 -17 -12 -21 -5 -4 -6 -4 -2 1 4 5 3 14 -2
21 -7 8 -5 12 4 12 8 0 13 -6 12 -13z m-1581 -33 c3 -5 2 -12 -3 -15 -5 -3 -9
1 -9 9 0 17 3 19 12 6z m1400 -21 c-3 -5 -12 -10 -18 -10 -7 0 -6 4 3 10 19
12 23 12 15 0z m-1245 -50 c0 -5 -2 -10 -4 -10 -3 0 -8 5 -11 10 -3 6 -1 10 4
10 6 0 11 -4 11 -10z m195 -33 c4 5 5 2 0 -6 -6 -11 -12 -9 -26 10 -10 13 -19
29 -19 34 0 6 8 -2 18 -18 10 -15 22 -24 27 -20z m578 -30 c3 -8 -1 -14 -8
-14 -7 0 -11 6 -8 14 3 7 6 13 8 13 2 0 5 -6 8 -13z m82 -5 c-3 -3 -11 0 -18
7 -9 10 -8 11 6 5 10 -3 15 -9 12 -12z"/>
<path d="M3475 6870 c-16 -17 -16 -20 -3 -15 9 4 19 13 22 21 7 19 2 18 -19
-6z"/>
<path d="M3566 6862 c-3 -5 1 -9 9 -9 8 0 15 4 15 9 0 4 -4 8 -9 8 -6 0 -12
-4 -15 -8z"/>
<path d="M3818 6850 c16 -19 16 -35 -1 -21 -10 8 -14 7 -14 -2 0 -22 43 -16
44 6 1 11 -1 17 -4 13 -3 -3 -13 0 -22 6 -13 10 -14 10 -3 -2z"/>
<path d="M3869 6843 c-13 -16 -12 -17 4 -4 9 7 17 15 17 17 0 8 -8 3 -21 -13z"/>
<path d="M2877 6831 c-10 -14 -10 -14 4 -4 9 7 18 10 21 7 3 -3 8 -1 12 4 9
16 -24 9 -37 -7z"/>
<path d="M3965 6801 c-6 -11 9 -23 19 -14 9 9 7 23 -3 23 -6 0 -12 -4 -16 -9z"/>
<path d="M4051 6797 c-8 -10 -7 -14 2 -14 8 0 14 6 14 14 0 7 -1 13 -2 13 -2
0 -8 -6 -14 -13z"/>
<path d="M2715 6791 c-3 -5 -2 -12 3 -15 5 -3 9 1 9 9 0 17 -3 19 -12 6z"/>
<path d="M2663 6754 c-17 -18 -16 -23 5 -20 9 2 16 6 15 10 -5 21 -9 23 -20
10z"/>
<path d="M2550 6718 c0 -4 4 -8 9 -8 6 0 12 4 15 8 3 5 -1 9 -9 9 -8 0 -15 -4
-15 -9z"/>
<path d="M2520 6700 c-11 -7 -11 -10 -2 -10 8 0 10 -5 6 -12 -4 -7 -3 -9 1 -5
7 6 17 37 12 37 -1 0 -9 -5 -17 -10z"/>
<path d="M4535 6631 c-3 -5 -2 -12 3 -15 5 -3 9 1 9 9 0 17 -3 19 -12 6z"/>
<path d="M2186 6473 c2 -7 -1 -13 -5 -13 -14 0 -21 -29 -9 -36 6 -4 8 -3 4 4
-3 5 6 19 20 30 20 14 24 21 14 27 -9 5 -11 4 -6 -3 4 -7 3 -12 -3 -12 -5 0
-11 3 -14 8 -2 4 -2 1 -1 -5z"/>
<path d="M4895 6421 c-3 -5 -2 -12 3 -15 5 -3 9 1 9 9 0 17 -3 19 -12 6z"/>
<path d="M2110 6389 c0 -5 -5 -7 -12 -3 -7 4 -8 3 -4 -5 6 -9 11 -9 22 0 17
14 18 19 4 19 -5 0 -10 -5 -10 -11z"/>
<path d="M5050 6281 c0 -6 4 -13 10 -16 6 -3 7 1 4 9 -7 18 -14 21 -14 7z"/>
<path d="M5126 6197 c3 -10 9 -15 12 -12 3 3 0 11 -7 18 -10 9 -11 8 -5 -6z"/>
<path d="M5253 6050 c-14 -22 -4 -33 17 -19 10 5 11 9 3 9 -7 0 -10 7 -7 15 8
21 1 19 -13 -5z"/>
<path d="M1736 5998 c3 -5 10 -6 15 -3 13 9 11 12 -6 12 -8 0 -12 -4 -9 -9z"/>
<path d="M5401 5861 c-8 -5 -9 -11 -3 -15 5 -3 12 1 16 9 6 17 6 18 -13 6z"/>
<path d="M5496 5693 c-4 -9 -1 -20 6 -25 7 -4 9 -8 4 -8 -6 0 -5 -5 2 -12 9
-9 15 -9 25 1 10 10 8 11 -8 5 -18 -7 -19 -6 -6 10 12 15 12 17 0 14 -9 -2
-13 4 -11 15 4 22 -4 22 -12 0z"/>
<path d="M1470 5393 c-17 -20 -22 -41 -10 -48 5 -3 7 3 6 12 -2 10 7 25 18 35
12 9 17 17 11 17 -5 0 -17 -7 -25 -16z"/>
<path d="M5666 5375 c4 -8 11 -15 16 -15 6 0 5 6 -2 15 -7 8 -14 15 -16 15 -2
0 -1 -7 2 -15z"/>
<path d="M5695 5279 c-4 -6 -5 -12 -2 -15 2 -3 7 2 10 11 7 17 1 20 -8 4z"/>
<path d="M1395 5249 c-4 -6 -5 -12 -2 -15 2 -3 7 2 10 11 7 17 1 20 -8 4z"/>
<path d="M5707 5223 c-7 -15 -2 -36 9 -40 7 -2 12 7 12 22 0 24 -12 34 -21 18z"/>
<path d="M5752 5108 c-17 -17 -15 -35 4 -42 14 -5 15 -4 4 9 -10 12 -10 18 0
30 15 18 9 20 -8 3z"/>
<path d="M5747 5049 c7 -7 15 -10 18 -7 3 3 -2 9 -12 12 -14 6 -15 5 -6 -5z"/>
<path d="M1387 5043 c-4 -3 -7 -11 -7 -17 0 -6 5 -5 12 2 6 6 9 14 7 17 -3 3
-9 2 -12 -2z"/>
<path d="M5790 5020 c0 -5 5 -10 11 -10 5 0 7 5 4 10 -3 6 -8 10 -11 10 -2 0
-4 -4 -4 -10z"/>
<path d="M5786 4961 c9 -9 34 -9 34 -1 0 5 -9 8 -20 7 -10 -1 -17 -3 -14 -6z"/>
<path d="M5853 4764 c-3 -8 -2 -19 3 -24 5 -5 9 1 9 16 0 28 -3 30 -12 8z"/>
<path d="M1276 4747 c3 -10 9 -15 12 -12 3 3 0 11 -7 18 -10 9 -11 8 -5 -6z"/>
<path d="M5870 4691 c-8 -6 -17 -8 -20 -6 -4 2 -7 -2 -7 -10 0 -11 5 -10 24 2
13 8 23 17 23 19 0 6 -3 5 -20 -5z"/>
<path d="M5879 4618 c-5 -18 -6 -38 -1 -34 7 8 12 36 6 36 -2 0 -4 -1 -5 -2z"/>
<path d="M5873 4548 c1 -15 6 -23 11 -18 4 4 4 16 -2 26 -9 16 -10 14 -9 -8z"/>
<path d="M5910 4401 c0 -6 4 -13 10 -16 6 -3 7 1 4 9 -7 18 -14 21 -14 7z"/>
<path d="M5909 4313 c-12 -16 -12 -17 2 -6 9 7 20 9 24 5 5 -4 5 -1 1 6 -9 16
-11 15 -27 -5z"/>
<path d="M5945 4220 c-3 -6 1 -7 9 -4 18 7 21 14 7 14 -6 0 -13 -4 -16 -10z"/>
<path d="M6055 4099 c-4 -6 -5 -12 -2 -15 2 -3 7 2 10 11 7 17 1 20 -8 4z"/>
<path d="M6144 4011 c0 -11 5 -17 13 -14 10 4 11 9 2 19 -15 18 -15 18 -15 -5z"/>
<path d="M1055 3929 c-4 -6 -5 -12 -2 -15 2 -3 7 2 10 11 7 17 1 20 -8 4z"/>
<path d="M920 3755 c-7 -9 -11 -17 -9 -20 3 -2 10 5 17 15 14 24 10 26 -8 5z"/>
<path d="M6300 3761 c0 -5 7 -12 16 -15 14 -5 15 -4 4 9 -14 17 -20 19 -20 6z"/>
<path d="M6305 3730 c3 -4 14 -10 25 -13 11 -3 18 -2 15 3 -3 4 -14 10 -25 13
-11 3 -18 2 -15 -3z"/>
<path d="M810 3580 c0 -5 5 -10 11 -10 5 0 7 5 4 10 -3 6 -8 10 -11 10 -2 0
-4 -4 -4 -10z"/>
<path d="M802 3528 c2 -7 -2 -12 -9 -11 -12 2 -12 -23 0 -32 4 -3 5 -2 2 2 -3
3 2 14 11 24 10 11 12 19 4 24 -6 4 -9 1 -8 -7z"/>
<path d="M6376 3433 c-6 -14 -5 -15 5 -6 7 7 10 15 7 18 -3 3 -9 -2 -12 -12z"/>
<path d="M710 3416 c0 -2 8 -10 18 -17 15 -13 16 -12 3 4 -13 16 -21 21 -21
13z"/>
<path d="M714 3316 c5 -14 2 -17 -11 -12 -12 4 -10 0 6 -12 l24 -19 -24 -6
c-13 -3 -20 -9 -17 -12 3 -4 19 0 35 8 24 13 25 16 11 22 -10 4 -16 10 -14 14
3 4 0 13 -6 21 -8 12 -9 11 -4 -4z"/>
<path d="M6360 3276 c0 -2 8 -10 18 -17 15 -13 16 -12 3 4 -13 16 -21 21 -21
13z"/>
<path d="M690 3099 c0 -5 5 -7 10 -4 6 3 10 8 10 11 0 2 -4 4 -10 4 -5 0 -10
-5 -10 -11z"/>
<path d="M6260 3025 c-7 -8 -9 -15 -5 -15 4 0 2 -7 -5 -15 -18 -21 -7 -19 20
5 13 11 18 20 11 20 -7 0 -9 5 -6 10 9 15 -1 12 -15 -5z"/>
<path d="M6179 2888 c15 -21 31 -23 31 -6 0 6 -3 8 -7 5 -3 -4 -13 -1 -22 6
-14 11 -14 10 -2 -5z"/>
<path d="M760 2871 c0 -6 4 -13 10 -16 6 -3 7 1 4 9 -7 18 -14 21 -14 7z"/>
<path d="M6160 2847 c-14 -23 -14 -27 -2 -27 4 0 7 5 7 10 0 6 6 15 14 19 7 5
9 11 4 14 -5 3 -15 -4 -23 -16z"/>
<path d="M803 2853 c-22 -8 -14 -19 12 -19 14 0 25 3 25 7 0 10 -23 17 -37 12z"/>
<path d="M6096 2718 c3 -5 10 -6 15 -3 13 9 11 12 -6 12 -8 0 -12 -4 -9 -9z"/>
<path d="M935 2601 c-4 -7 -1 -10 7 -9 7 2 12 -3 10 -10 -1 -8 2 -11 7 -8 5 4
11 0 14 -6 2 -7 7 -10 11 -7 3 3 -5 16 -18 28 -16 15 -26 19 -31 12z"/>
<path d="M5880 2495 c0 -5 5 -17 10 -25 5 -8 10 -10 10 -5 0 6 -5 17 -10 25
-5 8 -10 11 -10 5z"/>
<path d="M1051 2444 c0 -11 3 -14 6 -6 3 7 2 16 -1 19 -3 4 -6 -2 -5 -13z"/>
<path d="M5870 2420 c0 -5 5 -10 11 -10 5 0 7 5 4 10 -3 6 -8 10 -11 10 -2 0
-4 -4 -4 -10z"/>
<path d="M1127 2379 c7 -7 15 -10 18 -7 3 3 -2 9 -12 12 -14 6 -15 5 -6 -5z"/>
<path d="M5852 2324 c-8 -17 -8 -25 0 -30 7 -4 14 -2 16 5 4 11 6 11 14 0 8
-11 9 -11 5 1 -2 8 -10 14 -16 13 -6 -2 -11 2 -11 7 0 10 15 14 35 10 6 -1 6
2 2 6 -16 16 -35 11 -45 -12z"/>
<path d="M1230 2310 l-25 -21 28 12 c15 7 27 16 27 21 0 11 -1 10 -30 -12z"/>
<path d="M1336 2238 c3 -5 10 -6 15 -3 13 9 11 12 -6 12 -8 0 -12 -4 -9 -9z"/>
<path d="M5840 2226 c0 -2 7 -7 16 -10 8 -3 12 -2 9 4 -6 10 -25 14 -25 6z"/>
<path d="M5815 2190 c-3 -5 -1 -10 4 -10 6 0 11 5 11 10 0 6 -2 10 -4 10 -3 0
-8 -4 -11 -10z"/>
<path d="M5815 2160 c3 -5 8 -10 11 -10 2 0 4 5 4 10 0 6 -5 10 -11 10 -5 0
-7 -4 -4 -10z"/>
<path d="M5769 1965 c0 0 -2 -8 -4 -17 -4 -22 11 -24 19 -2 4 9 13 14 22 10 8
-3 12 -2 9 3 -4 7 -36 11 -46 6z"/>
<path d="M5750 1916 c0 -2 7 -7 16 -10 8 -3 12 -2 9 4 -6 10 -25 14 -25 6z"/>
<path d="M1533 1885 c0 -8 4 -15 9 -15 4 0 8 4 8 9 0 6 -4 12 -8 15 -5 3 -9
-1 -9 -9z"/>
<path d="M5715 1755 c-16 -13 -26 -24 -21 -25 5 0 2 -7 -5 -17 -13 -15 -12
-15 10 -4 17 10 20 15 11 21 -9 6 -7 10 8 14 11 4 23 13 26 21 7 19 6 19 -29
-10z"/>
<path d="M5715 1700 c-3 -5 -1 -10 4 -10 6 0 11 5 11 10 0 6 -2 10 -4 10 -3 0
-8 -4 -11 -10z"/>
<path d="M1650 1585 c0 -5 5 -17 10 -25 7 -11 12 -12 20 -4 9 9 9 14 1 18 -6
4 -11 4 -11 -1 0 -4 -5 -1 -10 7 -5 8 -10 11 -10 5z"/>
<path d="M5638 1553 c10 -4 10 -9 -3 -23 -16 -17 -16 -18 2 -15 10 1 17 8 16
14 -2 6 3 11 10 11 8 0 7 4 -3 10 -8 5 -19 9 -25 9 -5 0 -4 -3 3 -6z"/>
<path d="M1690 1459 c0 -6 4 -8 8 -5 4 2 14 0 22 -5 12 -7 13 -11 2 -18 -11
-7 -11 -9 1 -14 13 -5 16 12 8 43 -2 10 -41 9 -41 -1z"/>
<path d="M1826 1203 c-6 -14 -5 -15 5 -6 7 7 10 15 7 18 -3 3 -9 -2 -12 -12z"/>
<path d="M5449 1137 c0 -1 -2 -13 -5 -27 -3 -17 -1 -21 5 -11 5 7 14 17 21 21
8 5 7 9 -4 13 -9 4 -16 5 -17 4z"/>
<path d="M2029 923 c-13 -16 -12 -17 4 -4 16 13 21 21 13 21 -2 0 -10 -8 -17
-17z"/>
<path d="M5296 861 c-3 -5 2 -15 12 -22 15 -12 16 -12 5 2 -7 9 -10 19 -6 22
3 4 4 7 0 7 -3 0 -8 -4 -11 -9z"/>
<path d="M2076 842 c-2 -4 4 -8 14 -8 10 0 16 4 14 8 -3 4 -9 8 -14 8 -5 0
-11 -4 -14 -8z"/>
<path d="M5244 832 c3 -5 0 -13 -6 -15 -9 -4 -10 -6 -1 -6 17 -1 25 16 12 25
-7 4 -9 3 -5 -4z"/>
<path d="M5231 764 c0 -11 3 -14 6 -6 3 7 2 16 -1 19 -3 4 -6 -2 -5 -13z"/>
<path d="M5190 761 c0 -6 4 -13 10 -16 6 -3 7 1 4 9 -7 18 -14 21 -14 7z"/>
<path d="M2235 701 c-6 -11 13 -26 22 -17 4 3 1 6 -6 6 -7 0 -9 5 -6 10 3 6 4
10 1 10 -3 0 -7 -4 -11 -9z"/>
<path d="M2273 679 c-2 -23 3 -25 10 -4 4 8 3 16 -1 19 -4 3 -9 -4 -9 -15z"/>
<path d="M5090 619 c0 -5 5 -7 10 -4 6 3 10 8 10 11 0 2 -4 4 -10 4 -5 0 -10
-5 -10 -11z"/>
<path d="M2389 563 c-13 -16 -12 -17 4 -4 16 13 21 21 13 21 -2 0 -10 -8 -17
-17z"/>
<path d="M4995 560 c-4 -6 -11 -7 -17 -4 -6 4 -8 2 -5 -4 7 -10 32 -11 42 0 4
3 2 9 -4 12 -5 4 -12 2 -16 -4z"/>
<path d="M2473 485 c0 -8 4 -12 9 -9 5 3 6 10 3 15 -9 13 -12 11 -12 -6z"/>
<path d="M4827 435 c-12 -17 -14 -26 -5 -31 6 -4 8 -3 4 4 -3 6 -2 13 4 17 5
3 10 0 10 -7 0 -8 5 -5 11 5 17 29 -4 39 -24 12z"/>
<path d="M2675 399 c-4 -6 -5 -12 -2 -15 2 -3 7 2 10 11 7 17 1 20 -8 4z"/>
<path d="M4747 383 c-3 -5 4 -15 16 -23 21 -12 21 -12 7 6 -8 10 -15 20 -16
22 -1 2 -4 -1 -7 -5z"/>
<path d="M2744 362 c3 -5 0 -13 -6 -15 -9 -4 -10 -6 -1 -6 17 -1 25 16 12 25
-7 4 -9 3 -5 -4z"/>
<path d="M2819 324 c-7 -8 -8 -14 -3 -12 5 1 18 -3 30 -9 12 -7 25 -8 35 -2
12 7 12 9 -1 10 -8 1 -21 1 -29 0 -7 -2 -10 2 -7 8 11 17 -11 22 -25 5z"/>
<path d="M4636 293 c-6 -14 -5 -15 5 -6 7 7 10 15 7 18 -3 3 -9 -2 -12 -12z"/>
<path d="M2847 279 c7 -7 15 -10 18 -7 3 3 -2 9 -12 12 -14 6 -15 5 -6 -5z"/>
<path d="M2926 262 c-3 -5 1 -9 9 -9 8 0 12 4 9 9 -3 4 -7 8 -9 8 -2 0 -6 -4
-9 -8z"/>
<path d="M3075 250 c-3 -5 2 -21 11 -35 19 -29 26 -32 17 -8 -7 17 -5 17 22 0
l30 -18 -30 26 c-16 14 -29 30 -27 35 3 13 -15 13 -23 0z"/>
<path d="M3010 226 c0 -2 7 -7 16 -10 8 -3 12 -2 9 4 -6 10 -25 14 -25 6z"/>
<path d="M4370 211 c0 -6 4 -13 10 -16 6 -3 7 1 4 9 -7 18 -14 21 -14 7z"/>
<path d="M4270 170 c0 -7 -3 -10 -7 -7 -3 4 -12 2 -20 -4 -9 -8 -13 -8 -13 -1
0 6 -10 9 -22 6 -13 -3 -30 -6 -37 -8 -16 -3 -28 -26 -14 -26 4 0 16 7 27 15
13 10 24 11 37 5 12 -7 20 -7 24 0 4 6 10 8 15 5 10 -6 25 14 16 22 -3 4 -6 0
-6 -7z"/>
<path d="M3236 153 c-6 -14 -5 -15 5 -6 7 7 10 15 7 18 -3 3 -9 -2 -12 -12z"/>
<path d="M3315 140 c3 -5 8 -10 11 -10 2 0 4 5 4 10 0 6 -5 10 -11 10 -5 0 -7
-4 -4 -10z"/>
<path d="M4066 133 c-6 -14 -5 -15 5 -6 7 7 10 15 7 18 -3 3 -9 -2 -12 -12z"/>
<path d="M3615 131 c-3 -5 -2 -12 3 -15 5 -3 9 1 9 9 0 17 -3 19 -12 6z"/>
<path d="M3706 132 c-3 -5 1 -9 9 -9 8 0 15 4 15 9 0 4 -4 8 -9 8 -6 0 -12 -4
-15 -8z"/>
<path d="M3883 133 c-17 -6 -17 -20 0 -20 8 0 14 6 14 14 0 7 -1 13 -1 12 -1
0 -7 -3 -13 -6z"/>
<path d="M3996 132 c-3 -5 1 -9 9 -9 8 0 12 4 9 9 -3 4 -7 8 -9 8 -2 0 -6 -4
-9 -8z"/>
</g>
</svg>
