<?xml version="1.0" standalone="no"?><!DOCTYPE svg PUBLIC "-//W3C//DTD SVG 1.1//EN" "http://www.w3.org/Graphics/SVG/1.1/DTD/svg11.dtd"><svg t="1591176575388" class="icon" viewBox="0 0 1024 1024" version="1.1" xmlns="http://www.w3.org/2000/svg" p-id="11097" xmlns:xlink="http://www.w3.org/1999/xlink" width="200" height="200"><defs><style type="text/css"></style></defs><path d="M1015.876 679.646v64.296c0 26.4-21.586 47.988-47.988 47.988H512v-32.304c13.278 0 23.992-10.716 23.992-23.994s-10.714-23.994-23.992-23.994v-31.992h503.876z" fill="#FFFFFF" p-id="11098"></path><path d="M512 711.638c13.278 0 23.992 10.716 23.992 23.994s-10.714 23.994-23.992 23.994-23.994-10.716-23.994-23.994 10.716-23.994 23.994-23.994z" fill="#94C1FF" p-id="11099"></path><path d="M1015.876 743.944v31.68c0 27.026-20.96 47.988-47.988 47.988H56.114c-27.032 0-47.988-20.962-47.988-47.988v-31.68c0 26.4 21.596 47.988 47.988 47.988h911.772c26.404 0 47.99-21.588 47.99-47.988zM615.816 823.612l31.992 143.964H376.19l31.992-143.964h207.634z" fill="#D7E9FF" p-id="11100"></path><path d="M24.518 779.746c-9.958-8.808-16.394-21.526-16.394-35.802v31.68c0 27.026 20.956 47.988 47.988 47.988h15.996c-25.618 0-45.542-18.904-47.59-43.866z" fill="#FFFFFF" p-id="11101"></path><path d="M999.472 779.746c-2.032 24.962-21.96 43.866-47.582 43.866h15.996c27.028 0 47.988-20.962 47.988-47.988v-31.68c0.002 14.276-6.432 26.994-16.402 35.802z" fill="#94C1FF" p-id="11102"></path><path d="M512 759.626v32.304H56.112c-26.392 0-47.988-21.588-47.988-47.988v-64.296H512v31.992c-13.278 0-23.994 10.716-23.994 23.994s10.716 23.994 23.994 23.994z" fill="#FFFFFF" p-id="11103"></path><path d="M1015.876 104.1v575.546H8.124V104.1c0-26.382 21.596-47.988 47.988-47.988h911.774c26.404 0 47.99 21.604 47.99 47.988z m-47.99 527.558V103.788H56.112v527.87h911.774z" fill="#94C1FF" p-id="11104"></path><path d="M72.108 56.112h-15.996c-26.392 0-47.988 21.606-47.988 47.988v575.546h15.996V104.1c0-26.384 21.596-47.988 47.988-47.988z" fill="#D7E9FF" p-id="11105"></path><path d="M967.886 56.112h-15.996c26.402 0 47.988 21.606 47.988 47.988v575.546h15.996V104.1c0.002-26.384-21.584-47.988-47.988-47.988z" fill="#5C9EFF" p-id="11106"></path><path d="M619.378 839.608l-3.562-15.996H408.182l-3.554 15.996h214.75zM603.368 839.608l28.446 127.968h15.996l-28.446-127.968h-15.996z" fill="#94C1FF" p-id="11107"></path><path d="M420.632 839.608l-28.446 127.968h-15.996l28.446-127.968h15.996zM440.018 599.822h143.962v31.992h-143.962z" fill="#FFFFFF" p-id="11108"></path><path d="M512 535.838h39.988v31.992h-79.978v-31.992z" fill="#94C1FF" p-id="11109"></path><path d="M583.98 599.822h-143.962l31.992-31.992h79.978z" fill="#FFFFFF" p-id="11110"></path><path d="M472.01 567.83l-31.992 31.992h15.996l31.992-31.992z" fill="#FFFFFF" p-id="11111"></path><path d="M551.988 567.83l31.992 31.992h-15.996l-31.992-31.992z" fill="" p-id="11112"></path><path d="M512 439.862h23.992l47.988 159.96-31.992-31.992v-31.992H472.01v31.992l-31.992 31.992 47.988-159.96z" fill="#D7E9FF" p-id="11113"></path><path d="M551.988 535.838v10.67l9.14 30.46 22.852 22.854-47.988-159.96h-15.996l28.794 95.976z" fill="#94C1FF" p-id="11114"></path><path d="M472.01 546.508v-10.67h3.202l28.79-95.976h-15.996l-47.988 159.96 22.854-22.854z" fill="#FFFFFF" p-id="11115"></path><path d="M967.886 535.838v95.976H711.95v-95.976h159.96z" fill="#D7E9FF" p-id="11116"></path><path d="M967.886 103.944v431.894h-95.976l-47.988-47.988V103.944z" fill="#5C9EFF" p-id="11117"></path><path d="M653.558 215.916s31.992 63.984-15.996 63.984h-54.05c0.312-2.716 0.468-5.28 0.468-7.998 0-8.482-1.434-16.48-4.152-23.994h57.734l15.996-31.992z" fill="#D7E9FF" p-id="11118"></path><path d="M583.98 271.902c0 2.718-0.156 5.282-0.468 7.998a71.752 71.752 0 0 1-31.524 51.832v28.148h-79.978v-28.148c-17.112-11.53-29.11-30.244-31.516-51.832a69.802 69.802 0 0 1 3.678-31.836c1.922-5.764 4.64-11.2 7.998-16.152 12.958-19.354 34.876-31.992 59.83-31.992 24.96 0 47.02 12.638 59.828 31.992 3.36 4.954 6.078 10.232 8 15.996 2.718 7.514 4.152 15.512 4.152 23.994z" fill="#FFFFFF" p-id="11119"></path><path d="M571.828 231.912C559.02 212.558 536.96 199.92 512 199.92c-24.954 0-46.872 12.638-59.83 31.992C456.014 167.928 512 151.932 512 151.932s55.984 15.996 59.828 79.98z" fill="#94C1FF" p-id="11120"></path><path d="M519.996 155.072c-4.808-2.204-7.996-3.14-7.996-3.14s-55.986 15.996-59.83 79.98a72.36 72.36 0 0 1 19.098-19.292c9.146-35.21 35.382-51.44 48.728-57.548z" fill="#D7E9FF" p-id="11121"></path><path d="M502.112 155.072c4.81-2.204 7.998-3.14 7.998-3.14s55.988 15.996 59.828 79.98c-5.09-7.608-11.606-14.122-19.102-19.292-9.14-35.21-35.376-51.44-48.724-57.548z" fill="#5C9EFF" p-id="11122"></path><path d="M823.922 487.85V103.944H216.074v383.906l-53.268 47.988h149.244v95.976h127.968v-31.992l47.988-159.96H535.992l47.988 159.96v31.992h127.968v-95.976h159.96l-47.986-47.988z m-186.36-207.95h-54.05a71.752 71.752 0 0 1-31.524 51.832v28.148h-79.978v-28.148c-17.112-11.53-29.11-30.244-31.516-51.832h-0.156-53.744c-47.988 0-15.996-63.984-15.996-63.984l15.996 31.992h57.102l0.476 0.156c1.922-5.764 4.64-11.2 7.998-16.152C456.014 167.928 512 151.932 512 151.932s55.984 15.996 59.828 79.98c3.36 4.954 6.078 10.232 8 15.996h57.734l15.996-31.992s31.992 63.984-15.996 63.984z" fill="#5C9EFF" p-id="11123"></path><path d="M443.696 247.908l0.476 0.156a69.802 69.802 0 0 0-3.678 31.836h-0.156-53.744c-47.988 0-15.996-63.984-15.996-63.984l15.996 31.992h57.102z" fill="#D7E9FF" p-id="11124"></path><path d="M312.05 583.826v47.988H120.096l47.988-47.988h47.99z" fill="#FFFFFF" p-id="11125"></path><path d="M312.05 535.838v47.988h-95.976l47.988-47.988z" fill="#FFFFFF" p-id="11126"></path><path d="M264.062 535.838l-47.988 47.988H56.112v-47.988h106.692z" fill="#5C9EFF" p-id="11127"></path><path d="M216.074 103.944v383.906l-53.27 47.988H56.112V103.944z" fill="#5C9EFF" p-id="11128"></path><path d="M168.084 583.826l-47.988 47.988H56.112v-47.988z" fill="#5C9EFF" p-id="11129"></path><path d="M583.98 599.822v31.992h127.97v-95.976h159.96l-47.988-47.988H550.398zM264.062 535.838h47.988v95.976h127.968v-31.992l33.594-111.972H216.074l-53.27 47.988z" fill="#94C1FF" p-id="11130"></path><path d="M248.066 551.834H56.112v-15.996h207.95z" fill="#94C1FF" p-id="11131"></path><path d="M146.808 599.822H56.144v-15.996h106.66z" fill="#94C1FF" p-id="11132"></path><path d="M440.018 599.822h15.996v31.992h-15.996z" fill="#FFFFFF" p-id="11133"></path><path d="M567.984 599.822h15.996v31.992h-15.996z" fill="" p-id="11134"></path><path d="M711.95 535.838h15.996v95.976h-15.996z" fill="#FFFFFF" p-id="11135"></path><path d="M951.89 535.838h15.996v95.976h-15.996z" fill="#94C1FF" p-id="11136"></path><path d="M744.442 575.828c-4.402 0-8.058-3.578-8.058-7.998s3.5-7.998 7.902-7.998h0.156c4.438 0 8 3.578 8 7.998s-3.564 7.998-8 7.998zM744.442 607.82c-4.402 0-8.058-3.578-8.058-7.998s3.5-7.998 7.902-7.998h0.156c4.438 0 8 3.578 8 7.998s-3.564 7.998-8 7.998zM856.414 575.828c-4.402 0-8.058-3.578-8.058-7.998s3.5-7.998 7.902-7.998h0.156c4.438 0 8 3.578 8 7.998s-3.562 7.998-8 7.998zM856.414 607.82c-4.402 0-8.058-3.578-8.058-7.998s3.5-7.998 7.902-7.998h0.156c4.438 0 8 3.578 8 7.998s-3.562 7.998-8 7.998zM488.522 271.902c-4.414 0-8.076-3.576-8.076-7.998 0-4.42 3.5-7.998 7.92-7.998h0.156a7.994 7.994 0 0 1 7.998 7.998 7.994 7.994 0 0 1-7.998 7.998zM536.492 271.902c-4.402 0-8.058-3.576-8.058-7.998 0-4.42 3.5-7.998 7.902-7.998h0.156c4.438 0 8 3.578 8 7.998a7.984 7.984 0 0 1-8 7.998zM504.518 319.89c-4.414 0-8.076-3.576-8.076-7.998 0-4.42 3.5-7.998 7.92-7.998h0.156c4.42 0 8 3.578 8 7.998a7.996 7.996 0 0 1-8 7.998z" fill="#116FFF" p-id="11137"></path><path d="M520.512 319.89c-4.41 0-8.074-3.576-8.074-7.998 0-4.42 3.5-7.998 7.916-7.998h0.156c4.422 0 8 3.578 8 7.998a7.99 7.99 0 0 1-7.998 7.998zM1015.876 687.8H8.124c-4.42 0-7.998-3.578-7.998-7.998s3.578-7.998 7.998-7.998h1007.75c4.422 0 8 3.578 8 7.998s-3.578 7.998-7.998 7.998zM512 767.782c-17.644 0-31.992-14.356-31.992-31.992s14.348-31.992 31.992-31.992c17.652 0 31.992 14.356 31.992 31.992s-14.34 31.992-31.992 31.992z m0-47.99c-8.818 0-15.996 7.17-15.996 15.996s7.178 15.996 15.996 15.996c8.816 0 15.996-7.17 15.996-15.996s-7.18-15.996-15.996-15.996zM376.198 975.73a8.01 8.01 0 0 1-7.818-9.732l31.992-143.964c0.96-4.31 5.288-6.952 9.544-6.076a8.012 8.012 0 0 1 6.078 9.542L384 969.464a8 8 0 0 1-7.802 6.266zM647.964 975.73a8.002 8.002 0 0 1-7.808-6.266l-31.992-143.964a8.01 8.01 0 0 1 6.078-9.542c4.324-0.876 8.59 1.766 9.542 6.076l31.992 143.964a8.012 8.012 0 0 1-7.812 9.732z" fill="#116FFF" p-id="11138"></path><path d="M671.96 975.73H352.04a7.994 7.994 0 0 1-7.998-7.998 7.992 7.992 0 0 1 7.998-7.998h319.92a7.99 7.99 0 0 1 7.996 7.998 7.99 7.99 0 0 1-7.996 7.998zM967.886 543.836a7.994 7.994 0 0 1-7.996-7.998V111.942H64.11v423.896c0 4.42-3.578 7.998-7.998 7.998s-7.998-3.578-7.998-7.998V103.944a7.994 7.994 0 0 1 7.998-7.998h911.774c4.422 0 8 3.578 8 7.998v431.894a7.994 7.994 0 0 1-8 7.998zM440.018 639.812h-127.968c-4.422 0-7.998-3.578-7.998-7.998s3.576-7.998 7.998-7.998h127.968c4.42 0 7.998 3.578 7.998 7.998s-3.578 7.998-7.998 7.998zM711.95 639.812H583.98c-4.418 0-7.996-3.578-7.996-7.998s3.578-7.998 7.996-7.998h127.968c4.422 0 8 3.578 8 7.998s-3.576 7.998-7.998 7.998z" fill="#116FFF" p-id="11139"></path><path d="M967.886 800.086H56.112c-30.868 0-55.986-25.12-55.986-55.986v-0.156V104.256c0-30.868 25.12-55.986 55.986-55.986h911.774c30.868 0 55.988 25.12 55.988 55.986V744.1c0.002 30.866-25.12 55.986-55.988 55.986zM16.122 743.944v0.156c0 22.056 17.942 39.99 39.99 39.99h911.774c22.058 0 39.992-17.934 39.992-39.99V104.256c0-22.042-17.934-39.99-39.992-39.99H56.112c-22.048 0-39.99 17.95-39.99 39.99v639.688z" fill="#116FFF" p-id="11140"></path><path d="M967.886 831.766H56.112c-31.39 0-55.986-24.588-55.986-55.986v-31.68c0-4.42 3.578-8.154 7.998-8.154s7.998 3.422 7.998 7.842v31.992c0 22.792 17.192 39.99 39.99 39.99h911.774c22.808 0 39.992-17.2 39.992-39.99v-31.68a7.994 7.994 0 0 1 7.996-7.998c4.422 0 8 3.578 8 7.998v31.68c0.002 31.398-24.588 55.986-55.988 55.986zM583.98 639.812h-143.962a7.994 7.994 0 0 1-7.998-7.998v-31.992a7.994 7.994 0 0 1 7.998-7.998 7.994 7.994 0 0 1 7.998 7.998v23.994h127.968v-23.994a7.994 7.994 0 0 1 7.996-7.998c4.422 0 8 3.578 8 7.998v31.992a7.994 7.994 0 0 1-8 7.998z" fill="#116FFF" p-id="11141"></path><path d="M583.98 607.82h-143.962a8.04 8.04 0 0 1-6.42-3.218 8.016 8.016 0 0 1-1.242-7.076l47.988-159.96a8 8 0 0 1 7.662-5.702h47.986a7.972 7.972 0 0 1 7.656 5.702l47.988 159.96a7.96 7.96 0 0 1-1.234 7.076 8.04 8.04 0 0 1-6.422 3.218z m-133.216-15.996h122.47l-43.192-143.964h-36.084l-43.194 143.964z" fill="#116FFF" p-id="11142"></path><path d="M512 463.856a7.994 7.994 0 0 1-7.998-7.998v-31.992a7.994 7.994 0 0 1 7.998-7.998 7.992 7.992 0 0 1 7.996 7.998v31.992a7.992 7.992 0 0 1-7.996 7.998zM551.988 575.828h-79.978a7.994 7.994 0 0 1-7.998-7.998v-31.992a7.994 7.994 0 0 1 7.998-7.998h79.978c4.422 0 8 3.578 8 7.998v31.992a7.994 7.994 0 0 1-8 7.998z m-71.98-15.996h63.984v-15.996h-63.984v15.996z" fill="#116FFF" p-id="11143"></path><path d="M512 559.832a7.994 7.994 0 0 1-7.998-7.998v-15.996A7.994 7.994 0 0 1 512 527.84a7.992 7.992 0 0 1 7.996 7.998v15.996a7.992 7.992 0 0 1-7.996 7.998zM440.018 607.82a7.994 7.994 0 0 1-5.656-13.652l31.992-31.992a7.996 7.996 0 1 1 11.31 11.308l-31.992 31.992a7.964 7.964 0 0 1-5.654 2.344zM583.98 607.82a7.974 7.974 0 0 1-5.652-2.344l-31.992-31.992a7.994 7.994 0 0 1 0-11.308 7.994 7.994 0 0 1 11.308 0l31.992 31.992a7.994 7.994 0 0 1-5.656 13.652zM551.988 367.878h-79.978a7.994 7.994 0 0 1-7.998-7.998v-24.04c-17.628-13.278-29.026-33.118-31.47-55.064a77.762 77.762 0 0 1 4.108-35.428c2.062-6.188 5.078-12.28 8.896-17.918a79.844 79.844 0 0 1 66.452-35.508c26.898 0 51.77 13.294 66.5 35.57 3.89 5.748 6.824 11.622 8.918 17.886 3 8.308 4.562 17.292 4.562 26.524 0 3.032-0.172 5.888-0.532 8.936a79.628 79.628 0 0 1-31.46 55.034v24.01a7.99 7.99 0 0 1-7.998 7.996z m-71.98-15.996h63.984v-20.15a8.02 8.02 0 0 1 3.562-6.656c15.7-10.48 25.898-27.258 27.992-46.066 0.296-2.452 0.438-4.716 0.438-7.108 0-7.374-1.234-14.528-3.688-21.276-1.688-5.044-3.968-9.638-7.09-14.23-11.812-17.856-31.68-28.478-53.208-28.478-21.378 0-41.254 10.624-53.182 28.448a58.446 58.446 0 0 0-7.06 14.23 62.246 62.246 0 0 0-3.74 21.306c0 2.39 0.14 4.656 0.42 7.06 2.084 18.746 12.31 35.54 28.04 46.128a7.984 7.984 0 0 1 3.53 6.64v20.152zM535.992 399.872h-47.986a7.994 7.994 0 0 1-7.998-7.998 7.994 7.994 0 0 1 7.998-7.998h47.986c4.422 0 8 3.578 8 7.998a7.994 7.994 0 0 1-8 7.998z" fill="#116FFF" p-id="11144"></path><path d="M488.006 375.876a7.994 7.994 0 0 1-7.998-7.998v-7.998c0-4.42 3.578-7.998 7.998-7.998s7.998 3.578 7.998 7.998v7.998a7.994 7.994 0 0 1-7.998 7.998zM535.992 375.876a7.992 7.992 0 0 1-7.996-7.998v-7.998a7.994 7.994 0 0 1 7.996-7.998c4.422 0 8 3.578 8 7.998v7.998a7.994 7.994 0 0 1-8 7.998zM504.002 399.872a7.994 7.994 0 0 1-7.998-7.998v-7.998c0-4.42 3.578-7.998 7.998-7.998s7.998 3.578 7.998 7.998v7.998a7.994 7.994 0 0 1-7.998 7.998z" fill="#116FFF" p-id="11145"></path><path d="M519.996 399.872a7.992 7.992 0 0 1-7.996-7.998v-7.998a7.994 7.994 0 0 1 7.996-7.998c4.422 0 8 3.578 8 7.998v7.998a7.994 7.994 0 0 1-8 7.998zM637.562 287.898h-54.05a7.982 7.982 0 0 1-7.996-7.998 7.984 7.984 0 0 1 7.996-7.998h54.05c12.106 0 15.028-4.732 15.996-6.28 4.156-6.702 2.5-18.934-0.876-30.086l-7.964 15.95a8 8 0 0 1-7.156 4.42h-57.578c-4.422 0-8-3.576-8-7.998a7.994 7.994 0 0 1 8-7.998h52.64l13.782-27.57c2.714-5.422 11.59-5.422 14.308 0 2.042 4.076 19.554 40.474 6.464 61.688-3.92 6.326-12.228 13.87-29.616 13.87zM440.338 287.898h-53.744c-17.378 0-25.69-7.544-29.602-13.872-13.106-21.212 4.414-57.612 6.452-61.688 2.718-5.422 11.592-5.422 14.31 0l13.786 27.57h52.158a7.994 7.994 0 0 1 7.998 7.998 7.992 7.992 0 0 1-7.998 7.998h-57.102a8.02 8.02 0 0 1-7.156-4.42l-7.966-15.95c-3.358 11.152-5.014 23.384-0.866 30.086 0.96 1.546 3.89 6.28 15.988 6.28h53.744a7.994 7.994 0 0 1 7.998 7.998 7.996 7.996 0 0 1-8 8zM571.828 239.91a8 8 0 0 1-7.98-7.53c-3.454-57.298-52.004-72.17-54.066-72.764-4.234-1.25-6.678-5.67-5.452-9.902 1.234-4.234 5.624-6.624 9.866-5.484 0.618 0.188 61.476 18.356 65.618 87.198a8.002 8.002 0 0 1-7.516 8.466c-0.158 0-0.314 0.016-0.47 0.016z" fill="#116FFF" p-id="11146"></path><path d="M452.178 239.91c-0.164 0-0.32-0.016-0.484-0.016a8.002 8.002 0 0 1-7.506-8.466c4.132-68.842 65-87.01 65.618-87.198 4.21-1.172 8.64 1.234 9.862 5.484a8.01 8.01 0 0 1-5.45 9.902c-2.062 0.594-50.62 15.464-54.066 72.764a8 8 0 0 1-7.974 7.53zM216.074 495.848a7.994 7.994 0 0 1-7.998-7.998V103.944a7.994 7.994 0 0 1 7.998-7.998 7.994 7.994 0 0 1 7.998 7.998v383.906a7.994 7.994 0 0 1-7.998 7.998z" fill="#116FFF" p-id="11147"></path><path d="M446.416 495.848H216.074c-4.42 0-7.998-3.578-7.998-7.998s3.578-7.998 7.998-7.998h230.342c4.42 0 7.998 3.578 7.998 7.998s-3.58 7.998-7.998 7.998zM823.922 495.848H577.578c-4.406 0-8-3.578-8-7.998s3.594-7.998 8-7.998h246.344c4.422 0 8 3.578 8 7.998s-3.578 7.998-8 7.998z" fill="#116FFF" p-id="11148"></path><path d="M823.922 495.848a7.994 7.994 0 0 1-7.996-7.998V103.944a7.994 7.994 0 0 1 7.996-7.998c4.422 0 8 3.578 8 7.998v383.906a7.994 7.994 0 0 1-8 7.998zM162.804 543.836a7.992 7.992 0 0 1-5.35-13.932l53.268-48.004a7.986 7.986 0 0 1 11.294 0.594 7.988 7.988 0 0 1-0.594 11.292l-53.268 47.988a7.888 7.888 0 0 1-5.35 2.062z" fill="#116FFF" p-id="11149"></path><path d="M871.91 543.836a7.968 7.968 0 0 1-5.652-2.344l-47.988-47.988a7.994 7.994 0 0 1 0-11.308 7.994 7.994 0 0 1 11.308 0l47.988 47.988a7.994 7.994 0 0 1-5.656 13.652zM312.05 639.812H56.112a7.994 7.994 0 0 1-7.998-7.998v-95.976a7.994 7.994 0 0 1 7.998-7.998h255.938a7.994 7.994 0 0 1 7.998 7.998v95.976a7.994 7.994 0 0 1-7.998 7.998z m-247.94-15.996h239.942v-79.98H64.11v79.98z" fill="#116FFF" p-id="11150"></path><path d="M967.886 639.812H711.95a7.994 7.994 0 0 1-7.996-7.998v-95.976a7.994 7.994 0 0 1 7.996-7.998h255.938c4.422 0 8 3.578 8 7.998v95.976a7.998 7.998 0 0 1-8.002 7.998z m-247.936-15.996h239.942v-79.98H719.95v79.98zM312.05 591.824H56.112c-4.42 0-7.998-3.578-7.998-7.998s3.578-7.998 7.998-7.998h255.938c4.42 0 7.998 3.578 7.998 7.998s-3.578 7.998-7.998 7.998z" fill="#116FFF" p-id="11151"></path><path d="M216.074 591.824a7.994 7.994 0 0 1-5.656-13.652l47.988-47.988a7.996 7.996 0 1 1 11.31 11.308l-47.988 47.988a7.972 7.972 0 0 1-5.654 2.344zM120.096 639.812a7.994 7.994 0 0 1-5.654-13.652l47.988-47.988a7.996 7.996 0 1 1 11.31 11.308l-47.988 47.988a7.964 7.964 0 0 1-5.656 2.344zM823.922 575.828h-47.988c-4.418 0-7.996-3.578-7.996-7.998s3.578-7.998 7.996-7.998h47.988c4.422 0 8 3.578 8 7.998s-3.578 7.998-8 7.998zM823.922 607.82h-47.988c-4.418 0-7.996-3.578-7.996-7.998s3.578-7.998 7.996-7.998h47.988c4.422 0 8 3.578 8 7.998s-3.578 7.998-8 7.998zM935.894 575.828h-47.988c-4.418 0-7.996-3.578-7.996-7.998s3.578-7.998 7.996-7.998h47.988c4.422 0 8 3.578 8 7.998s-3.578 7.998-8 7.998zM935.894 607.82h-47.988c-4.418 0-7.996-3.578-7.996-7.998s3.578-7.998 7.996-7.998h47.988c4.422 0 8 3.578 8 7.998s-3.578 7.998-8 7.998z" fill="#116FFF" p-id="11152"></path></svg>