<?xml version="1.0" standalone="no"?><!DOCTYPE svg PUBLIC "-//W3C//DTD SVG 1.1//EN" "http://www.w3.org/Graphics/SVG/1.1/DTD/svg11.dtd"><svg t="1591177564805" class="icon" viewBox="0 0 1024 1024" version="1.1" xmlns="http://www.w3.org/2000/svg" p-id="14422" xmlns:xlink="http://www.w3.org/1999/xlink" width="200" height="200"><defs><style type="text/css"></style></defs><path d="M614.383499 397.349245l-13.544899-13.14652c9.162726-9.561105 15.935175-21.114107 19.52059-33.463867 1.593517-6.37407 2.788656-12.349761 3.187035-19.12221 0.398379-3.187035-0.398379-6.772449-0.39838-9.959484 0-1.593517-0.398379-3.187035-0.796758-4.780553-0.398379-1.593517-0.398379-3.187035-0.796759-4.780552-2.788656-12.349761-8.365967-24.301142-16.731934-34.659006-1.195138-1.195138-2.390276-2.390276-3.187035-3.585414-0.398379-0.796759-1.195138-1.195138-1.593517-1.991897l-1.991897-1.593518-3.585415-3.585414c-1.195138-0.796759-2.788656-1.991897-3.983793-2.788656-2.390276-2.390276-5.577311-3.585414-7.967588-5.178932-1.195138-0.796759-2.788656-1.195138-4.382173-1.991896l-1.991897-1.195139c-0.796759-0.398379-1.593517-0.796759-2.390276-0.796758-3.187035-0.796759-5.975691-2.390276-9.162726-2.788656l-4.780552-1.195138c-1.593517 0-3.187035-0.398379-4.780553-0.398379-3.187035-0.796759-6.37407-0.398379-9.959484-0.796759-1.593517-0.398379-3.187035 0-4.780552 0h-4.780553c-13.146519 1.195138-25.097901 5.577311-36.252523 12.74814-10.756243 7.569208-19.918969 17.528692-25.894659 28.683315-5.975691 11.553002-9.162726 23.902762-9.162726 37.447661h-19.12221c0.398379-16.333554 4.382173-31.87035 11.553002-46.212007 7.569208-14.341657 19.12221-26.293039 32.268729-35.854144 13.544899-8.764346 28.683315-14.341657 44.61849-16.333554 16.333554-1.593517 32.667109 0.796759 47.407146 6.772449 0.796759 0.398379 1.991897 0.796759 2.788655 1.195138l2.788656 1.195138c1.593517 0.796759 3.585414 1.593517 5.577311 2.788656 3.187035 2.390276 7.170829 3.983794 9.959485 6.772449l4.780552 3.585414c1.593517 1.593517 2.788656 2.788656 4.382173 3.983794l2.390276 1.991897c0.796759 0.796759 1.195138 1.593517 1.991897 2.390276 1.195138 1.593517 2.788656 3.187035 3.983794 4.382173 10.357864 12.74814 17.130313 27.488177 20.715727 43.024973l0.796759 5.97569c0.398379 1.991897 0.796759 3.983794 0.796759 5.975691 0 3.983794 0.796759 7.967587 0.398379 12.349761 0 8.365967-1.593517 15.935175-3.983793 23.902762-3.983794 15.138416-12.349761 29.480074-23.902763 41.033076z" fill="#d4237a" p-id="14423"></path><path d="M628.326777 410.894143l-13.544898-13.146519c11.154622-11.553002 19.520589-25.894659 23.902762-41.431455 1.991897-7.569208 3.585414-15.536796 3.983794-23.902762 0.398379-3.983794-0.398379-7.967587-0.39838-12.349761 0-1.991897-0.398379-3.983794-0.796758-5.975691l-0.796759-5.97569c-3.585414-15.536796-10.357864-30.276832-20.715728-43.024973-1.593517-1.593517-2.788656-2.788656-3.983793-4.382173-0.796759-0.796759-1.195138-1.593517-1.991897-2.390276l-2.390276-1.991897c-1.593517-1.195138-3.187035-2.788656-4.382174-3.983794l-4.780552-3.585414c-3.187035-2.788656-6.772449-4.382173-9.959484-6.772449-1.593517-1.195138-3.585414-1.593517-5.577312-2.788656l-2.788655-1.195138c-0.796759-0.398379-1.593517-0.796759-2.788656-1.195138-14.740037-5.975691-31.073591-8.365967-47.407145-6.772449-15.935175 1.991897-31.073591 7.569208-44.61849 16.333554-13.146519 9.162726-24.699521 21.512486-32.26873 35.854144-7.170829 14.341657-11.154622 29.878453-11.553001 46.212007h-19.12221c0.398379-19.520589 5.178932-38.24442 13.943278-55.374733 9.162726-16.731934 22.707624-31.471971 38.24442-42.626593 16.333554-10.357864 34.260626-17.130313 53.382836-19.520589 19.520589-1.593517 39.041179 1.195138 56.569871 7.967587 1.195138 0.398379 2.390276 0.796759 3.187035 1.593518l3.187035 1.593517c1.991897 1.195138 4.382173 1.991897 6.37407 3.187035 3.983794 2.788656 8.365967 4.780552 11.951381 7.967588l5.975691 4.382173c1.593517 1.593517 3.585414 3.187035 5.178931 4.780552l2.788656 2.390276c0.796759 0.796759 1.593517 1.991897 2.390276 2.788656 1.593517 1.991897 3.187035 3.585414 4.780553 5.178932 12.349761 14.740037 20.715727 32.667109 25.0979 51.390939l1.195139 7.170829c0.398379 2.390276 1.195138 4.780552 0.796758 7.170829 0 4.780552 0.796759 9.561105 0.39838 14.740036-0.398379 9.561105-1.991897 19.12221-4.382173 28.284936-5.577311 18.325451-15.536796 35.455764-29.081695 49.399042z" fill="#d4237a" p-id="14424"></path><path d="M641.871676 424.040663l-13.544899-13.14652c13.544899-13.943278 23.504383-31.073591 28.683315-49.399042 2.390276-9.162726 4.382173-18.723831 4.382173-28.284936 0.398379-4.780552-0.398379-9.561105-0.398379-14.740036 0-2.390276-0.796759-4.780552-0.796759-7.170829l-1.195138-7.170829c-4.382173-18.723831-12.74814-36.252523-25.097901-51.390939-1.593517-1.593517-3.187035-3.585414-4.780552-5.178932-0.796759-0.796759-1.593517-1.991897-2.390276-2.788656l-2.788656-2.390276c-1.991897-1.593517-3.585414-3.187035-5.178932-4.780552l-5.97569-4.382173c-3.585414-3.187035-7.967587-5.178932-11.951382-7.967588-1.991897-1.195138-4.382173-1.991897-6.37407-3.187035l-3.187035-1.593517c-1.195138-0.398379-1.991897-1.195138-3.187035-1.593518-17.927072-7.170829-37.049282-9.959484-56.569871-7.967587-19.12221 2.390276-37.447661 8.764346-53.382836 19.520589-15.935175 11.154622-29.081694 25.49628-38.24442 42.626593-8.764346 17.130313-13.544899 35.854144-13.943278 55.374733H406.827845c0.398379-22.707624 5.975691-44.61849 15.935175-64.537459 10.756243-19.520589 26.293039-36.650902 44.61849-49.399042 18.723831-12.349761 40.236317-19.918969 62.147182-22.707624 22.309245-1.991897 45.016869 1.195138 65.732597 9.561105 1.195138 0.398379 2.788656 0.796759 3.983794 1.593517l3.585414 1.991897c2.390276 1.195138 5.178932 1.991897 7.569208 3.585414 4.780552 3.187035 9.959484 5.577311 13.943278 9.162726l6.77245 5.178932c1.991897 1.991897 3.983794 3.983794 6.37407 5.577311l3.187035 2.788656c0.796759 1.195138 1.991897 1.991897 2.788655 3.187035 1.991897 1.991897 3.585414 3.983794 5.577312 6.37407 14.341657 17.130313 24.301142 37.846041 29.081694 59.756906l1.195138 8.365967c0.398379 2.788656 1.195138 5.577311 1.195138 8.365966 0 5.577311 0.796759 11.154622 0.39838 16.731934-0.398379 11.154622-2.390276 22.309245-5.178932 33.065488-6.37407 21.114107-18.325451 41.033076-33.862247 56.968251z" fill="#d4237a" p-id="14425"></path><path d="M655.814954 437.585561l-13.544899-13.146519c15.536796-16.333554 27.089797-35.854144 33.463868-57.36663 3.187035-10.756243 5.178932-21.910866 5.178932-33.065488 0.398379-5.577311-0.398379-11.154622-0.39838-16.731934 0-2.788656-0.796759-5.577311-1.195138-8.365966l-1.195138-8.365967c-4.780552-21.910866-14.740037-42.228214-29.081694-59.756906-1.991897-1.991897-3.983794-3.983794-5.577312-6.37407-0.796759-1.195138-1.991897-1.991897-2.788655-3.187035l-3.187035-2.788656c-1.991897-1.991897-3.983794-3.585414-6.37407-5.577311l-6.77245-5.178932c-4.382173-3.585414-9.561105-5.975691-13.943278-9.162726-2.390276-1.593517-5.178932-2.390276-7.569208-3.585414l-3.585414-1.991897c-1.195138-0.796759-2.390276-1.195138-3.983794-1.593517-20.715727-8.365967-43.423352-11.553002-65.732597-9.561105-22.309245 2.390276-43.423352 10.357864-62.147182 22.707624-18.325451 12.74814-33.862247 29.878453-44.61849 49.399042-10.357864 19.918969-15.935175 41.829834-15.935175 64.537459h-19.12221c0.398379-25.49628 6.772449-50.594181 18.325452-73.301805 11.951381-22.309245 29.878453-41.829834 50.59418-56.171492 21.512486-13.943278 45.813628-22.707624 70.911529-25.894659 25.49628-2.390276 51.390939 1.195138 74.895322 10.756243 1.593517 0.398379 2.788656 1.195138 4.382173 1.991897l4.382173 1.991897c2.788656 1.593517 5.975691 2.390276 8.365967 4.382173 5.178932 3.585414 11.154622 6.37407 15.935175 10.357864l7.569208 5.577311 7.170829 6.37407 3.585414 3.187035c1.195138 1.195138 1.991897 2.390276 3.187035 3.585414l6.37407 7.170829c16.333554 19.520589 27.488177 43.024972 33.065488 68.122873 0.398379 3.187035 0.796759 6.37407 1.593518 9.561105 0.398379 3.187035 1.195138 6.37407 1.195138 9.561105 0 6.37407 0.796759 12.74814 0.398379 19.12221-0.398379 12.74814-2.390276 25.49628-5.97569 37.447661-6.772449 24.301142-20.317348 46.610387-37.846041 65.334217z" fill="#d4237a" p-id="14426"></path><path d="M669.359853 450.732081l-13.544899-13.14652c17.927072-18.325451 31.073591-41.033076 38.24442-65.334217 3.585414-12.349761 5.577311-24.699521 5.975691-37.447661 0.398379-6.37407-0.398379-12.74814-0.39838-19.12221 0-3.187035-0.796759-6.37407-1.195138-9.561105-0.398379-3.187035-0.796759-6.37407-1.593517-9.561105-5.577311-24.699521-16.731934-48.203904-33.065488-68.122873l-6.37407-7.170829c-1.195138-1.195138-1.991897-2.390276-3.187035-3.585414l-3.585415-3.187035-7.170829-6.37407-7.569208-5.577311c-4.780552-3.983794-10.756243-6.772449-15.935175-10.357864-2.788656-1.593517-5.577311-2.788656-8.365966-4.382173l-4.382174-1.991897c-1.593517-0.796759-2.788656-1.593517-4.382173-1.991897-23.504383-9.561105-49.399042-13.146519-74.895322-10.756243-25.49628 2.788656-49.797422 11.951381-70.911529 25.894659-20.715727 14.341657-38.642799 33.862247-50.59418 56.171492-11.553002 22.707624-17.927072 47.805525-18.325451 73.301805h-19.12221c0.398379-28.683315 7.170829-56.96825 20.715727-82.46453 13.544899-25.097901 33.463867-47.008766 56.968251-62.943942 23.902762-15.536796 51.390939-25.894659 79.675874-29.081694 28.683315-2.788656 57.765009 1.593517 84.058048 11.951381 1.593517 0.398379 3.187035 1.195138 4.780553 1.991897l4.780552 2.390276c3.187035 1.593517 6.37407 2.788656 9.561105 4.780553 5.975691 3.983794 12.349761 7.170829 17.927072 11.553002l8.764346 6.37407 7.967588 7.170829 3.983794 3.585414c1.195138 1.195138 2.390276 2.788656 3.585414 3.983794l7.170829 7.967587c18.325451 21.910866 31.073591 48.602284 37.049282 76.48884 0.796759 3.585414 1.195138 7.170829 1.593517 10.756243 0.398379 3.585414 1.195138 7.170829 1.195138 10.756243 0.398379 7.170829 1.195138 14.341657 0.398379 21.512486-0.398379 14.341657-2.788656 28.683315-6.772449 42.228214-7.967587 27.488177-23.106004 52.586077-43.024972 73.301805z" fill="#d4237a" p-id="14427"></path><path d="M682.904751 463.8786l-13.544898-13.146519c19.918969-20.715727 34.659006-45.813628 42.626593-73.301805 3.983794-13.544899 6.37407-27.886556 6.772449-42.228214 0.398379-7.170829-0.398379-14.341657-0.398379-21.512486 0-3.585414-0.796759-7.170829-1.195138-10.756243-0.398379-3.585414-1.195138-7.170829-1.593518-10.756243-5.975691-27.886556-18.723831-54.179595-37.049282-76.48884l-7.170828-7.967587c-1.195138-1.195138-2.390276-2.788656-3.585415-3.983794l-3.983793-3.585414-7.967588-7.170829-8.764346-6.37407c-5.577311-4.780552-11.951381-7.967587-17.927072-11.553002-3.187035-1.991897-6.37407-3.187035-9.561105-4.780553l-4.780552-2.390276c-1.593517-0.796759-3.187035-1.593517-4.780553-1.991897-26.691418-10.756243-55.374733-14.740037-84.058048-11.951381-28.284936 3.187035-55.773112 13.146519-79.675875 29.081694C422.76302 199.354696 402.844052 220.867182 389.299153 245.965083c-13.146519 25.49628-20.317348 53.781215-20.715728 82.46453h-19.12221c0.398379-31.87035 7.967587-63.34232 22.707625-91.228877 15.138416-27.886556 37.049282-51.789319 62.943941-70.11477 26.293039-17.528692 56.96825-28.683315 88.440221-32.268729 31.471971-3.187035 63.7407 1.593517 93.220773 13.14652 1.991897 0.796759 3.585414 1.593517 5.577312 2.390276l5.178931 2.390276c3.585414 1.991897 7.170829 3.187035 10.756244 5.178932 6.772449 4.382173 13.943278 7.967587 19.918968 12.74814l9.561105 7.170829 8.764346 7.967587 4.382174 3.983794c1.195138 1.593517 2.788656 2.788656 3.983793 4.382173l7.967588 8.764346c20.317348 24.301142 34.260626 53.781215 41.033075 84.854807 0.796759 3.983794 1.195138 7.967587 1.991897 11.553002 0.398379 3.983794 1.593517 7.967587 1.593518 11.951381 0.398379 7.967587 1.195138 15.935175 0.796758 23.902762-0.398379 15.935175-3.187035 31.471971-7.569208 47.008766-9.162726 31.073591-25.49628 58.960147-47.805525 81.667772z" fill="#d4237a" p-id="14428"></path><path d="M696.84803 477.423499l-13.544899-13.14652c21.910866-22.707624 38.642799-50.99256 47.407145-81.269392 4.382173-15.138416 7.170829-31.073591 7.569208-47.008766 0.398379-7.967587-0.398379-15.935175-0.796758-23.902762 0-3.983794-0.796759-7.967587-1.593518-11.951382s-1.195138-7.967587-1.991897-11.553001c-6.772449-31.073591-20.715727-60.155285-41.033075-84.854807l-7.967588-8.764346c-1.195138-1.593517-2.788656-2.788656-3.983793-4.382173l-4.382174-3.983794-8.764346-7.967588-9.561105-7.170828c-5.975691-5.178932-13.146519-8.764346-19.918968-12.74814-3.187035-1.991897-7.170829-3.585414-10.756244-5.178932l-5.178931-2.390277c-1.593517-0.796759-3.585414-1.593517-5.577312-2.390276-29.480074-11.553002-61.748803-16.333554-93.220773-13.146519-31.471971 3.585414-62.147182 14.740037-88.440221 32.268729-25.894659 17.130313-48.203904 41.431455-62.943941 69.318011-14.740037 28.284936-22.707624 59.756906-22.707625 91.228877h-19.12221c0-34.659006 8.764346-69.318011 24.699522-100.391602 16.333554-30.675212 40.634696-56.96825 69.318011-76.88722 29.081694-19.12221 62.545562-31.471971 97.204567-35.455764 34.659006-3.187035 70.11477 1.593517 102.383499 14.740037l5.975691 2.390276 5.97569 2.788656c3.983794 1.991897 7.967587 3.585414 11.553002 5.975691 7.170829 4.780552 15.138416 8.764346 21.910866 14.341657 3.585414 2.788656 7.170829 5.178932 10.357863 7.967587l9.561105 8.764347 4.780553 4.382173c1.593517 1.593517 2.788656 3.187035 4.382173 4.780552l8.764346 9.561105c22.309245 26.691418 37.846041 58.960147 45.01687 93.220774 0.796759 4.382173 1.195138 8.764346 1.991896 12.74814 0.398379 4.382173 1.593517 8.764346 1.593518 13.146519 0.398379 8.764346 1.195138 17.528692 0.796759 25.894659-0.398379 17.528692-3.585414 34.659006-8.365967 51.39094-9.162726 33.862247-27.089797 64.537459-51.390939 89.635359z" fill="#d4237a" p-id="14429"></path><path d="M710.392928 490.570018l-13.544898-13.146519c24.301142-25.097901 42.228214-55.773112 52.187698-89.23698 4.780552-16.731934 7.569208-33.862247 8.365966-51.390939 0.398379-8.764346-0.398379-17.528692-0.796758-25.89466 0-4.382173-1.195138-8.764346-1.593518-13.146519-0.796759-4.382173-1.195138-8.764346-1.991897-12.74814-7.569208-33.862247-22.707624-66.130976-45.016869-93.220773l-8.764346-9.561105c-1.593517-1.593517-2.788656-3.187035-4.382173-4.780553l-4.780553-4.382173-9.561105-8.764346c-3.585414-2.788656-6.772449-5.178932-10.357864-7.967588-6.772449-5.577311-14.341657-9.561105-21.910865-14.341657-3.585414-2.390276-7.967587-3.983794-11.553002-5.975691l-5.975691-2.788655c-1.991897-0.796759-3.983794-1.991897-5.97569-2.390277-32.268729-12.74814-67.724494-17.927072-102.383499-14.740036-34.659006 3.983794-68.122873 15.935175-97.204568 35.455764-28.683315 19.918969-52.586077 46.212007-69.318011 76.887219-16.731934 30.675212-25.49628 65.334217-25.894659 99.993223h-19.12221c0-37.846041 9.561105-75.692081 27.488177-109.554328 17.927072-33.463867 44.220111-62.147182 75.293702-83.659668 31.471971-21.114107 68.122873-34.260626 105.968913-38.24442 37.846041-3.585414 76.09046 1.991897 111.546225 15.935175 2.390276 0.796759 4.382173 1.593517 6.37407 2.788655l6.37407 3.187035c4.382173 1.991897 8.764346 3.983794 12.74814 6.37407 7.967587 5.178932 16.333554 9.561105 23.902762 15.536796 3.983794 2.788656 7.569208 5.577311 11.154623 8.764346l10.357863 9.561105 5.178932 4.780552c1.593517 1.593517 3.187035 3.585414 4.780553 5.178932L721.547551 179.435727c24.301142 29.081694 41.033076 64.139079 49.000663 101.58674 0.796759 4.780552 1.593517 9.561105 2.390276 13.943279 0.796759 4.780552 1.593517 9.561105 1.593517 13.943278 0.398379 9.561105 1.195138 18.723831 0.796759 28.284935-0.398379 19.12221-3.983794 37.846041-9.162725 56.171492-9.561105 36.650902-29.081694 70.11477-55.773113 97.204567z" fill="#d4237a" p-id="14430"></path><path d="M724.336206 504.114917l-13.544898-13.146519c26.293039-27.089797 46.212007-60.952044 56.569871-97.204568 5.178932-18.325451 8.365967-37.049282 9.162725-56.171491 0.398379-9.561105-0.398379-19.12221-0.796758-28.284936 0-4.780552-1.195138-9.561105-1.593518-13.943278-0.796759-4.780552-1.195138-9.561105-2.390276-13.943278-7.967587-37.049282-25.097901-72.106667-49.000663-101.586741l-9.561105-10.357863c-1.593517-1.593517-3.187035-3.585414-4.780553-5.178932l-5.178931-4.780553-10.357864-9.561105c-3.585414-2.788656-7.569208-5.577311-11.154623-8.764346-7.569208-5.975691-15.935175-10.357864-23.902762-15.536795-3.983794-2.390276-8.365967-4.382173-12.74814-6.37407L637.887882 115.695027c-1.991897-1.195138-4.382173-1.991897-6.37407-2.788655-35.455764-13.943278-73.700184-19.520589-111.546225-15.935175-37.846041 3.983794-74.496943 17.528692-105.968913 38.24442-31.073591 21.512486-57.36663 50.195801-75.293702 83.659668-17.528692 33.463867-27.089797 71.309908-27.488177 109.554328h-19.122209c0-41.033076 10.357864-82.066151 29.480073-118.318674 19.520589-36.252523 47.805525-67.326114 81.667772-90.432118 34.260626-22.707624 74.098564-37.049282 114.73326-41.431455 40.634696-3.983794 82.46453 1.991897 120.70895 17.130313 2.390276 0.796759 4.780552 1.991897 7.170829 3.187035l6.772449 3.187035c4.382173 2.390276 9.162726 4.382173 13.544899 6.772449 8.764346 5.577311 17.927072 10.357864 25.894659 16.731934 3.983794 3.187035 8.365967 5.975691 12.349761 9.162726l11.553002 10.357864 5.577311 5.178931c1.991897 1.991897 3.585414 3.585414 5.178932 5.577312l10.357863 11.553001c26.293039 31.471971 44.61849 69.71639 53.382836 109.952708 0.796759 5.178932 1.593517 9.959484 2.390277 15.138416 0.796759 5.178932 1.593517 9.959484 1.991897 15.138416 0.398379 10.357864 1.195138 20.317348 0.796758 30.675212-0.796759 20.317348-3.983794 41.033076-9.561105 60.553665-11.951381 39.837937-33.463867 76.09046-61.748803 105.570534z" fill="#d4237a" p-id="14431"></path><path d="M737.881105 517.261436l-13.544899-13.146519c28.683315-29.480074 49.797422-65.732597 61.350424-105.570534 5.577311-19.918969 9.162726-40.236317 9.561105-60.553665 0.398379-10.357864-0.398379-20.317348-0.796759-30.675212 0-5.178932-1.195138-10.357864-1.991897-15.138416-0.796759-5.178932-1.593517-10.357864-2.390276-15.138416-8.764346-40.236317-27.089797-78.082357-53.382836-109.952708l-10.357864-11.553001c-1.593517-1.991897-3.585414-3.983794-5.178932-5.577312l-5.577311-5.178931-11.553002-10.357864c-3.983794-3.187035-7.967587-6.37407-12.34976-9.162726-7.967587-6.37407-17.130313-11.154622-25.89466-16.731934-4.382173-2.788656-9.162726-4.780552-13.544898-6.772449l-6.77245-3.187035c-2.390276-1.195138-4.780552-2.390276-7.170828-3.187035-38.24442-15.138416-80.074254-21.114107-120.708951-17.130313S437.104678 96.971197 403.242431 119.678821c-33.862247 23.106004-62.147182 54.179595-81.667772 90.432118-19.12221 36.252523-29.480074 77.285599-29.480073 118.318674h-19.12221c0-43.821731 11.154622-88.440221 31.87035-127.4814s51.390939-72.505046 87.643462-97.602946c36.650902-24.301142 79.675875-40.236317 123.497606-44.61849 43.821731-4.382173 88.8386 1.991897 129.871676 18.72383 2.788656 0.796759 5.178932 1.991897 7.569208 3.187035l7.569208 3.585415c4.780552 2.390276 9.959484 4.780552 14.740037 7.569208 9.561105 5.577311 19.12221 11.154622 27.886556 17.927072 4.382173 3.187035 8.764346 6.772449 13.146519 9.959484l12.349761 11.154622 5.97569 5.577312c1.991897 1.991897 3.585414 3.983794 5.577312 5.97569l11.154622 12.349761c28.284936 33.862247 47.805525 74.895322 57.36663 118.318674 1.195138 5.577311 1.991897 10.756243 2.788656 16.333554 0.796759 5.577311 1.991897 10.756243 1.991897 16.333555 0.398379 11.154622 1.593517 21.910866 0.796758 33.065488-0.796759 21.910866-4.382173 43.821731-10.357863 65.334217-12.74814 42.626593-35.854144 81.667772-66.529356 113.139742z" fill="#d4237a" p-id="14432"></path><path d="M751.824383 530.806335l-13.544899-13.146519c30.675212-31.471971 53.781215-70.911529 66.130977-113.538122 5.975691-21.114107 9.959484-43.423352 10.357863-65.334217 0.398379-11.154622-0.398379-21.910866-0.796758-33.065488 0-5.577311-1.195138-10.756243-1.991897-16.333555-0.796759-5.577311-1.593517-10.756243-2.788656-16.333554-9.162726-43.423352-29.081694-84.058048-57.36663-118.318674l-11.154622-12.349761c-1.991897-1.991897-3.585414-3.983794-5.577312-5.97569l-5.97569-5.577312-12.349761-11.154622c-4.382173-3.585414-8.764346-6.772449-13.146519-9.959484-8.764346-6.772449-18.325451-12.349761-27.886556-17.927072-4.780552-2.788656-9.959484-5.178932-14.740037-7.569208l-7.569208-3.585415c-2.390276-1.195138-5.178932-2.390276-7.569208-3.187035-41.033076-16.333554-86.049945-22.707624-129.871676-18.72383-43.821731 4.780552-86.846704 20.317348-123.497606 44.61849-36.252523 25.097901-66.927735 58.561768-87.643462 97.602946-20.715727 39.041179-31.471971 83.261289-31.87035 127.4814h-19.12221c0-47.008766 11.951381-94.415912 34.260626-136.245746C310.021657 150.354033 342.688766 114.499889 381.729945 87.808471c39.439558-26.293039 85.253186-43.024972 132.261952-47.805525 47.008766-4.780552 94.814291 1.991897 139.034401 19.918969 2.788656 0.796759 5.577311 1.991897 7.967588 3.585414l7.967587 3.983794c5.178932 2.788656 10.756243 5.178932 15.935175 7.967587 9.959484 5.975691 20.317348 11.951381 29.878453 19.12221 4.780552 3.585414 9.561105 7.170829 13.943278 10.756243l13.14652 11.951382 6.37407 5.97569c1.991897 1.991897 3.983794 4.382173 5.97569 6.37407l11.951382 13.14652c30.276832 36.252523 51.390939 80.074254 61.350423 126.684641 1.195138 5.975691 1.991897 11.553002 2.788656 17.528692 0.796759 5.975691 1.991897 11.553002 1.991897 17.528692 0.796759 11.951381 1.593517 23.504383 0.796758 35.455765-0.796759 23.504383-4.780552 47.008766-11.154622 69.71639-12.74814 45.415249-37.447661 87.245083-70.11477 121.10733z" fill="#d4237a" p-id="14433"></path><path d="M778.914181 557.497753l-13.544899-13.146519c35.057385-36.252523 61.350424-80.871013 75.293702-129.473297 6.772449-24.301142 11.154622-49.399042 11.951381-74.496943 0.796759-12.349761-0.398379-25.097901-0.796759-37.447661 0-6.37407-1.195138-12.349761-2.390276-18.723831-0.796759-6.37407-1.991897-12.349761-3.187035-18.72383-10.756243-49.399042-33.065488-96.407809-65.334218-135.050608-3.983794-4.780552-8.365967-9.561105-12.748139-13.943278-1.991897-2.390276-4.382173-4.780552-6.37407-6.772449l-6.77245-6.37407c-4.780552-4.382173-9.162726-8.365967-13.943278-12.74814-4.780552-3.983794-9.959484-7.569208-15.138416-11.553002-9.959484-7.967587-21.114107-13.943278-31.87035-20.317348-5.577311-3.187035-11.154622-5.577311-16.731934-8.764347l-8.365967-3.983793c-2.788656-1.195138-5.577311-2.788656-8.764346-3.585415-47.008766-19.12221-98.399705-26.293039-148.197127-21.512486C461.804199 26.059668 412.803536 43.98674 370.973702 71.873296c-41.431455 28.284936-76.48884 66.529355-99.993223 111.147845-23.504383 44.61849-36.252523 95.21267-36.252523 145.408472H215.605746c0-52.984457 13.544899-107.164052 38.642799-154.172818C279.346446 126.84965 315.997348 86.214954 360.217458 55.938121 404.835948 26.458047 456.625267 7.335837 510.008103 1.758526c6.772449-0.398379 13.146519-0.796759 19.918969-1.195138 6.772449-0.398379 13.146519-0.796759 19.918969-0.398379 13.146519 0.796759 26.691418 0.796759 39.837937 3.187035 6.772449 0.796759 13.146519 1.991897 19.918969 3.187035 6.37407 1.593517 13.146519 3.187035 19.520589 4.780552 13.146519 3.187035 25.49628 7.967587 38.24442 12.74814 3.187035 1.195138 6.37407 2.390276 9.162725 3.983794l9.162726 4.382173c5.975691 3.187035 12.349761 5.577311 17.927072 9.162726 11.553002 6.772449 23.106004 13.544899 33.862247 21.910865 5.178932 3.983794 10.756243 7.967587 15.935175 12.349761 5.178932 4.382173 9.959484 8.764346 14.740037 13.544899l7.170828 6.772449c2.390276 2.390276 4.382173 4.780552 6.77245 7.170829 4.382173 4.780552 9.162726 9.959484 13.544898 14.740036 34.260626 41.033076 58.163389 90.830497 69.318011 143.416575 1.195138 6.37407 2.390276 13.146519 3.187035 19.918969 0.796759 6.772449 1.991897 13.146519 2.390277 19.918969 0.796759 13.146519 1.593517 26.691418 1.195138 39.837937-0.796759 26.691418-5.178932 53.382836-12.74814 79.277495-14.740037 50.99256-42.626593 98.798085-80.074254 137.042505z" fill="#d4237a" p-id="14434"></path><path d="M765.369282 543.952854l-13.544899-13.146519c32.667109-33.862247 57.36663-75.692081 70.513149-121.505709 6.37407-22.707624 10.357864-46.212007 11.154623-69.716391 0.796759-11.951381-0.398379-23.504383-0.796759-35.455764 0-5.975691-1.195138-11.553002-1.991897-17.528692-0.796759-5.975691-1.593517-11.553002-2.788655-17.528693-9.959484-46.212007-31.073591-90.432118-61.350424-126.684641l-11.951381-13.146519c-1.991897-1.991897-3.983794-4.382173-5.975691-6.37407l-6.37407-5.975691-13.146519-11.951381c-4.780552-3.585414-9.561105-7.170829-13.943278-10.756243-9.162726-7.170829-19.520589-13.146519-29.878453-19.12221-5.178932-3.187035-10.357864-5.577311-15.935175-7.967587l-7.967588-3.983794c-2.788656-1.195138-5.178932-2.390276-7.967587-3.585415a301.89189 301.89189 0 0 0-139.034402-19.918968c-47.008766 5.178932-92.822394 21.910866-132.261952 47.805525-39.041179 26.691418-71.708287 62.545562-94.017532 104.375396-21.910866 41.829834-33.862247 89.23698-34.260626 136.245746h-19.12221c0-50.195801 12.74814-100.789982 36.252523-145.408472C294.484862 138.402652 329.542247 100.556611 370.973702 71.873296 412.803536 43.98674 461.804199 26.059668 512 20.880736c49.797422-4.780552 101.188361 2.390276 148.197127 21.114107 2.788656 1.195138 5.975691 2.390276 8.764346 3.585414l8.365967 3.983794c5.577311 2.788656 11.553002 5.178932 16.731934 8.764346 10.756243 6.37407 21.910866 12.74814 31.87035 20.317348 5.178932 3.585414 9.959484 7.569208 15.138416 11.553002 4.780552 3.983794 9.561105 8.365967 13.943278 12.74814l6.77245 6.37407c2.390276 2.390276 4.382173 4.382173 6.37407 6.77245 4.382173 4.780552 8.365967 9.162726 12.748139 13.943278 32.268729 38.642799 54.976354 85.651565 65.334218 135.050607 1.195138 6.37407 1.991897 12.349761 3.187035 18.723831 0.796759 6.37407 1.991897 12.349761 2.390276 18.723831 0.796759 12.349761 1.593517 25.097901 0.796759 37.447661-0.796759 25.097901-5.178932 50.195801-11.951381 74.496943-13.943278 48.602284-40.236317 93.619153-75.293702 129.473296z" fill="#d4237a" p-id="14435"></path><path d="M870.541437 1004.87779v19.12221H151.865046L603.228877 382.609208l15.536795 10.756243-430.249724 611.512339z" fill="#d4237a" p-id="14436"></path><path d="M870.541437 985.75558v19.12221H188.515948l430.249724-611.512339 15.536796 11.154622L225.56523 985.75558z" fill="#d4237a" p-id="14437"></path><path d="M870.541437 966.63337v19.12221H225.56523l408.737238-581.235507 15.536795 11.154623-387.623131 550.958674z" fill="#d4237a" p-id="14438"></path><path d="M870.541437 947.51116v19.12221H262.216132L649.839263 415.674696l15.935175 10.756243-366.509024 521.080221z" fill="#d4237a" p-id="14439"></path><path d="M870.541437 928.38895v19.12221H299.265414L665.774438 426.430939l15.536796 11.154622L335.916317 928.38895z" fill="#d4237a" p-id="14440"></path><path d="M870.541437 909.26674v19.12221H335.916317l345.394917-490.803389 15.536796 10.756244-323.882432 460.924935z" fill="#d4237a" p-id="14441"></path><path d="M870.541437 890.14453v19.12221H372.965598l323.882432-460.924935 15.536795 11.154622-302.768324 430.648103z" fill="#d4237a" p-id="14442"></path><path d="M870.541437 871.02232v19.12221H409.616501l302.768324-430.648103 15.935175 11.154622L446.665783 871.02232z" fill="#d4237a" p-id="14443"></path><path d="M870.541437 851.90011v19.12221H446.665783l281.654217-400.371271 15.536796 10.756244-260.540111 370.492817z" fill="#d4237a" p-id="14444"></path><path d="M870.541437 832.7779v19.12221H483.316685l260.540111-370.492817 15.536795 11.154622L519.967587 832.7779z" fill="#d4237a" p-id="14445"></path><path d="M870.541437 813.655691v19.122209h-350.57385l239.426004-340.215985 15.536796 10.756243-217.913518 310.337533z" fill="#d4237a" p-id="14446"></path><path d="M870.541437 775.411271v19.12221h-276.873665l197.19779-280.0607 15.536795 11.154622-175.685304 249.783868z" fill="#d4237a" p-id="14447"></path><path d="M870.541437 794.533481v19.12221h-313.524568l217.913518-310.337533 15.935175 11.154623-197.19779 280.0607z" fill="#d4237a" p-id="14448"></path></svg>