<?xml version="1.0" standalone="no"?><!DOCTYPE svg PUBLIC "-//W3C//DTD SVG 1.1//EN" "http://www.w3.org/Graphics/SVG/1.1/DTD/svg11.dtd"><svg t="1591177601622" class="icon" viewBox="0 0 1024 1024" version="1.1" xmlns="http://www.w3.org/2000/svg" p-id="18170" xmlns:xlink="http://www.w3.org/1999/xlink" width="200" height="200"><defs><style type="text/css"></style></defs><path d="M178.4 267.9s-30.4-5.5-24.8 26.7c5.5 32.2-11 430.6-26.7 482.1-15.6 51.5-9.2 66.2 5.5 66.2s58 8.3 63.5 8.3 13.8 16.6 35-42.3 87.4-228.2 87.4-228.2 23-17.5-5.5-82.8-74.5-205.2-74.5-205.2-3.7-20.2-26.7-20.2c-23.1 0-33.2-4.6-33.2-4.6z" fill="#FCF3C7" p-id="18171"></path><path d="M263.9 720.9c-2.2-106.1 18.1-102.7 20.3-222 0.4-23.8 0.8-48.7 0.2-73.2-23.4-63.8-46.2-133-46.2-133s-3.7-20.2-26.7-20.2-33.1-4.6-33.1-4.6-1.4-0.2-3.5-0.3c3.2 5.5 8.7 12.9 16.4 23.3 42.2 57 52.2 67.1 48.8 75.4-7.4 18.1-66.3 1.1-73.6 19.3-2.5 6.2 2.3 13 31.3 49.7 33.9 42.9 40 49.4 37.7 58-5.1 19.1-42.7 12.7-57 41.4-5 9.9-7.7 25-0.9 35 8.9 13 25.9 5.2 33.1 15.6 10.7 15.3-20.5 40.4-23.9 92-1.2 17.9 1.7 27.3 2.8 30.4 8.5 25 27.1 27 31.3 41.4 9.2 31.8-70.1 62.3-65.3 95.7 0 0.2 0.1 0.3 0.1 0.5 17.3 2.4 36.8 5.9 40.4 5.9 5.5 0 13.8 16.6 35-42.3 7-20.1 19.5-53.2 32.8-88z" fill="#E8A452" p-id="18172"></path><path d="M230.8 809c21.2-58.9 87.4-228.2 87.4-228.2s23-17.5-5.5-82.8-74.5-205.2-74.5-205.2-2.7-14.8-18-19.1c-1.3 1.8-2.1 3.2-2.3 3.5-6.1 10.6-4.1 22.2-3.7 24.8 14.3 95.6-13.9 193.2-12 289.8 3.1 157.6 1.1 232.8 4.6 260.7 5.5-2.7 13-13 24-43.5zM157.2 531.1c2.4-58.1 2.3-83.4 5.5-161.9 2.3-56.2 3.6-88.8 4.8-101-8.1 1.6-17.3 7.5-14 26.5 5.5 32.2-11 430.6-26.7 482.1-15.6 51.5-9.2 66.2 5.5 66.2 1.3 0 2.9 0.1 4.7 0.2 3.3-19.4 3.1-49.8 3.6-81.2 1.8-100.8 9.5-58.4 16.6-230.9z" fill="#CE682B" p-id="18173"></path><path d="M344.5 274.4c-11.1-0.3-28.1-0.6-49-0.7-23.8-0.1-35.8-0.2-38 0.7-31.3 12.6-2.6 97.9-15.2 216-8.4 78.6-32.2 144.3-2.8 172.5 15.1 14.5 36.9 25.5 36.9 25.5 16.2 8.2 32.3 13 41.8 14.5 48.2 7.6 95.9-42.6 98.7-45.5 72.2-77.7 48.2-244.6-33.1-343.7-14.7-17.8-29-30.8-39.3-39.3z" fill="#F80A21" p-id="18174"></path><path d="M336.6 274.2c-10.6-0.2-24.7-0.4-41.1-0.5-23.8-0.1-35.8-0.2-38 0.7-31.3 12.6-2.6 97.9-15.2 216-8.4 78.6-32.2 144.3-2.8 172.5 15.1 14.5 36.9 25.5 36.9 25.5 16.2 8.2 32.3 13 41.8 14.5 2.9 0.5 5.8 0.7 8.7 0.8 15.1-32.3 15.5-92.9 16.8-189.8 2.1-148 4.1-207.5-7.1-239.7z" fill="#F47465" p-id="18175"></path><path d="M215.4 812.6s-10.8-45.5 9.7-38c0 0 0-44.9 37.3 9 0 0 20.4-42.4 4.1-58.7-16.2-16.2 28.3-41.4 45.5-24.2 0 0-22.4-35.2 16.1-25.5 0 0-56.8-50.4-15.4-50.4 7.6-53.8-10.4-37.6-10.4-37.6s-40-10.7-28.3-22.5c11.7-11.7-75.7-28.3-26.8-37.3 26.1-60-4.2-62.1-4.2-62.1s-66.2-3.7-15.9-38c44.5-30.4 20.1 6.9 20.1 6.9s17.2-27.6 34.4-20c6.9 3-49-80.3-26.9-80.3s-24.8-83.4-24.8-83.4 9.2 22.7-13.8 22.7 13.8 27.6-12.9 27.6 0 23.9 0 23.9 22.1-32.2 26.7-5.5c4.6 26.7-43.2 47.8-58 47.8s7.4 30.4 20.2 25.8c12.9-4.6 16.9 17.6 16.9 25.4 0 7.8-34.3-11.6-34.3-11.6s-21.2-31.2-27.6 11.6 44.2-33.6 32.2 36.3c0 0 35-1.8 12.9 20.2-22.1 22.1 28.5 131.6 16.6 155.5S154.5 667 172 684.5s58.9-29.4 39.6 12.9c0 0 23.9 27.8-9.2 39.2-33.1 11.4-11 35.3-11 35.3s17.5-27.9 7.4 15.9c-10.3 44.2 16.6 24.8 16.6 24.8z" fill="#71840F" p-id="18176"></path><path d="M234.1 648.2c-5.6 8.4-13.9 20.9-7 30.5 6.9 5.5 16.6 5.5 22.1 0 2.8-1.4-2.8-4.1-5.5-5.5 8.3 1.4 24.8 4.1 20.7 13.8-6.9 13.8-30.4 19.3-30.4 37.3 0 11 13.8 4.1 20.7 8.3-8.3 8.3-29 2.8-29.7 16.9 3.5 3.5-2.3 8.8-9 13.3-6.6 4.5-14.1 8.1-14.1 8.1s-14.8 7.5-1.4 17.2c13.5 9.7 3.1-13.1 14.8-19.3s21.1-19 21.1-19 6.7-4.8 10.8 5.9c2 5.3 8.9 1.4 14.2-5.8 2.7-3.6 5-8 6.1-12.4-7.3-20.2 6.5-35.3 27.2-39.5-4.1-8.3 2.8-13.8 11-11-12.4-5.5-26.2-11-29-23.5-2.8-16.6 26.2-20.7 24.8-33.1-2.8-9.7-23.5 8.3-26.2 1.4-6.9-15.2 23.5-30.4 22.1-42.8-2.8-35.9-45.5-19.3-66.2 0-11.4-13.5-4.1-29.2 2.5-43.9 2.2-4.9 4.4-9.6 5.8-14.1-2.8-6.9-27.3-11.7-19-18.6 1.4-1.4 12.4 0 12.4 0-13.5-22.1-3.1-65.6 5.2-98.7-4.1 2.8-6.9 6.9-12.4 8.3 8.3-16.6 16.6-33.1 22.9-50 1.3-4.7 2.2-9.6 2.3-14.6 0.1-5-0.4-10.1-1.8-15.4-1.4-8.3 2.7-15.2 4.1-23.4 0-2.8-1.4-6.9-2.8-9.7-2.8 2.8 0 6.9-2.8 9.7-4.1 1.4-6.9-1.4-9.7-4.1-5.5-11-5.5-23.5 4.1-34.5 4.1-4.1-4.1-8.3-6.9-13.8 1.4 4.1 0 8.3-2.8 12.4-8.3 9.7-34.5 9.7-27.6 23.5 2.1 4.8 10.7 7.2 16.7 10.5s9.5 7.4 1.2 15.7c-8.3 4.2-18 1.4-24.9-4.1 3.9 2.1 7.5 4.7 10.7 7.7 3.2 3 6 6.4 8.3 10.1 8.6 12.6 10 29.1 3.1 42.9-9.7 17.9-20 24.5-13.1 45.2 9.7 31.7-9 68.8-4.5 102.1-0.2 6.1 15.6 22.5 16.1 28.7 0.5 6.2 0.8 12.4 0.1 18.6-2.8 19.3-6.9 38.6 6.7 55.8 4.4 6.5 9 12.9 9 12.9z" fill="#EDF0AA" p-id="18177"></path><path d="M406.6 221.9c-3.1 0.1-12.9 3.2-20.7 6.6 0 0-10.1 4.3-19 10.4-20.8 14.1-13.1 150.5-16.2 223.2-3.6 82.1-7.1 162.6-34.3 225.4-2 4.5-22.3 51-8.3 62.6 4.8 3.9 14.4 4.6 17.6 4.8 0 0 11.8 0.8 23.4-3.5 17.3-6.5 113.2-116.8 107.3-339.1-3.2-121.3-34.4-190.8-49.8-190.4z" fill="#FF5532" p-id="18178"></path><path d="M395.3 579.7c22-68.2 2.6-97.8 2.6-200.2 0-75.2 10.5-126 12.5-156.4-1.4-0.8-2.7-1.2-3.9-1.2-3.1 0.1-12.9 3.2-20.7 6.6 0 0-10.1 4.3-19 10.4-20.8 14.1-13.1 150.5-16.2 223.2-3.6 82.1-7.1 162.6-34.3 225.4-2 4.5-22.3 51-8.3 62.6 4.8 3.9 14.4 4.6 17.6 4.8 0 0 2.1 0.1 5.3 0 23.1-17.1 21.5-45.7 34.5-95 11.3-41.9 19.7-48.6 29.9-80.2z" fill="#FF9282" p-id="18179"></path><path d="M448 878.9s35 12.9 45.5-22.1c10.6-35 73.1-161.9 73.1-161.9s60.7-245.2 8.3-328c-52.4-82.8-55.2-122.6-77.3-126.5-22.1-3.9-61.4-12.9-61.4-12.9s-25.5-3.5-25.5 17.9 0.1 303.4-22.6 365.5c-5.6 15.2-4.4 12.5-13.9 43.5-45.8 148.2-21.4 122.7-40.7 176.2-3 8.4-10.4 28.9-2 38.9 2.4 2.9 6.7 4.6 13.7 4.6 28.2-0.1 102.8 4.8 102.8 4.8z" fill="#FCF3C7" p-id="18180"></path><path d="M571.3 361c-48.9-78.9-52.1-116.8-73.6-120.7-12.9-2.3-31.7-6.3-45.1-9.3-16.8 11.2-32 26.5-42 39.2 0 6.3-0.1 13.5-0.2 21.6 7.9-2 19.9-4.8 35.6-3.7 2.4 0.2 50.5 3.7 56.1 23 8.4 28.6-86.2 57.5-84.6 109.5 0.7 22.4 18.5 25.1 26.7 65.3 6.6 32.1-3.5 36.5 2.8 61.6 11.6 46.5 51.5 53 49.7 80-1.7 25.9-38.5 24.4-67.2 64.4-37.6 52.6-19.8 119.4-18.4 124.2 1.3 4.5 12.1 41.7 29.3 62.1 4.7 0.3 7.5 0.5 7.5 0.5s35 12.9 45.5-22.1c6.3-20.9 31.3-74.9 50.3-114.8 9.8-37.1 17.7-76.1 22.8-110.6 13.1-86.7 15.4-188.8 4.8-270.2z" fill="#E8A452" p-id="18181"></path><path d="M574.9 366.8c-52.4-82.8-55.2-122.6-77.3-126.5-3-0.5-6.4-1.2-9.9-1.9l-3.9 61.6s-18.4 275.1-7.4 324.8c11 49.7 1.8 128.8 1.8 128.8s5.6 66.9 14.8 104.3c0.1-0.4 0.3-0.8 0.4-1.3 10.6-35 73.1-161.9 73.1-161.9s60.9-245 8.4-327.9zM389.1 704.1c41.5-54.2 41.4-399.3 41.4-399.3l-3.7-77.1c-7.3 1.1-16.1 5.1-16.1 17.7 0 21.4 0.1 303.4-22.6 365.5-5.6 15.2-4.4 12.5-13.9 43.5-21.7 70.3-27.7 101.5-29.9 120.6 12.1-22.6 27.5-48.4 44.8-70.9z" fill="#CE682B" p-id="18182"></path><path d="M625.6 222.9c-5.5-3.9-12.4-4.3-26.2-5.1-8.7-0.5-35 0.8-26.2 0.5 0 0-2.2 9-2.3 9.2C540.6 348.2 540 479.6 540 479.6c-0.2 31.7 1.1 54.1 13.8 78.2 3.2 6.2 24.4 46.4 50.6 46 39.6-0.6 64.7-94 67.2-103.1 0 0 27.5-102.2-18.4-215.3-3.2-8-7.2-14.3-12.9-30.4-6.9-19.2-7.1-26.7-14.7-32.1z" fill="#F80A21" p-id="18183"></path><path d="M561.8 551.1c5.9 3.1 13.3-3.2 40.7-24.2 26.4-20.2 35.5-26.7 38.6-40 1.5-6.5 1-11.6 0.7-14.5-3.2-31.2-2.5-62.8-6.9-93.8-11.8-82.9 16.1-139.9-7.6-152.5-6.1-3.3-19.2-5.4-26.9-6.2-12.2-1.2-20.7-2.1-26.2 1.4-13.3 8.4-6.3 39.8-3.5 61.4 5.6 41.7-1.8 80.7-16.6 158.7 0 0-4.5 23.6 1.4 95.2 0.4 3.8 1.2 11.8 6.3 14.5z" fill="#F47465" p-id="18184"></path><path d="M523.8 810.3c-11.2-12.5-11.4-35.2 3.6-45.1 18.3-12 29.2 4.5 44.8 11.5 5.6-20.9-27-39.9-18.6-58.2 7.5-16.3 34 0.1 47.6-1.1-13.4 0-15.1-10.5-11-18.5 4.5-8.8 19.4-9.8 27.6-11.9-21.9-2-47.2-14.1-39.5-40.2 5-17 30-29.3 24.5-49.2-5.2-19.1-16.6-7.5-27.6-14.1-9.9-5.9-6.9-5.7-13.9-17.1-10.6-17.3-26.7-33-17.8-53.5 4.9-11.3 26.8-24.9 21-40.3-4.9-12.9-22.3-8.8-32.4-13.4-18.2-8.3-21.2-19.1-8.9-36.5 2.9-4.1 15.4-19.6 21.5-20.1 11.9-0.9 6.9 11.7 6.9 20.7 4.8-12 14.9-26.3 30.4-22.1-9-33.8-17.6-66.7-13.8-102.1 3-27.6 9.9-58.2-13.1-80.1 9.5 11.2-8.6 12.9-14.1 16.8-10.3 7.3-16.7 14.1-25.5 23.7-0.6 0.6-26.3 13.3-12.2 18.9 11.1 4.3 19-11.8 26.2-16.6 19.6 45.6-43.8 48.5-52.3 80.3-6.2 23.1 23.2 20.2 34.2 32.1 10.7 11.5 11.6 31.2-9.5 25.6-12.8-3.4-15.2-24.8-33.1-14.2-9.4 5.6-14 27-2.8 33.5 15.6 9.1 19.1-17.2 27.3 7.5 4.4 13.2-8 29.3 7.2 39.4-37 26.6-11.4 60.7 1.4 92.2 15.3 37.7-2.9 77.3-17.9 112.1 6.9 2 21-2.6 26.2 2.8 5.8 5.9 1.6 34.5 0 40.8-5 20.6-42.3 40.5-18 59.9 2.6 1.3 3.5-8.8 6.9-4.1 4.6 6.3 3.2 11.2 4.5 18.4 1.7 10.8 0.8 37.3 20.2 22.2z" fill="#71840F" p-id="18185"></path><path d="M536.1 619.3c-19.9 10.9-31.9 37.1-31.1 50.5 0.6 8.7 4.3 0.2 9.1-7.6 2.8 12-25.4 58 15.2 58-9.1 5.5-64.5 46.1-37.3 55.2 6.2-26.8 25.4-25.8 32.6-36.2-5.1 7.4 17.5-32.8 14.3-28.6 14.1-18.5 54.9-30 41.4-33.8-47-11.8-10.3-13.3-14.4-36.3-2.7-14.9-8.7-13.2-10.3-20-1.5-15.1 9.8-46.9 2.8-60.8-7.5-14.9-8.2-2-15.1 1.2-1.4 0.6-6.4-1.3-13.3-11.6-12.2-18 15.8-48.1-11.7-72 21.9 7.3 16.3-104.9 5.5-84.2 15.8-44.3 35.9-86.1 38.6-133.9-14.9 22.4-15.5-10-5.1-26.7-8.6-2.9-32.6 8.1-38.2 17.7-13.9 24.2-9.2 8.7 7.4 18.6 24.5 9.8-23.9 22.7-21.9 23 35-2.3-2.4 159.6 2.4 193.7 8 55.1 29.4 79.6 29.1 133.8z" fill="#EDF0AA" p-id="18186"></path><path d="M644.3 230.4c9.1-5.6 28.5 14.8 36.4 19.1 35.8 19.5 90.4 157.7 43.2 307.1-10.7 33.9-34.7 106.4-97.3 135.3-6.6 3-38.8 17.9-52.1 5.5-16.5-15.4 5.3-64.2 20.4-98 32.4-72.5 38.7-63.2 47.3-99.4 15.9-66.9-8.2-101.7-4.2-169.4 1-16.9-2.6-39.8 1.1-56.3 3.1-13.9-1.6-21.2 0.7-32.4 0.2-4.2 1-9.3 4.5-11.5z" fill="#FF5532" p-id="18187"></path><path d="M680.8 249.5c-7.9-4.3-27.3-24.7-36.4-19.1-3.5 2.2-4.4 7.3-4.5 11.5-2.3 11.3 2.4 18.5-0.7 32.4-3.7 16.5-0.1 39.4-1.1 56.3-4 67.7 20.1 102.5 4.2 169.4-8.6 36.2-14.9 26.9-47.3 99.4-15.1 33.8-36.9 82.6-20.4 98 6.8 6.3 18.5 5.5 29.3 2.8 2.8-17.6 7.1-38.9 15.3-62.9 28.2-82.8 63.6-84.3 74.5-149.1 9.2-54.7-16.2-52.7-11-131.1 2.9-43.7 12.6-71 11.1-96.4-4.6-5.1-8.9-8.9-13-11.2z" fill="#FF9282" p-id="18188"></path><path d="M748.2 252.8s-5.5-12.4-20.7-12.4-20.5 4.1-20.5 4.1 39.4 213.2-24.7 330.7C627 676.3 583.2 682 547.3 822.8c-9.7 26.7-9.5 56.1-2.6 56.1s59.8-0.4 59.8-0.4 14.5 3.7 28.3-10.1 194.6-158.7 212.5-227.7c17.9-69 66.2-108.3 53.1-222.9-15.4-38.9-42.6-56.8-62.8-70.2s-87.4-94.8-87.4-94.8z" fill="#FCF3C7" p-id="18189"></path><path d="M898.6 417.7c-15.4-38.9-42.6-56.8-62.8-70.2-14.6-9.6-53.9-54.8-74.5-79.1-4.4 22.1-5.6 49.7-6.9 78.7-3.6 80.7 14.3 88.4 12 150.9-0.9 23.5-5.3 138.6-81.9 207.9-42.8 38.7-73.1 31.4-96.6 71.8-17.4 29.9-22.9 71.7-15.1 101 15.6-0.1 31.8-0.3 31.8-0.3s14.5 3.7 28.3-10.1 194.6-158.7 212.5-227.7c18-69 66.3-108.3 53.2-222.9z" fill="#E8A452" p-id="18190"></path><path d="M898.6 417.7c-15.4-38.9-42.6-56.8-62.8-70.2-7.2-4.8-20.5-18.3-34.6-33.7-21.9 34.7-9.6 96.5 5.6 100.3 12.6 3.2 25.6-33.9 40.5-30.4 13.1 3.1 20.9 36.3 16.6 66.2-5.7 38.6-28.1 47.6-58 107.7-15.4 31-27.8 55.8-21.2 61.6 8.2 7.1 50.2-10 87.5-46.5 18-39 34.8-81.6 26.4-155zM736.9 669.1c-8.8-1.6-15.6 14.2-31.3 35-31.1 41.2-48.1 36.9-73.6 71.8-21.4 29.3-35.4 67.9-27.6 73.6 5.2 3.8 17.1-9.4 79.1-62.6 48.6-41.7 67.7-56.2 68.1-80 0.3-16.9-5.6-36.2-14.7-37.8zM726.8 455.9c-1.4-54.6 5.7-168.4 8.8-214.2-2.3-0.8-5-1.3-8.1-1.3-15.2 0-20.5 4.1-20.5 4.1s39.4 213.2-24.7 330.7C627 676.3 583.2 682 547.3 822.8c-9.2 25.5-9.5 53.5-3.4 55.9 1.2-51.5 33.9-104.9 43.9-142.4 11-41.4 100.9-153.4 100.9-153.4s31.6-40.1 38.1-127z" fill="#CE682B" p-id="18191"></path><path d="M750.1 365.1c-29.2-5.9-58.3-11.9-87.5-17.8-58.3-11.9-116.6-23.7-174.9-35.6-33.2-6.8-66.4-13.5-99.6-20.3-8.7-1.8-12.4 11.5-3.7 13.3C493 326.9 601.6 349 710.1 371.1l44.4 9c5.2 1.1 19.2 3.7 22.8 10-88-0.9-176.2 2.1-263.8 11.1-88.3 9.1-175.9 23.8-263.4 38.6-30 5.1-70.8 15.5-74.5 51.6-0.2 2.2 1.4 5 3.4 6 29.7 13.7 61.8 18.7 94.2 21 34.2 2.5 68.5 3.1 102.7 3.8 68 1.5 136.3 2.2 204 10.1 33.7 3.9 67.2 9.8 100 18.5 7.7 2 15.5 4.2 23.1 6.6 8 2.5 17.4 4.4 24.6 8.6 14.5 8.5-12.2 17.3-18.5 18.5-65.6 11.6-132.8 9.6-199.2 10.3-73.3 0.8-148 4.5-217.4 30.7-8.2 3.1-4.7 16.5 3.7 13.3 131.7-49.7 275.5-18 411.7-40.2 12.4-2 26.6-5.5 34.2-16.6 7.5-10.9 2-23.3-9.2-28.8-14.8-7.3-32.2-11.2-48.1-15.4-17.1-4.5-34.4-8.3-51.8-11.5-70-12.7-141.3-15.4-212.2-17-40.1-0.9-80.2-1.4-120.2-3.3-37.3-1.7-75.7-4-110.4-18.8 6.3-25.5 45-31.1 66.3-34.7 42.1-7.1 84.2-14.2 126.5-20.7 85-13 170.4-22.4 256.3-26.1 48.4-2.1 96.9-2.6 145.3-2 3 0 5.8-2.2 6.7-5.1 6.7-23.3-25-30.2-41.2-33.5z" fill="#FFFFFF" p-id="18192"></path><path d="M462.3 887.2c-7.3 0-13.3-1.7-15.5-2.4-8-0.5-75.4-4.8-101.7-4.8-8.5 0-14.5-2.2-18.3-6.7-10.7-12.6-2.5-35.2 0.9-44.8 7.5-20.6 8.1-28.7 9.1-40.9 0.6-7 1.3-15.3 3.4-27.8-8.2 1.4-14.6 1-15 1-6.4-0.4-15.5-1.6-21.1-6.2-8.9-7.4-9.3-23.9-1.1-49.2-3.9-1.1-7.9-2.5-11.9-4-5.8 1-11.7 3.6-16.2 7-1.5 4-3.1 8-4.6 12l0.2 0.2c18.7 18.7-0.7 60.8-3 65.5-0.9 1.9-2.8 3.2-4.9 3.4-2.1 0.2-4.2-0.8-5.4-2.6-2.8-4.1-5.5-7.7-8.1-10.9-5.4 14.4-9.7 26.1-12.9 34.8-13.3 36.9-21.5 44.6-27.8 47.3-5.5 2.4-10 0.4-12.4-0.7-0.3-0.1-0.7-0.3-0.9-0.4-2.7-0.1-8.7-1-19.5-2.7-14.7-2.3-34.9-5.5-43.6-5.5-8.5 0-13.2-4-15.7-7.3-7.8-10.5-6.4-31.1 4.4-66.7 9.1-29.9 19.7-194.3 24.9-338-0.8-0.5-1.5-1-2-1.5-3.4-3.4-4.3-8.7-2.9-18 1.3-8.8 3.4-15.3 6.2-19.8 1.6-55.6 1.7-93.7 0.3-102.1-2-11.9 0-20.9 6.1-27 9.6-9.5 25.1-6.8 25.7-6.6 0.5 0.1 1 0.2 1.4 0.4 0 0 9.6 4.1 30.6 4.1 2.7 0 5.3 0.2 7.7 0.7 2.5-0.3 4.2-1.1 5.2-2.3 1.4-1.8 1.4-4.6 1.1-6.8-0.4-3.3 1.6-6.4 4.8-7.4 3.2-1 6.6 0.4 8.2 3.3 2.6 4.8 6.1 11.5 9.8 19.1 2.1-1.8 4.4-3.3 7-4.3 3.1-1.2 8.9-1.3 40.2-1.1 16.4 0.1 32.9 0.3 49.1 0.7 1.3 0 2.6 0.5 3.7 1.4l1.5 1.2c2.7-21.2 7-32.5 13.7-37.1 9.2-6.3 19.6-10.7 20-10.9 6.2-2.6 17.9-6.9 22.9-7 4.5-0.1 8.9 2.3 13.3 7.4 8-2.9 16.2-2 17.3-1.8 0.2 0 0.4 0.1 0.5 0.1 0.4 0.1 39.4 9 61.1 12.8 8.5 1.5 14.3 7.1 19 13.8 5.9-6.2 11.6-11.6 19.6-17.2 4.5-3.2 6.2-5.2 12.5-15.1 1.7-2.7 5.2-3.6 8-2 3.6 2.1 6.3 4.5 8.3 7 0.5-1.9 0.9-3.8 1-4.1 0.1-0.3 0.2-0.7 0.3-1 0.9-2 2.8-3.4 5-3.6 1.7-0.1 18-1 27.1-0.5 14.5 0.8 22.4 1.3 29.4 6.2 4.2 3 6.6 6.3 8.6 10.6 1-1.3 2.2-2.5 3.6-3.3 10.1-6.2 23.6 4.5 34.4 13 3.2 2.6 6.3 5 8.1 5.9 6.7 3.7 13.7 10.6 20.4 20.2-1.7-11.9-3-18.8-3-18.9-0.4-2.2 0.4-4.4 2.2-5.8 1.2-0.9 7.7-5.4 24.2-5.4s24 11.7 25.8 15.1c18.9 22.9 70 82.6 85.9 93.1 20.7 13.6 48.9 32.3 65.1 73 0.2 0.5 0.3 1 0.4 1.5 9.2 80.2-11 124.1-30.6 166.6-8.8 19.2-17.2 37.4-22.7 58.5-6.7 25.8-35.6 64.4-85.9 114.5C724.7 797.1 679.4 836 655 857c-9.2 7.9-15.8 13.6-17.8 15.6-14.2 14.1-29.3 12.6-33.1 11.9-6.2 0.1-52.7 0.4-59.3 0.4-2.9 0-5.5-1.4-7.3-4-6.2-8.9-4.4-36.3 4.1-59.9 4.4-17.3 9-32.8 13.9-47.2-6.7-4.5-11.6-7.3-16.9-6.7-5.4 11.5-10.4 22.3-14.8 32 1.1 2.7 2.6 5.2 4.4 7.2 1.1 1.2 1.7 2.9 1.5 4.5-0.2 1.7-1 3.2-2.3 4.2-4.9 3.8-9.3 5.7-13.3 5.8-7.6 17.5-12.6 30.2-14.9 37.7-3.6 11.8-10.1 20.2-19.3 24.8-5.9 3-12.1 3.9-17.6 3.9zM348 745.8c1.4 0 2.8 0.5 3.9 1.5 1.6 1.4 2.4 3.6 1.9 5.7-3.4 17.2-4.2 27-5 35.7-1.1 12.7-1.8 21.8-9.8 44-2.3 6.3-9.3 25.6-3.1 32.9 1.8 2.1 5.9 2.5 9.2 2.5 28.2 0 100.2 4.7 103.2 4.9 0.6 0 1.1 0.2 1.7 0.4 0.1 0 13.6 4.8 24.6-0.7 6.1-3.1 10.5-9 13.1-17.5 2.6-8.6 8.5-23.3 17.4-43.6 0.7-1.6 2.1-2.8 3.8-3.3 1.7-0.5 3.5-0.3 5 0.7h0.1c0.1 0 0.5 0 1.2-0.3-1.4-2.4-2.6-5.1-3.5-7.9-0.5-1.4-0.4-2.9 0.2-4.3 5-11.2 10.8-23.7 17.1-37.1 0.7-1.5 2.1-2.7 3.7-3.2 12.4-3.7 22.1 2.8 30.7 8.5 0.9 0.6 1.7 1.1 2.6 1.7 2.3 1.5 3.3 4.4 2.4 7-5.5 15.4-10.4 32.1-15.2 50.9 0 0.2-0.1 0.4-0.2 0.6-7.8 21.6-8.1 42.3-6.2 48.1 11.8-0.1 57.3-0.4 57.8-0.4 0.6 0 1 0.1 1.5 0.2 0.4 0.1 11.5 2.5 22.6-8.5 2.4-2.4 8.8-7.9 18.5-16.2 48.6-41.7 177.9-152.7 192.5-208.8 5.8-22.2 14.7-41.7 23.4-60.5 18.8-40.8 38.2-83 29.6-159.4-14.8-36.7-41-54-60.2-66.6-20.8-13.7-86.2-92.6-89-96-0.3-0.4-0.6-0.9-0.9-1.4-0.1-0.3-4.3-8.9-15.2-8.9-6.7 0-11.1 0.9-13.8 1.7 1.2 7.5 3.7 23.5 6.1 45.4 0.3 2.9-1.5 5.6-4.4 6.4-2.8 0.8-5.8-0.6-7-3.3-9.7-21-21.1-36.6-30.5-41.7-2.7-1.5-6-4.1-9.8-7.1-4.4-3.5-9.4-7.5-13.9-10-5.2-2.9-6.7-2.2-6.8-2.2-0.4 0.2-1.5 1.9-1.6 6.6 0 0.3-0.1 0.7-0.1 1-0.7 3.3-0.6 6.2-0.4 8.7 0.2 3-1.8 5.7-4.8 6.3-3 0.6-5.9-1.1-6.9-3.9-1.4-4-2.4-7.3-3.4-10.3-3.2-10.1-4.4-13.4-8.2-16.1-3.9-2.8-9.6-3.2-23.1-4-5.8-0.3-15.5 0-21.1 0.2l-1.2 4.9c-1 3.8-1.9 7.8-2.8 11.8-0.6 2.6-2.9 4.5-5.5 4.6-2.7 0.1-5.1-1.5-6-4-0.3-1-0.7-2-1-2.9-1.3-4.1-2.4-7.5-4.9-10.4-4.4 6.5-7 9.4-12.1 12.9-9.4 6.6-15.5 13-23.1 21.3-1.3 1.4-3.2 2.1-5.1 1.9-1.9-0.2-3.6-1.3-4.5-3-5.5-9.7-9.7-13.9-14.9-14.8-20.9-3.7-57.6-12-61.4-12.9-2.6-0.3-9.5-0.3-14 2.5-2.7 1.7-6.2 1-8.1-1.6-3.9-5.5-6.2-6.3-6.5-6.3-1.9 0.1-10.1 2.5-18.4 6.1-0.1 0-9.7 4.2-18 9.8-1.5 1-6.8 7-9.8 39.8-0.2 2.3-1.7 4.2-3.8 5-2.1 0.8-4.5 0.4-6.2-1.1-2.7-2.4-5.5-4.8-8.2-7.2-15.4-0.3-31.2-0.6-46.8-0.6-17.6-0.1-32.9-0.2-35.9 0.4-3 1.3-5.2 3.6-6.9 7.3-1 2.1-3.1 3.5-5.4 3.5-2.3 0-4.5-1.4-5.4-3.5-2.5-5.4-5.1-10.7-7.5-15.4-0.2 0.2-0.3 0.4-0.5 0.6-3.2 4-8 6.3-14.3 6.8-0.6 0.1-1.3 0-1.9-0.1-1.9-0.4-3.9-0.7-6.1-0.7-20.5 0-31.6-3.6-34.7-4.8-3.2-0.4-10.7-0.5-14.6 3.5-3.1 3.1-4 8.6-2.7 16.4 2.2 12.7 0.8 72-0.2 106.2 0 1.3-0.5 2.5-1.2 3.5-1.5 1.9-3.5 6.3-5 16.1-0.5 3.6-0.6 5.7-0.5 6.9 1.3 0.1 2.6 0.6 3.6 1.5 1.4 1.2 2.1 2.9 2 4.7-4 114.5-14.6 309.8-25.6 346.1-12.1 39.8-9.1 52.2-6.3 56.1 0.8 1.1 2.3 2.4 6 2.4 9.6 0 29.5 3.1 45.4 5.7 7.7 1.2 16.4 2.6 18 2.6 2.1 0 3.9 0.8 5.3 1.4 1.9 0.8 2.2 0.9 2.8 0.6 2.4-1 9.2-7 21.2-40.4 3.8-10.5 9.3-25.4 16.4-44.2 0.7-1.9 2.3-3.3 4.3-3.7 2-0.4 4.1 0.2 5.5 1.6 2.9 2.9 6.1 6.5 9.5 10.9 4.8-13.5 9.7-33.9 1.4-42.2-1.7-1.7-3-3.6-3.9-5.6-0.6-1.4-0.7-3.1-0.1-4.6 2.1-5.4 4.2-10.9 6.3-16.3 0.4-0.9 0.9-1.7 1.7-2.4 6.6-5.7 16-9.8 25-11 1-0.1 2 0 2.9 0.4 6.2 2.4 12.5 4.4 18.2 5.8 1.6 0.4 3.1 1.5 3.9 3 0.8 1.5 0.9 3.3 0.4 4.9-9.3 26.1-8.3 38.9-4.6 42 1.5 1.2 5.2 2.8 14.2 3.5 0.1 0 10 0.6 19.8-2.8 0.7-0.8 1.4-0.9 2.1-0.9zM195.9 857.3z m372.3-94.5c-2.2 0-4.2-1.2-5.3-3.1-1.7-3.1-3.8-6.2-5.8-9.3-5.4-8.2-11.1-16.8-10.9-26 0-0.9 0.2-1.7 0.6-2.5 1.9-3.9 3.7-7.6 5.3-10.9 0.4-0.9 1.1-1.7 1.9-2.3 8.6-6.1 20.9-2.9 31.7-0.1 1.2 0.3 2.3 0.6 3.5 0.9 1.8 0.5 3.3 1.7 4 3.4 0.7 1.7 0.6 3.7-0.3 5.3-7.1 12.7-13.3 26-19.1 40.7-0.9 2.2-2.9 3.6-5.2 3.8-0.2 0.1-0.3 0.1-0.4 0.1z m-9.9-36.9c0.5 5.2 4.5 11.4 8.8 17.9 3.7-8.5 7.5-16.6 11.6-24.4-6.3-1.6-12.9-2.9-16.6-1.4-1.2 2.4-2.5 5.1-3.8 7.9z" fill="" p-id="18193"></path></svg>