<?xml version="1.0" standalone="no"?><!DOCTYPE svg PUBLIC "-//W3C//DTD SVG 1.1//EN" "http://www.w3.org/Graphics/SVG/1.1/DTD/svg11.dtd"><svg t="1591177639277" class="icon" viewBox="0 0 1024 1024" version="1.1" xmlns="http://www.w3.org/2000/svg" p-id="20996" xmlns:xlink="http://www.w3.org/1999/xlink" width="200" height="200"><defs><style type="text/css"></style></defs><path d="M570.609778 956.700444c92.615111 12.942222 156.771556-66.062222 191.886222-244.408888a14.222222 14.222222 0 0 1 27.904 5.504c-37.959111 192.796444-113.208889 284.216889-226.375111 266.695111a174.08 174.08 0 0 1-15.260445-3.057778c-57.856 54.869333-135.779556 52.366222-229.930666-7.466667a14.222222 14.222222 0 0 1 15.260444-24.007111c76.928 48.881778 137.301333 55.594667 184.092445 20.152889-36.010667-18.730667-51.000889-50.659556-33.479111-82.403556 14.549333-26.339556 51.655111-47.971556 81.379555-48.967111 40.96-1.379556 53.12 33.038222 26.424889 83.171556a267.662222 267.662222 0 0 1-21.902222 34.787555z m-3.2-48.156444c17.720889-33.28 14.677333-41.884444-0.369778-41.372444-19.939556 0.668444-47.843556 16.924444-57.429333 34.289777-9.571556 17.351111 1.208889 36.551111 30.592 47.744 9.756444-11.335111 18.801778-24.888889 27.207111-40.661333z" fill="#000000" p-id="20997"></path><path d="M624.540444 23.296L689.493333 52.195556 374.158222 760.490667 309.191111 731.591111z" fill="#EC407A" p-id="20998"></path><path d="M599.936 37.546667L293.560889 725.717333l76.672 34.133334L676.622222 71.694222l-76.686222-34.133333z m11.562667-25.984l76.686222 34.147555a28.444444 28.444444 0 0 1 14.421333 37.546667L396.216889 771.413333a28.444444 28.444444 0 0 1-37.546667 14.407111l-76.686222-34.133333a28.444444 28.444444 0 0 1-14.421333-37.546667L573.952 25.969778a28.444444 28.444444 0 0 1 37.546667-14.421334z" fill="#000000" p-id="20999"></path><path d="M360.206222 766.236444a14.222222 14.222222 0 0 1 24.035556 15.217778l-58.069334 91.676445a14.222222 14.222222 0 0 1-17.792 5.376l-64.967111-28.928a14.222222 14.222222 0 0 1-7.850666-17.009778l30.663111-103.864889a14.222222 14.222222 0 0 1 27.292444 8.064l-27.150222 91.904 42.353778 18.858667 51.484444-81.294223zM556.330667 111.658667l11.662222-25.941334 98.787555 44.401778-11.662222 25.941333z" fill="#000000" p-id="21000"></path><path d="M268.487111 850.574222a14.222222 14.222222 0 1 1 26.069333 11.377778l-19.057777 43.719111a14.222222 14.222222 0 1 1-26.083556-11.377778l19.072-43.719111z" fill="#000000" p-id="21001"></path></svg>